<?xml version="1.0" encoding="UTF-8" standalone="no"?>
<!-- Created with Inkscape (http://www.inkscape.org/) -->

<svg
   version="1.1"
   id="svg352"
   width="50"
   height="50"
   viewBox="0 0 50 50"
   sodipodi:docname="light_icon.jpg"
   xmlns:inkscape="http://www.inkscape.org/namespaces/inkscape"
   xmlns:sodipodi="http://sodipodi.sourceforge.net/DTD/sodipodi-0.dtd"
   xmlns="http://www.w3.org/2000/svg"
   xmlns:svg="http://www.w3.org/2000/svg">
  <defs
     id="defs356" />
  <sodipodi:namedview
     id="namedview354"
     pagecolor="#ffffff"
     bordercolor="#666666"
     borderopacity="1.0"
     inkscape:pageshadow="2"
     inkscape:pageopacity="0.0"
     inkscape:pagecheckerboard="0"
     showgrid="false"
     width="50px"
     showguides="false" />
  <g
     inkscape:groupmode="layer"
     inkscape:label="Image"
     id="g358">
    <g
       id="g4625"
       transform="translate(-243.77049)">
      <g
         id="g542"
         transform="translate(21.498126,-18.426967)">
        <path
           style="fill:#b9b9b9;fill-opacity:1"
           d="m 480,502.62244 c 0,-0.20765 0.7875,-0.99515 1.75,-1.75 1.58606,-1.24387 1.62143,-1.2085 0.37756,0.37756 C 480.82119,502.91575 480,503.44548 480,502.62244 Z m -72,-5.01545 c 0,-0.21616 0.69837,-0.661 1.55194,-0.98855 0.88992,-0.34149 1.29132,-0.17385 0.94098,0.39301 C 409.90566,497.96166 408,498.4169 408,497.60699 Z m 6,-2.98455 c 0,-0.20765 0.7875,-0.99515 1.75,-1.75 1.58606,-1.24387 1.62143,-1.2085 0.37756,0.37756 C 414.82119,494.91575 414,495.44548 414,494.62244 Z m 35.24132,-1.12011 c 0.40773,-0.45007 0.27338,-1.38215 -0.29855,-2.07129 -0.72047,-0.86811 -0.7178,-1.45204 0.009,-1.90103 0.57671,-0.35642 1.08299,-0.50899 1.12507,-0.33903 0.65923,2.66252 0.54246,3.91718 -0.41558,4.46537 -0.63851,0.36537 -0.82733,0.29606 -0.41961,-0.15402 z M 419,490.62244 c 0,-0.20765 0.7875,-0.99515 1.75,-1.75 1.58606,-1.24387 1.62143,-1.2085 0.37756,0.37756 C 419.82119,490.91575 419,491.44548 419,490.62244 Z m 38.33333,-3.07845 c 0,-0.80081 0.38234,-1.21971 0.84965,-0.9309 0.4673,0.28881 0.59075,0.94401 0.27431,1.45601 -0.80862,1.30838 -1.12396,1.16106 -1.12396,-0.52511 z M 427,483 c 1.74243,-2.2 3.39306,-4 3.66806,-4 0.275,0 -0.92563,1.8 -2.66806,4 -1.74243,2.2 -3.39306,4 -3.66806,4 -0.275,0 0.92563,-1.8 2.66806,-4 z M 308.34281,428.5 c 0.004,-4.4 0.17944,-6.07561 0.39069,-3.72357 0.21124,2.35204 0.20827,5.95204 -0.007,8 -0.21487,2.04796 -0.38771,0.12357 -0.38408,-4.27643 z m 201.96706,1 c 0.006,-3.3 0.1923,-4.52944 0.41486,-2.73209 0.22256,1.79735 0.21797,4.49735 -0.0102,6 -0.22818,1.50265 -0.41027,0.0321 -0.40466,-3.26791 z m -201.94464,-39 c 0.003,-5.5 0.17053,-7.62242 0.37317,-4.71648 0.20265,2.90594 0.20052,7.40594 -0.005,10 -0.20525,2.59406 -0.37104,0.21648 -0.36844,-5.28352 z m 201.98418,1.5 c 0,-4.675 0.17226,-6.5875 0.3828,-4.25 0.21053,2.3375 0.21053,6.1625 0,8.5 -0.21054,2.3375 -0.3828,0.425 -0.3828,-4.25 z M 308.3605,351 c 0,-5.225 0.16854,-7.3625 0.37454,-4.75 0.206,2.6125 0.206,6.8875 0,9.5 -0.206,2.6125 -0.37454,0.475 -0.37454,-4.75 z m 201.99446,0.5 c -0.003,-4.95 0.16605,-7.10108 0.37577,-4.78017 0.20972,2.3209 0.21222,6.3709 0.006,9 C 510.5296,358.34892 510.358,356.45 510.35496,351.5 Z M 322,301.62244 c 0,-0.20765 0.7875,-0.99515 1.75,-1.75 1.58606,-1.24387 1.62143,-1.2085 0.37756,0.37756 C 322.82119,301.91575 322,302.44548 322,301.62244 Z M 309.43709,294.75 306.5,291.5 l 3.25,2.93709 c 1.7875,1.6154 3.25,3.0779 3.25,3.25 0,0.77256 -0.82513,0.0924 -3.56291,-2.93709 z M 325,296.05902 c 0,-2.41457 0.55611,-2.65816 1.34934,-0.59105 0.30982,0.80739 0.13297,1.73395 -0.39301,2.05902 C 325.43035,297.85207 325,297.19148 325,296.05902 Z M 303.09889,287.75 c -1.37729,-2.24201 -1.37459,-2.24323 0.75946,-0.34501 2.29128,2.03808 2.58792,2.59501 1.3822,2.59501 -0.4177,0 -1.38145,-1.0125 -2.14166,-2.25 z m 14.77355,-2.5 c -1.24387,-1.58606 -1.2085,-1.62143 0.37756,-0.37756 1.66575,1.30637 2.19548,2.12756 1.37244,2.12756 -0.20765,0 -0.99515,-0.7875 -1.75,-1.75 z m -4.46745,-5.5 -1.90499,-2.25 2.25,1.90499 c 1.2375,1.04774 2.25,2.06024 2.25,2.25 0,0.80025 -0.80479,0.20945 -2.59501,-1.90499 z m 84.1593,-1.45687 c -0.54268,-1.4252 -0.42782,-1.54006 0.5598,-0.5598 0.68342,0.67834 0.99067,1.48524 0.68278,1.79313 -0.30789,0.30789 -0.86705,-0.24711 -1.24258,-1.23333 z M 308.25513,272.75 c -1.41474,-1.78672 -3.40609,-5.75 -2.88909,-5.75 0.24002,0 1.36568,1.575 2.50146,3.5 2.06378,3.49785 2.25513,4.60852 0.38763,2.25 z m -16.79625,-2.81653 c -0.36253,-0.58659 -0.44468,-1.281 -0.18255,-1.54313 0.26212,-0.26213 0.74306,0.21781 1.06875,1.06653 0.67618,1.76211 0.0999,2.07206 -0.8862,0.4766 z M 289,265.5 c 0,-0.825 0.17686,-1.5 0.39301,-1.5 0.21616,0 0.65203,0.675 0.96862,1.5 0.31658,0.825 0.13972,1.5 -0.39301,1.5 C 289.43588,267 289,266.325 289,265.5 Z M 410,261 c 0.5887,-1.1 1.29537,-2 1.57037,-2 0.275,0 0.0183,0.9 -0.57037,2 -0.5887,1.1 -1.29537,2 -1.57037,2 -0.275,0 -0.0183,-0.9 0.57037,-2 z m -9.43571,-12.70687 c -0.54268,-1.4252 -0.42782,-1.54006 0.5598,-0.5598 0.68342,0.67834 0.99067,1.48524 0.68278,1.79313 -0.30789,0.30789 -0.86705,-0.24711 -1.24258,-1.23333 z m -105.99286,-2.86456 c -0.36782,-1.46551 -0.47591,-2.85742 -0.24019,-3.09314 0.23571,-0.23571 0.72951,0.77049 1.09733,2.236 0.36782,1.46551 0.47591,2.85742 0.24019,3.09314 -0.23571,0.23571 -0.72951,-0.77049 -1.09733,-2.236 z M 441.5,242 c 0.99549,-1.1 2.03498,-2 2.30998,-2 0.275,0 -0.31449,0.9 -1.30998,2 -0.99549,1.1 -2.03498,2 -2.30998,2 -0.275,0 0.31449,-0.9 1.30998,-2 z m -161.42105,-0.58333 c 0.048,-1.16495 0.28494,-1.4019 0.60416,-0.60417 0.28887,0.72187 0.25335,1.58437 -0.0789,1.91667 -0.33229,0.33229 -0.56864,-0.25834 -0.52522,-1.3125 z m 94.48534,-3.12354 c -0.54268,-1.4252 -0.42782,-1.54006 0.5598,-0.5598 0.68342,0.67834 0.99067,1.48524 0.68278,1.79313 -0.30789,0.30789 -0.86705,-0.24711 -1.24258,-1.23333 z m 69,-0.58626 c 0.37553,-0.98622 0.93469,-1.54122 1.24258,-1.23333 0.30789,0.30789 6.4e-4,1.11479 -0.68278,1.79313 -0.98762,0.98026 -1.10248,0.8654 -0.5598,-0.5598 z M 423,237.10699 c 0,-0.49116 0.73865,-1.17646 1.64144,-1.52289 1.37248,-0.52667 1.43434,-0.38034 0.37756,0.89301 -1.44013,1.73524 -2.019,1.91584 -2.019,0.62988 z m -145.26879,-4.02683 c -0.43497,-1.66335 -0.30483,-2.05378 0.43724,-1.31171 0.5811,0.5811 0.85979,1.64682 0.61931,2.36826 -0.24965,0.74895 -0.70294,0.29565 -1.05655,-1.05655 z m 11.65832,-9.50743 c -0.30123,-0.785 -0.38004,-2.4725 -0.17514,-3.75 0.27408,-1.70876 0.50623,-1.33149 0.87828,1.42727 0.52359,3.88245 0.24656,4.79759 -0.70314,2.32273 z M 276.15789,221 c 0,-1.375 0.22698,-1.9375 0.50439,-1.25 0.27741,0.6875 0.27741,1.8125 0,2.5 -0.27741,0.6875 -0.50439,0.125 -0.50439,-1.25 z m 12,-7 c 0,-1.375 0.22698,-1.9375 0.50439,-1.25 0.27741,0.6875 0.27741,1.8125 0,2.5 -0.27741,0.6875 -0.50439,0.125 -0.50439,-1.25 z m -20,-1 c 0,-1.375 0.22698,-1.9375 0.50439,-1.25 0.27741,0.6875 0.27741,1.8125 0,2.5 -0.27741,0.6875 -0.50439,0.125 -0.50439,-1.25 z m 7.03706,-2.5 c 0.0204,-1.65 0.2445,-2.20394 0.49804,-1.23097 0.25354,0.97297 0.23687,2.32297 -0.0371,3 -0.27393,0.67703 -0.48137,-0.11903 -0.46099,-1.76903 z M 242.27236,206 c 0,-2.475 0.19502,-3.4875 0.43337,-2.25 0.23836,1.2375 0.23836,3.2625 0,4.5 -0.23835,1.2375 -0.43337,0.225 -0.43337,-2.25 z m 46.01365,-1.5 c 0.008,-2.75 0.20172,-3.75631 0.43157,-2.23625 0.22986,1.52006 0.22371,3.77006 -0.0136,5 -0.23736,1.22994 -0.42542,-0.0137 -0.41792,-2.76375 z M 338,200.98608 c -1.05532,-0.69179 -0.46242,-0.79289 2,-0.34104 4.31279,0.79139 5.12629,1.35998 1.91667,1.33965 -1.32917,-0.008 -3.09167,-0.4578 -3.91667,-0.99861 z m 8.75,0.35164 c 0.6875,-0.27741 1.8125,-0.27741 2.5,0 0.6875,0.27741 0.125,0.50439 -1.25,0.50439 -1.375,0 -1.9375,-0.22698 -1.25,-0.50439 z m -13.24292,-2.32627 c -0.35034,-0.56686 0.0511,-0.7345 0.94098,-0.39301 1.73242,0.66479 2.04939,1.38156 0.61096,1.38156 -0.51754,0 -1.21592,-0.44485 -1.55194,-0.98855 z M 268.19495,196.5 c 0.0204,-1.65 0.2445,-2.20394 0.49804,-1.23097 0.25354,0.97297 0.23687,2.32297 -0.0371,3 -0.27393,0.67703 -0.48137,-0.11903 -0.46099,-1.76903 z m 19.96294,0.5 c 0,-1.375 0.22698,-1.9375 0.50439,-1.25 0.27741,0.6875 0.27741,1.8125 0,2.5 -0.27741,0.6875 -0.50439,0.125 -0.50439,-1.25 z m 38.76642,-2.75 -2.42431,-2.75 2.75,2.42431 c 2.57029,2.26589 3.20859,3.07569 2.42431,3.07569 -0.17912,0 -1.41662,-1.2375 -2.75,-2.75 z m 37.58697,-1.62688 C 365.45659,191.18041 366.4191,190 366.65019,190 c 0.72338,0 -1.6049,3.85397 -2.75929,4.56743 -0.6041,0.37335 -0.32492,-0.50159 0.62038,-1.94431 z M 276.19495,189.5 c 0.0204,-1.65 0.2445,-2.20394 0.49804,-1.23097 0.25354,0.97297 0.23687,2.32297 -0.0371,3 -0.27393,0.67703 -0.48137,-0.11903 -0.46099,-1.76903 z m 13.42859,0.96134 c -0.34295,-0.8937 -0.59502,-2.15061 -0.56015,-2.79313 0.0349,-0.64251 0.49453,-0.0904 1.02148,1.22697 0.52695,1.31735 0.77902,2.57426 0.56015,2.79313 -0.21887,0.21887 -0.67854,-0.33327 -1.02148,-1.22697 z m 79.10767,-5.5415 c 0.35361,-1.3522 0.8069,-1.8055 1.05655,-1.05655 0.24048,0.72144 -0.0382,1.78716 -0.61931,2.36826 -0.74207,0.74207 -0.87221,0.35164 -0.43724,-1.31171 z m -91.65226,-1.50317 c 0.048,-1.16495 0.28494,-1.4019 0.60416,-0.60417 0.28887,0.72187 0.25335,1.58437 -0.0789,1.91667 -0.33229,0.33229 -0.56864,-0.25834 -0.52522,-1.3125 z M 320.15789,181 c 0,-1.375 0.22698,-1.9375 0.50439,-1.25 0.27741,0.6875 0.27741,1.8125 0,2.5 -0.27741,0.6875 -0.50439,0.125 -0.50439,-1.25 z m 50.09429,-3.5 c 0.0111,-2.2 0.21589,-2.98225 0.45508,-1.73834 0.23919,1.24391 0.23011,3.04391 -0.0202,4 -0.25029,0.95609 -0.446,-0.0617 -0.4349,-2.26166 z m -79.17323,0.91667 c 0.048,-1.16495 0.28494,-1.4019 0.60416,-0.60417 0.28887,0.72187 0.25335,1.58437 -0.0789,1.91667 -0.33229,0.33229 -0.56864,-0.25834 -0.52522,-1.3125 z M 320.15789,172 c 0,-1.375 0.22698,-1.9375 0.50439,-1.25 0.27741,0.6875 0.27741,1.8125 0,2.5 -0.27741,0.6875 -0.50439,0.125 -0.50439,-1.25 z M 368.6,168.4 c -0.35589,-0.92744 -0.42208,-1.91126 -0.14708,-2.18626 0.275,-0.275 0.79119,0.25882 1.14708,1.18626 0.35589,0.92744 0.42208,1.91126 0.14708,2.18626 -0.275,0.275 -0.79119,-0.25882 -1.14708,-1.18626 z m -47.52105,-0.98333 c 0.048,-1.16495 0.28494,-1.4019 0.60416,-0.60417 0.28887,0.72187 0.25335,1.58437 -0.0789,1.91667 -0.33229,0.33229 -0.56864,-0.25834 -0.52522,-1.3125 z m -24.51466,-6.7098 c 0.37553,-0.98622 0.93469,-1.54122 1.24258,-1.23333 0.30789,0.30789 6.4e-4,1.11479 -0.68278,1.79313 -0.98762,0.98026 -1.10248,0.8654 -0.5598,-0.5598 z M 327,158.62244 c 0,-0.20765 0.7875,-0.99515 1.75,-1.75 1.58606,-1.24387 1.62143,-1.2085 0.37756,0.37756 C 327.82119,158.91575 327,159.44548 327,158.62244 Z m 32.50708,-2.61099 c -0.35034,-0.56686 0.0511,-0.7345 0.94098,-0.39301 1.73242,0.66479 2.04939,1.38156 0.61096,1.38156 -0.51754,0 -1.21592,-0.44485 -1.55194,-0.98855 z m -59.94279,-2.30458 c 0.37553,-0.98622 0.93469,-1.54122 1.24258,-1.23333 0.30789,0.30789 6.4e-4,1.11479 -0.68278,1.79313 -0.98762,0.98026 -1.10248,0.8654 -0.5598,-0.5598 z M 353.5,153 c -1.63041,-0.70061 -1.68751,-0.87242 -0.30902,-0.92971 0.93004,-0.0387 1.9691,0.37971 2.30902,0.92971 0.71066,1.14988 0.67591,1.14988 -2,0 z m 24.25,0.33772 c 0.6875,-0.27741 1.8125,-0.27741 2.5,0 0.6875,0.27741 0.125,0.50439 -1.25,0.50439 -1.375,0 -1.9375,-0.22698 -1.25,-0.50439 z m -91.67105,-1.92105 c 0.048,-1.16495 0.28494,-1.4019 0.60416,-0.60417 0.28887,0.72187 0.25335,1.58437 -0.0789,1.91667 -0.33229,0.33229 -0.56864,-0.25834 -0.52522,-1.3125 z M 342.25,151.28375 c 1.5125,-0.22913 3.9875,-0.22913 5.5,0 1.5125,0.22912 0.275,0.41659 -2.75,0.41659 -3.025,0 -4.2625,-0.18747 -2.75,-0.41659 z m 44.31429,-3.57688 c 0.37553,-0.98622 0.93469,-1.54122 1.24258,-1.23333 0.30789,0.30789 6.4e-4,1.11479 -0.68278,1.79313 -0.98762,0.98026 -1.10248,0.8654 -0.5598,-0.5598 z m -82.73733,-2.33619 c 0.56457,-1.02888 1.75625,-2.77068 2.64817,-3.87068 1.50531,-1.85647 1.51107,-1.77131 0.0804,1.18659 -0.84771,1.75262 -2.03939,3.49443 -2.64818,3.87067 -0.79261,0.48987 -0.81544,0.15297 -0.0804,-1.18658 z m 62.63192,0.56279 c -0.36253,-0.58659 -0.44468,-1.281 -0.18255,-1.54313 0.26212,-0.26213 0.74306,0.21781 1.06875,1.06653 0.67618,1.76211 0.0999,2.07206 -0.8862,0.4766 z M 290,144.05902 c 0,-0.51754 0.44485,-1.21592 0.98855,-1.55194 0.56686,-0.35034 0.7345,0.0511 0.39301,0.94098 C 290.71677,145.18048 290,145.49745 290,144.05902 Z m 2,-4 c 0,-0.51754 0.44485,-1.21592 0.98855,-1.55194 0.56686,-0.35034 0.7345,0.0511 0.39301,0.94098 C 292.71677,141.18048 292,141.49745 292,140.05902 Z m 75,-1 c 0,-0.51754 0.44485,-1.21592 0.98855,-1.55194 0.56686,-0.35034 0.7345,0.0511 0.39301,0.94098 C 367.71677,140.18048 367,140.49745 367,139.05902 Z m 16.50708,-4.04757 c -0.35034,-0.56686 0.0511,-0.7345 0.94098,-0.39301 1.73242,0.66479 2.04939,1.38156 0.61096,1.38156 -0.51754,0 -1.21592,-0.44485 -1.55194,-0.98855 z m -11.69458,-1.69456 c 0.72187,-0.28887 1.58438,-0.25335 1.91667,0.0789 0.33229,0.33229 -0.25834,0.56864 -1.3125,0.52522 -1.16495,-0.048 -1.4019,-0.28494 -0.60417,-0.60416 z M 323.5,120 c 3.26557,-3.3 6.16239,-6 6.43739,-6 0.275,0 -2.17182,2.7 -5.43739,6 -3.26557,3.3 -6.16239,6 -6.43739,6 -0.275,0 2.17182,-2.7 5.43739,-6 z m -20,3 c 0.99549,-1.1 2.03498,-2 2.30998,-2 0.275,0 -0.31449,0.9 -1.30998,2 -0.99549,1.1 -2.03498,2 -2.30998,2 -0.275,0 0.31449,-0.9 1.30998,-2 z m 5.5,-6.5 c 1.29175,-1.375 2.57363,-2.5 2.84863,-2.5 0.275,0 -0.55688,1.125 -1.84863,2.5 -1.29175,1.375 -2.57363,2.5 -2.84863,2.5 -0.275,0 0.55688,-1.125 1.84863,-2.5 z m -9,-0.87756 c 0,-0.20765 0.7875,-0.99515 1.75,-1.75 1.58606,-1.24387 1.62143,-1.2085 0.37756,0.37756 C 300.82119,115.91575 300,116.44548 300,115.62244 Z m 33.00363,-3.96426 c 1.37301,-1.563 3.39637,-3.30559 4.49637,-3.87241 2.10528,-1.08483 2.04382,-1.0194 -3.49637,3.72198 L 330.50727,114.5 Z M 316,109.68709 c 0,-0.1721 1.4625,-1.6346 3.25,-3.25 l 3.25,-2.93709 -2.93709,3.25 C 316.82513,109.77946 316,110.45965 316,109.68709 Z m 153.29398,-7.96912 c -1.19752,-0.53434 -2.43886,-1.65313 -2.75853,-2.486197 -0.48199,-1.256031 -0.32015,-1.297977 0.94782,-0.245657 0.84098,0.697952 2.98878,1.573544 4.77289,1.945764 2.62726,0.54813 2.86096,0.77949 1.22948,1.2172 -1.10789,0.29724 -2.99414,0.10324 -4.19166,-0.43111 z M 351,99.570368 c 0,-0.275 0.9,-0.981666 2,-1.570368 1.1,-0.588702 2,-0.845368 2,-0.570368 0,0.275 -0.9,0.981666 -2,1.570368 -1.1,0.588702 -2,0.845368 -2,0.570368 z m 127.56429,-1.863496 c 0.37553,-0.986221 0.93469,-1.541221 1.24258,-1.233333 0.30789,0.307887 6.4e-4,1.114794 -0.68278,1.793128 -0.98762,0.980267 -1.10248,0.865403 -0.5598,-0.559795 z m -16.05721,-0.695418 c -0.35034,-0.56686 0.0511,-0.734507 0.94098,-0.393011 C 465.18048,97.283234 465.49745,98 464.05902,98 c -0.51754,0 -1.21592,-0.444846 -1.55194,-0.988546 z M 339,91.570368 c 0,-0.275 0.9,-0.981666 2,-1.570368 1.1,-0.588702 2,-0.845368 2,-0.570368 0,0.275 -0.9,0.981666 -2,1.570368 -1.1,0.588702 -2,0.845368 -2,0.570368 z m 108.55764,-0.477109 c -0.30822,-0.498708 0.34022,-0.671224 1.44098,-0.383369 2.33499,0.610613 2.63015,1.29011 0.5604,1.29011 -0.79254,0 -1.69316,-0.408034 -2.00138,-0.906741 z m -7.52974,-3.559637 c -0.66934,-0.806508 -1.06194,-1.916798 -0.87244,-2.467311 0.1895,-0.550513 0.8647,0.109357 1.50045,1.466378 1.31782,2.812886 1.12751,3.116202 -0.62801,1.000933 z M 393.25,85.310674 c 0.9625,-0.251527 2.5375,-0.251527 3.5,0 0.9625,0.251528 0.175,0.457323 -1.75,0.457323 -1.925,0 -2.7125,-0.205795 -1.75,-0.457323 z m 8,-1 c 0.9625,-0.251527 2.5375,-0.251527 3.5,0 0.9625,0.251528 0.175,0.457323 -1.75,0.457323 -1.925,0 -2.7125,-0.205795 -1.75,-0.457323 z m 14.5,0.02705 c 0.6875,-0.277412 1.8125,-0.277412 2.5,0 0.6875,0.277413 0.125,0.504386 -1.25,0.504386 -1.375,0 -1.9375,-0.226973 -1.25,-0.504386 z M 426.232,79 c 0,-1.925 0.2058,-2.7125 0.45733,-1.75 0.25152,0.9625 0.25152,2.5375 0,3.5 C 426.4378,81.7125 426.232,80.925 426.232,79 Z M 471,79 c -0.90129,-0.58246 -1.02463,-0.975486 -0.30902,-0.984687 0.65504,-0.0084 1.4691,0.434687 1.80902,0.984687 0.7673,1.241525 0.42112,1.241525 -1.5,0 z m -12.45729,-3.930902 c -0.31644,-0.511996 -0.19299,-1.167201 0.27431,-1.456011 0.46731,-0.28881 0.84965,0.130095 0.84965,0.930902 0,1.686167 -0.31534,1.833491 -1.12396,0.525109 z M 381,74.606989 c 0,-0.216156 0.675,-0.652033 1.5,-0.968615 0.825,-0.316583 1.5,-0.139728 1.5,0.393011 C 384,74.564123 383.325,75 382.5,75 381.675,75 381,74.823145 381,74.606989 Z m 6.8125,-1.290103 c 0.72187,-0.288871 1.58438,-0.253344 1.91667,0.07895 0.33229,0.332292 -0.25834,0.568641 -1.3125,0.52522 -1.16495,-0.04798 -1.4019,-0.284941 -0.60417,-0.604167 z m 5.45653,-1.009877 c 0.97297,-0.253543 2.32297,-0.236869 3,0.03705 0.67703,0.273923 -0.11903,0.481368 -1.76903,0.460988 -1.65,-0.02038 -2.20394,-0.244498 -1.23097,-0.498042 z m 39.54347,-5.990123 c 0.72187,-0.288871 1.58438,-0.253344 1.91667,0.07895 0.33229,0.332292 -0.25834,0.568641 -1.3125,0.52522 -1.16495,-0.04798 -1.4019,-0.284941 -0.60417,-0.604167 z m -16,-2 c 0.72187,-0.288871 1.58438,-0.253344 1.91667,0.07895 0.33229,0.332292 -0.25834,0.568641 -1.3125,0.52522 -1.16495,-0.04798 -1.4019,-0.284941 -0.60417,-0.604167 z"
           id="path556" />
        <path
           style="fill:#a3a3a3;fill-opacity:1"
           d="m 401.2005,537.98086 c -2.06593,-1.25958 -3.03412,-2.47324 -2.58967,-3.24626 0.3904,-0.67903 0.34158,-0.901 -0.1085,-0.49328 -0.93817,0.84991 -3.70136,-1.11026 -3.05024,-2.16381 0.23654,-0.38273 2.81909,-0.4379 5.73899,-0.12261 2.91991,0.3153 9.13392,0.31595 13.80892,0.001 4.675,-0.3145 8.69219,-0.42864 8.9271,-0.25365 0.79126,0.58946 -5.22432,6.23165 -6.08012,5.70274 -0.46584,-0.28791 -0.84698,0.006 -0.84698,0.65218 0,0.68359 -0.83766,0.9566 -2.00138,0.65228 -1.10076,-0.28785 -1.7492,-0.11534 -1.44098,0.38337 1.13433,1.83539 -9.02178,0.92113 -12.35714,-1.1124 z m -2.59986,-32.02108 C 392.80061,505.05019 390.00741,504 393.3882,504 c 1.72783,0 7.04789,-2.2008 15.82189,-6.5452 8.92435,-4.41884 22.82398,-16.97262 21.37968,-19.30956 -0.27599,-0.44655 0.0409,-0.8326 0.70422,-0.85789 2.63482,-0.10046 9.78813,-1.29637 21.70601,-3.62886 18.51983,-3.62458 21.02449,-3.88587 20.34792,-2.12278 C 473.03888,472.34107 472.38417,473 471.89301,473 471.40186,473 471,473.44486 471,473.98857 c 0,1.10775 -1.69773,3.33487 -7.38611,9.68929 -3.28577,3.67049 -4.12645,4.14655 -5.44195,3.08163 -1.25529,-1.01617 -1.40747,-1.01266 -0.78777,0.0182 0.48661,0.80947 -0.39793,2.3669 -2.4138,4.25 -3.62867,3.38968 -4.9169,3.73871 -4.5114,1.22232 0.36064,-2.23806 -0.33148,-3.44683 -1.54438,-2.69721 -0.52097,0.32197 -0.61503,1.11681 -0.20902,1.76631 1.4144,2.26264 1.10649,3.7114 -1.0424,4.90464 -1.18974,0.66064 -2.50067,1.10556 -2.91317,0.98871 -0.4125,-0.11685 -0.75,0.26411 -0.75,0.84657 0,0.58246 -0.45,0.7809 -1,0.44098 -0.55,-0.33992 -1,-0.18378 -1,0.34698 0,1.14354 -8.5806,4.23909 -9.42096,3.39872 C 432.26057,501.92723 432,502.13312 432,502.70323 c 0,2.5753 -23.27346,4.84454 -33.39936,3.25655 z M 477,505.62244 c 0,-0.20765 0.7875,-0.99515 1.75,-1.75 1.58606,-1.24387 1.62143,-1.2085 0.37756,0.37756 C 477.82119,505.91575 477,506.44548 477,505.62244 Z M 445.4268,452 c 0.33016,-1.375 0.87969,-4.40761 1.22118,-6.73913 0.34149,-2.33151 1.12289,-4.64025 1.73645,-5.13053 0.61357,-0.49027 5.39057,-1.63943 10.61557,-2.55368 5.225,-0.91426 12.74565,-2.24779 16.71256,-2.96341 4.99504,-0.90109 7.01133,-0.96479 6.55805,-0.20719 -0.35999,0.60167 0.12606,0.4604 1.08011,-0.31393 1.61487,-1.31065 1.69881,-1.04222 1.2157,3.88752 -0.8659,8.83594 -0.52252,8.53052 -11.83644,10.5275 -5.62649,0.99312 -11.12998,1.9378 -12.22998,2.09931 -1.1,0.16151 -3.575,0.58391 -5.5,0.93867 -1.925,0.35476 -4.625,0.71474 -6,0.79995 -1.375,0.0852 -2.87654,0.60492 -3.33675,1.15492 -0.46625,0.55722 -0.57094,-0.10696 -0.23645,-1.5 z m 2.40818,-40.19889 c 0.28658,-5.94587 0.5711,-6.85926 1.96951,-6.32264 0.899,0.34498 1.28757,0.28026 0.86349,-0.14382 -0.88152,-0.88153 28.19277,-6.56577 30.04999,-5.875 0.66989,0.24915 1.48395,0.0227 1.80902,-0.50332 1.56012,-2.52432 2.47301,-0.32799 2.47301,5.94983 v 6.90616 l -5.25,0.71083 c -2.8875,0.39096 -6.15,0.89944 -7.25,1.12996 -1.1,0.23053 -6.725,1.303 -12.5,2.38329 -5.775,1.08029 -10.95,2.133 -11.5,2.33937 -0.62608,0.23491 -0.87474,-2.22352 -0.66502,-6.57466 z M 448,376.63084 c 0,-5.60448 0.27088,-6.64869 1.75,-6.74619 2.16405,-0.14264 3.08474,-0.31349 6.25,-1.15979 1.375,-0.36763 3.85,-0.88503 5.5,-1.14976 1.65,-0.26473 7.6125,-1.34594 13.25,-2.40268 L 485,363.25106 v 6.7078 c 0,4.65603 -0.38235,6.73279 -1.25,6.78947 -0.6875,0.0449 -5.975,1.02488 -11.75,2.17771 -5.775,1.15283 -11.85,2.297 -13.5,2.5426 -1.65,0.24561 -4.6875,0.74952 -6.75,1.1198 l -3.75,0.67324 z m 0,-30.79728 V 343 l 14.25,0.116 c 7.8375,0.0638 13.575,0.29147 12.75,0.50593 -0.825,0.21446 -7.2375,1.43736 -14.25,2.71756 L 448,348.66712 Z M 292.87244,325.25 c -1.24387,-1.58606 -1.2085,-1.62143 0.37756,-0.37756 1.66575,1.30637 2.19548,2.12756 1.37244,2.12756 -0.20765,0 -0.99515,-0.7875 -1.75,-1.75 z M 527,323.5 c 1.29175,-1.375 2.57363,-2.5 2.84863,-2.5 0.275,0 -0.55688,1.125 -1.84863,2.5 -1.29175,1.375 -2.57363,2.5 -2.84863,2.5 -0.275,0 0.55688,-1.125 1.84863,-2.5 z m -204.63837,-7 c -0.31659,-0.825 -1.14736,-1.5 -1.84617,-1.5 -0.69882,0 -1.83077,-0.675 -2.51546,-1.5 -0.8601,-1.03636 -0.89795,-1.5 -0.12244,-1.5 0.61734,0 1.12244,0.525 1.12244,1.16667 0,0.64166 0.30098,0.86568 0.66885,0.49781 0.36787,-0.36786 1.53019,0.11067 2.58295,1.0634 1.05276,0.95273 4.23928,2.01535 7.08115,2.36138 l 5.16705,0.62914 -5.78138,0.1408 c -4.31085,0.10499 -5.9278,-0.24074 -6.35699,-1.3592 z m 44.84656,0.75057 31.70819,-0.27855 0.34056,-7.73601 0.34057,-7.73601 0.20125,8.25 L 400,318 367.75,317.76456 335.5,317.52911 Z M 419,316 c 0,-1.1 0.47656,-2 1.05902,-2 0.58246,0 0.78905,0.43681 0.4591,0.97068 -1.14731,1.85638 4.19139,2.09771 40.13696,1.81434 19.8853,-0.15676 35.94624,0.0525 35.69099,0.46498 -0.25526,0.4125 -17.76255,0.75 -38.90509,0.75 C 419.66667,318 419,317.96531 419,316 Z m -94.58541,-1.1382 c -0.43129,-0.69784 -0.29172,-0.9039 0.34549,-0.51008 0.58801,0.36341 1.29701,0.0954 1.57556,-0.59549 0.3625,-0.89914 0.52891,-0.91769 0.58541,-0.0652 0.11408,1.72088 -1.6556,2.54754 -2.50646,1.17082 z m 175.6858,-1.56632 c 0.72815,-1.21249 1.53915,-1.98927 1.80223,-1.72619 0.26308,0.26308 -0.33267,1.25511 -1.3239,2.20452 -1.72194,1.64929 -1.74325,1.62798 -0.47833,-0.47833 z M 419.15136,296 c 0.12805,-9.35 0.50599,-17 0.83985,-17 0.33386,0 1.17654,-1.575 1.87263,-3.5 0.69609,-1.925 1.6377,-3.5 2.09248,-3.5 0.45478,0 1.10922,-1.125 1.45432,-2.5 0.34511,-1.375 1.06889,-2.5 1.60841,-2.5 0.53952,0 0.98095,-0.6199 0.98095,-1.37756 0,-0.75765 0.67005,-1.93364 1.48899,-2.6133 0.81894,-0.67967 1.24239,-1.63477 0.94098,-2.12245 C 430.12857,260.39901 430.35852,260 430.94098,260 431.52344,260 432,259.3801 432,258.62244 c 0,-0.75765 0.67005,-1.93364 1.48899,-2.6133 0.81894,-0.67967 1.27153,-1.58761 1.00574,-2.01766 -0.26578,-0.43005 0.19335,-1.04154 1.02029,-1.35887 0.82694,-0.31733 1.44607,-0.92698 1.37583,-1.35478 -0.33046,-2.01292 0.30496,-3.38273 2.66299,-5.74076 1.40461,-1.40461 2.29463,-2.97324 1.97782,-3.48584 -0.3168,-0.5126 0.42149,-1.86131 1.64065,-2.99713 3.37094,-3.14052 1.22528,-4.27431 -8.03301,-4.24472 -8.56418,0.0274 -12.1393,0.70976 -12.1393,2.31702 0,0.5454 0.44485,0.7167 0.98855,0.38068 0.55571,-0.34345 0.74078,0.0347 0.42268,0.86366 -0.31123,0.81104 -1.2346,1.73124 -2.05193,2.04488 -0.81734,0.31364 -1.20598,1.02343 -0.86367,1.57732 0.34232,0.55388 0.0709,1.00706 -0.60328,1.00706 -0.67413,0 -0.96265,0.26303 -0.64117,0.58452 0.32149,0.32148 -0.0572,1.33398 -0.84152,2.25 -0.78431,0.91601 -1.45517,2.11548 -1.49079,2.66548 -0.088,1.35834 -4.05936,7.82279 -5.36608,8.73469 -0.57904,0.40408 -0.71529,0.74158 -0.30279,0.75 0.4125,0.008 -0.15,0.91531 -1.25,2.01531 -2.11689,2.11689 -3.54028,2.68321 -2.49563,0.99294 0.34231,-0.55389 -0.0785,-1.27604 -0.93524,-1.60479 -0.85671,-0.32874 -1.35079,-0.93242 -1.09797,-1.34149 0.25282,-0.40908 -0.39766,-1.66402 -1.44552,-2.78877 -1.04786,-1.12474 -1.6323,-2.31789 -1.29876,-2.65144 C 404.06043,252.2729 403.80833,252 403.16667,252 402.525,252 402,251.18485 402,250.18856 c 0,-0.99629 -0.80027,-2.68379 -1.77837,-3.75 -0.97811,-1.06621 -3.02207,-4.07606 -4.54216,-6.68856 -3.00172,-5.15894 -1.88652,-4.77961 -14.67947,-4.99318 -7.23097,-0.12072 -8.85918,1.24115 -5.5,4.60032 0.825,0.825 1.5,1.98215 1.5,2.57143 0,0.58929 0.37642,1.07143 0.83648,1.07143 0.46006,0 2.1333,2.5875 3.7183,5.75 1.585,3.1625 3.23638,5.90093 3.66975,6.08541 0.43336,0.18448 0.53357,0.74698 0.22268,1.25 C 385.13633,256.58843 385.38508,257 386,257 c 0.61492,0 0.83992,0.45 0.5,1 -0.33992,0.55 -0.11115,1 0.50837,1 0.68898,0 0.88063,0.87376 0.49351,2.25 -0.49544,1.76135 -0.40481,1.92423 0.4173,0.75 0.9436,-1.34775 1.51532,-0.75183 1.19924,1.25 -0.0651,0.4125 0.33158,0.75 0.88158,0.75 0.55,0 1,0.675 1,1.5 0,0.825 0.47656,1.5 1.05902,1.5 0.58246,0 0.7809,0.45 0.44098,1 -0.33992,0.55 -0.14148,1 0.44098,1 0.58246,0 1.05902,0.48214 1.05902,1.07143 0,0.58928 0.67914,1.75056 1.50919,2.58062 0.83006,0.83005 1.2535,1.92291 0.94098,2.42857 -0.31251,0.50566 -0.0917,0.91938 0.49081,0.91938 0.58246,0 1.00573,0.3375 0.9406,0.75 -0.31473,1.99327 0.21908,3.30582 1.11842,2.75 0.64349,-0.3977 1,3.29932 1,10.37009 v 10.98811 l -5.25,1.08801 c -11.0519,2.2904 -23.16527,3.03887 -49.3,3.0462 -20.24626,0.006 -27.38873,0.322 -28.3967,1.25759 -0.74069,0.6875 -1.09771,0.79846 -0.79338,0.24658 0.31006,-0.56227 -0.69377,-1.02 -2.28323,-1.04114 -1.5601,-0.0207 -2.61199,0.32564 -2.33752,0.76974 0.27446,0.44409 0.94822,0.52983 1.49724,0.19052 0.54901,-0.33931 1.24788,0.33783 1.55304,1.50476 0.39886,1.52525 0.89532,1.83912 1.76603,1.11649 0.84401,-0.70047 1.21119,-0.60581 1.21119,0.31226 0,1.96761 -2.86958,1.59088 -3.40241,-0.44668 -0.25373,-0.97028 -1.00109,-1.55701 -1.66079,-1.30386 -1.50424,0.57723 -6.02391,-4.10936 -5.219,-5.41174 0.3267,-0.52862 -0.0498,-0.89943 -0.83667,-0.82403 -0.78688,0.0754 -1.51623,-0.3129 -1.6208,-0.8629 -0.10456,-0.55 -1.70591,-2.29476 -3.55855,-3.87725 C 299.5158,295.04026 298,293.1759 298,292.47974 c 0,-0.69617 -0.675,-1.52478 -1.5,-1.84137 -0.825,-0.31658 -1.5,-1.07187 -1.5,-1.67841 0,-0.60655 -0.5625,-1.73006 -1.25,-2.49668 -3.06834,-3.42149 -3.77605,-4.4643 -3.03943,-4.47859 0.43419,-0.008 0.33943,-0.34592 -0.21057,-0.75 -0.55,-0.40408 -1.675,-1.60857 -2.5,-2.67665 -1.33333,-1.72618 -1.33333,-1.85683 0,-1.17584 0.825,0.42136 0.62649,0.0577 -0.44113,-0.80804 C 286.49125,275.70837 285.98385,275 286.43132,275 c 0.44746,0 0.35643,-0.5625 -0.2023,-1.25 C 284.72282,271.89666 279,261.09038 279,260.09958 c 0,-0.47043 -0.76016,-2.59779 -1.68924,-4.72746 -0.92908,-2.12966 -1.75327,-4.09712 -1.83153,-4.37212 -0.0783,-0.275 -0.48069,-1.85 -0.89429,-3.5 -0.41359,-1.65 -1.00737,-3.675 -1.3195,-4.5 -0.83297,-2.20161 -1.01199,-2.94333 -3.13665,-12.99615 -0.63379,-2.99876 -0.60927,-4.7069 0.0736,-5.12895 0.66067,-0.40831 0.60084,-0.77382 -0.16865,-1.03031 -0.84001,-0.28001 -1.26073,-4.9048 -1.42317,-15.64437 -0.12684,-8.38577 0.0214,-15.49884 0.3294,-15.80681 0.308,-0.30798 0.65455,-2.43498 0.77009,-4.72668 0.21815,-4.3268 0.47993,-6.11261 1.6369,-11.16673 0.37772,-1.65 0.90417,-4.0125 1.16989,-5.25 1.13823,-5.30086 1.43527,-6.42238 3.09841,-11.69849 0.96248,-3.05333 2.04278,-5.55151 2.40068,-5.55151 0.35789,0 0.65071,-0.59701 0.65071,-1.32668 0,-1.95159 5.69292,-13.67332 6.64075,-13.67332 0.44584,0 0.54264,-0.43359 0.21512,-0.96353 -0.32752,-0.52993 0.32092,-1.87993 1.44099,-3 1.12006,-1.12006 1.72546,-2.03647 1.34534,-2.03647 -0.38012,0 0.18238,-0.70837 1.25,-1.57416 1.06762,-0.86578 1.34541,-1.26869 0.61731,-0.89535 -1.09629,0.56212 -1.09792,0.31705 -0.009,-1.42585 0.72291,-1.15755 1.65613,-2.10464 2.07383,-2.10464 0.4177,0 0.75945,-0.62686 0.75945,-1.39301 0,-0.76616 0.675,-1.65203 1.5,-1.96862 0.825,-0.31658 1.5,-1.09944 1.5,-1.73969 0,-0.64025 0.96885,-2.00437 2.15301,-3.03138 1.18416,-1.02702 1.86325,-1.8673 1.5091,-1.8673 -0.35415,0 0.702,-1.28622 2.34699,-2.85826 1.645,-1.57205 2.9909,-3.18746 2.9909,-3.58981 0,-1.44834 5.4039,-6.42034 6.34553,-5.83838 0.52992,0.32751 0.65635,0.0985 0.28097,-0.50887 -0.37861,-0.61261 0.33181,-1.62723 1.59549,-2.27866 1.25291,-0.64588 3.34457,-2.495862 4.64814,-4.111066 1.38436,-1.715305 2.96564,-2.708216 3.80194,-2.387298 0.78749,0.302189 1.18782,0.154655 0.88961,-0.327853 -0.29821,-0.482509 1.02842,-2.075256 2.94806,-3.539437 C 327.42938,90.096184 329,89.124632 329,89.40136 c 0,0.276728 1.19071,-0.600371 2.64602,-1.949109 C 333.10134,86.103513 334.76465,85 335.34227,85 c 0.57763,0 2.72277,-1.159072 4.76699,-2.575716 2.04422,-1.416644 4.36333,-2.670613 5.15358,-2.786598 0.79026,-0.115984 2.5169,-0.911608 3.83699,-1.768052 1.3201,-0.856444 3.3918,-1.479217 4.60379,-1.383939 1.21199,0.09528 1.97293,-0.200026 1.69098,-0.656231 C 355.11265,75.373259 355.58352,75 356.44098,75 357.29844,75 358,74.475 358,73.833333 c 0,-0.641666 0.2961,-0.870571 0.65799,-0.508676 0.3619,0.361895 1.2619,0.156795 2,-0.455778 C 361.3961,72.256307 362,72.090311 362,72.5 c 0,0.409689 0.675,0.184689 1.5,-0.5 0.825,-0.684689 1.5,-0.948957 1.5,-0.587261 0,0.361696 0.9292,0.160334 2.0649,-0.447471 2.0507,-1.0975 4.60013,-1.844513 8.4351,-2.471577 1.1,-0.179863 2.225,-0.417814 2.5,-0.528779 0.275,-0.110965 0.85573,-0.142388 1.29051,-0.06983 0.43478,0.07256 1.58415,-0.292819 2.55416,-0.811951 4.32996,-2.317323 32.5558,-3.388662 44.65533,-1.694936 2.75,0.384952 6.47653,0.887199 8.28117,1.116105 1.80464,0.228905 3.82964,0.760349 4.5,1.180987 0.67036,0.420638 2.03316,0.630696 3.02846,0.466795 0.99529,-0.163901 2.43808,0.223571 3.20619,0.861048 0.76811,0.637478 1.86628,0.868752 2.44038,0.513943 0.57409,-0.354809 1.0438,-0.120404 1.0438,0.520899 0,0.641303 0.675,0.906984 1.5,0.590402 0.825,-0.316583 1.5,-0.09158 1.5,0.5 0,0.591582 0.5625,0.861589 1.25,0.600016 1.77914,-0.67691 5.99259,1.06007 5.29793,2.184053 -0.3193,0.516648 -0.0537,1.264983 0.59027,1.662967 0.70462,0.435483 0.90371,0.291422 0.5,-0.361803 -0.36895,-0.596976 -0.21348,-1.368062 0.34549,-1.713526 C 460.54266,73.164618 461,73.385081 461,74 c 0,0.614919 0.41891,0.859136 0.9309,0.542705 0.512,-0.316431 1.21809,-0.110648 1.5691,0.457295 0.35101,0.567943 1.0571,0.773726 1.5691,0.457295 C 465.58109,75.140864 466,75.385081 466,76 c 0,0.614919 0.45,0.839919 1,0.5 0.55,-0.339919 1,-0.06648 1,0.60765 0,0.674126 0.27857,0.947112 0.61905,0.606636 0.34047,-0.340476 1.27675,0.03866 2.08062,0.842524 0.80386,0.803865 1.87529,1.205879 2.38095,0.893364 C 473.58628,79.13766 474,79.385081 474,80 c 0,0.614919 0.45,0.839919 1,0.5 0.55,-0.339919 1,-0.06648 1,0.60765 0,0.674126 0.28417,0.941516 0.63148,0.5942 0.93632,-0.936317 4.52093,1.242528 3.84459,2.336869 -0.31897,0.516105 0.11463,0.671837 0.96356,0.346072 0.90803,-0.348443 1.79598,0.06562 2.15673,1.005711 0.33726,0.878906 0.90852,1.415499 1.26945,1.19243 0.36094,-0.22307 1.55128,0.276057 2.64522,1.109171 1.93718,1.475313 1.92875,1.496765 -0.32409,0.823923 -2.11909,-0.632898 -2.20713,-0.52121 -1.04985,1.33189 0.69477,1.112494 1.61799,1.803453 2.05161,1.535463 0.43361,-0.26799 0.5204,0.211117 0.19286,1.064683 -0.74245,1.934786 0.97216,2.035582 2.53773,0.149184 0.89398,-1.077175 0.86437,-1.523051 -0.12755,-1.921053 -0.76702,-0.307757 -0.83371,-0.550368 -0.16418,-0.597246 2.01842,-0.141323 3.83896,2.85453 2.53006,4.163435 C 492.28079,95.119206 492,95.079226 492,94.077555 c 0,-1.007471 -0.32687,-1.051167 -1.37239,-0.183465 -1.13992,0.946055 -0.80115,2.316488 2,8.09066 1.85482,3.82343 3.37239,7.55098 3.37239,8.28347 0,0.73248 0.39344,1.75928 0.87431,2.28178 1.25635,1.36511 4.63811,12.55827 6.78277,22.45 2.61877,12.07844 2.6302,44.82922 0.0199,57 -5.92665,27.63348 -19.05018,51.60608 -39.14188,71.5 -12.12574,12.00637 -21.36652,18.81267 -35.48606,26.13728 l -9.17694,4.76061 0.31395,9.3033 c 0.17267,5.11681 -0.0419,9.30229 -0.47679,9.30105 -0.4349,-10e-4 -0.68596,-7.65224 -0.5579,-17.00224 z m -94.1884,3.05201 c 1.90343,-2.67311 1.90295,-2.74337 -0.0402,-5.93868 -1.08155,-1.77846 -1.73646,-3.60571 -1.45535,-4.06054 0.2811,-0.45484 -0.075,-0.76529 -0.79134,-0.68989 -3.03483,0.31945 -18.50239,-21.81489 -23.71237,-33.93281 -3.66301,-8.51982 -8.00964,-23.12819 -8.52056,-28.63631 -0.27006,-2.91158 -0.83374,-7.54378 -1.25262,-10.29378 -0.41887,-2.75 -0.65864,-7.7 -0.53281,-11 0.12582,-3.3 0.26121,-8.025 0.30086,-10.5 0.0531,-3.31606 0.33079,-4.10535 1.05538,-3 0.70965,1.08257 0.82133,0.65347 0.4013,-1.54191 -0.63086,-3.29736 3.29089,-20.73919 6.10092,-27.13357 5.33517,-12.14052 12.19124,-24.31045 17.02468,-30.21981 18.00382,-22.01148 40.76479,-37.132225 65.71726,-43.6578 8.86799,-2.319158 30.52763,-4.568983 36.9735,-3.840502 C 423.005,85.371908 427,83.499262 427,79.558734 c 0,-7.380732 -2.67371,-8.246423 -22.59838,-7.31687 -20.84285,0.97239 -19.73663,0.783341 -37.90162,6.477201 -15.74067,4.93395 -34.2411,15.891989 -48.63058,28.804515 -4.88021,4.37929 -15.02351,16.17481 -18.89815,21.97642 -1.8366,2.75 -3.81897,5.33061 -4.40527,5.73469 -0.5863,0.40408 -0.65876,0.74158 -0.16101,0.75 0.49774,0.008 0.22256,0.80281 -0.61151,1.76531 -0.83407,0.9625 -2.34042,3.6625 -3.34744,6 -1.00701,2.3375 -2.18021,4.25 -2.6071,4.25 -0.4269,0 -0.48882,0.74882 -0.13762,1.66404 0.42936,1.11889 0.25527,1.42717 -0.53138,0.94099 C 286.45845,150.1653 286,150.52424 286,151.52102 c 0,0.90148 -1.31662,5.36931 -2.92582,9.92852 -6.70384,18.99342 -9.4383,45.43505 -6.40097,61.89597 0.69471,3.76503 1.17637,7.14003 1.07035,7.5 -0.52537,1.78373 6.34324,23.22923 9.40497,29.36465 1.01831,2.04059 1.85147,4.40309 1.85147,5.25 0,0.84691 0.34015,1.53984 0.75589,1.53984 0.41574,0 1.32499,1.2857 2.02056,2.8571 3.98873,9.01115 21.10025,30.40401 25.68625,32.113 2.89226,1.07782 5.33038,0.12923 7.50026,-2.91809 z m 28.33905,-98.49595 c 6.08282,-2.16969 11.46008,-6.45091 14.35789,-11.43134 2.33222,-4.00834 2.68623,-5.70632 2.65622,-12.73998 -0.0322,-7.53396 -0.27411,-8.46516 -3.37783,-13 -4.11826,-6.01719 -4.51189,-6.40667 -9.28934,-9.19162 -4.71976,-2.75131 -13.6997,-3.80772 -19.3569,-2.27715 -5.07411,1.37281 -11.88761,6.47091 -14.14533,10.58403 -0.9057,1.65 -2.04885,3.2915 -2.54035,3.64778 -0.49149,0.35628 -1.10792,3.98698 -1.36984,8.06821 -0.42478,6.61897 -0.17787,8.02971 2.28606,13.0617 3.26048,6.65877 5.26777,8.68943 11.97741,12.1168 5.69368,2.9084 12.69251,3.34079 18.80201,1.16157 z m 29.01373,-47.6731 c 3.56994,-1.82569 5.63836,-5.14489 5.66202,-9.08591 0.0326,-5.43247 -1.76383,-8.49429 -5.97166,-10.17793 -7.41051,-2.9651 -13.73682,0.48443 -15.1254,8.24738 -1.44815,8.09599 7.98315,14.82739 15.43504,11.01646 z m 95.89844,-53.576787 c 2.18462,-1.977055 1.69613,-7.157205 -0.85432,-9.059677 -5.91463,-4.411917 -27.22425,-13.245221 -31.95487,-13.245992 -6.74661,-0.0011 -8.94168,8.976055 -2.90499,11.880497 1.65,0.793866 3.78139,1.820404 4.73643,2.281196 C 448.19147,91.622989 449.68913,92 450.56456,92 452.65273,92 467,98.911088 467,99.916961 c 0,0.427579 1.0125,1.235889 2.25,1.796249 2.49275,1.12875 6.13907,0.14965 8.96418,-2.407037 z M 425.5,311 c -0.33992,-0.55 0.0835,-1 0.94098,-1 0.85746,0 1.55902,0.45 1.55902,1 0,0.55 -0.42344,1 -0.94098,1 -0.51754,0 -1.2191,-0.45 -1.55902,-1 z m 79.85938,-3.79615 c -0.92396,-1.4795 -0.79355,-1.82086 0.73976,-1.93637 1.02382,-0.0771 2.11871,0.276 2.43311,0.7847 0.31439,0.5087 -0.13185,0.65496 -0.99165,0.32503 -1.13517,-0.43561 -1.39395,-0.15862 -0.94495,1.01145 0.8239,2.14706 0.15782,2.04749 -1.23627,-0.18481 z m 6.98686,-7.85785 c -0.1026,-1.77005 0.12158,-2.20709 0.67379,-1.31359 0.68748,1.11237 1.13661,1.10112 2.65375,-0.0665 1.00442,-0.77299 0.73528,-0.18156 -0.59809,1.3143 -1.33338,1.49586 -2.45838,2.71942 -2.5,2.71903 -0.0416,-3.8e-4 -0.14488,-1.19437 -0.22945,-2.65329 z M 517.53413,295 c 0.4639,-0.825 1.66603,-2.09329 2.67139,-2.81842 1.00537,-0.72513 1.58807,-1.70654 1.2949,-2.1809 -0.29318,-0.47437 -0.0757,-1.14514 0.48327,-1.4906 2.37361,-1.46697 0.75409,2.35987 -2.13835,5.05283 -1.73507,1.6154 -2.77511,2.26209 -2.31121,1.43709 z m -2.51882,-1.69098 C 515.02373,292.86406 515.46684,291.825 516,291 c 0.8354,-1.29269 0.97149,-1.26629 0.98469,0.19098 0.008,0.93004 -0.43469,1.9691 -0.98469,2.30902 -0.55,0.33992 -0.99311,0.25398 -0.98469,-0.19098 z m 4.06364,-7.5 c -0.10631,-2.27706 1.56335,-3.18355 2.30481,-1.25134 0.32633,0.85041 0.18692,1.29502 -0.3098,0.98803 -0.49673,-0.307 -1.13105,0.007 -1.4096,0.69806 -0.31483,0.7809 -0.53634,0.6164 -0.58541,-0.43475 z m 5.47384,-0.72361 c -0.32198,-0.52097 -0.15917,-1.21065 0.3618,-1.53262 0.52097,-0.32198 1.21065,-0.15917 1.53262,0.3618 0.32198,0.52097 0.15917,1.21065 -0.3618,1.53262 -0.52097,0.32198 -1.21065,0.15917 -1.53262,-0.3618 z m -0.67011,-3.34774 c 1.00527,-1.2813 1.72935,-1.47462 2.65275,-0.70826 0.90901,0.75441 1.41742,0.68684 1.78838,-0.23767 0.35574,-0.88662 0.54306,-0.91822 0.59724,-0.10076 0.10969,1.6547 -1.64135,2.5706 -2.44098,1.27677 -0.45055,-0.729 -1.182,-0.65529 -2.3191,0.23369 -1.48855,1.16376 -1.51744,1.11561 -0.27829,-0.46377 z M 518,273 c 0,-0.55 0.45,-1 1,-1 0.55,0 1,0.45 1,1 0,0.55 -0.45,1 -1,1 -0.55,0 -1,-0.45 -1,-1 z m 15.68662,-1.75 c 0.34312,-0.9625 1.05909,-2.3125 1.59106,-3 0.6438,-0.83204 0.5919,-1.25 -0.15524,-1.25 C 534.5051,267 534,266.50186 534,265.89301 c 0,-0.60884 0.58296,-0.88328 1.29547,-0.60987 0.77824,0.29864 1.35713,-0.32143 1.44991,-1.55303 0.0849,-1.12759 0.64221,-2.35162 1.23839,-2.72008 0.59619,-0.36846 0.80128,-1.53395 0.45577,-2.58998 -0.51469,-1.57311 -0.43323,-1.64901 0.45081,-0.42005 0.95913,1.33333 1.09765,1.33333 1.24665,0 0.34404,-3.07858 0.4838,-3.55147 1.70548,-5.77067 0.6875,-1.24886 0.93818,-2.82386 0.55706,-3.5 -0.50158,-0.88984 -0.37093,-0.93401 0.47313,-0.15996 0.88554,0.8121 0.82734,2.01501 -0.24189,5 -2.05172,5.7278 -8.42865,19.43063 -9.0425,19.43063 -0.28903,0 -0.24478,-0.7875 0.0983,-1.75 z m 10.39233,-24.83333 c 0.048,-1.16495 0.28494,-1.4019 0.60416,-0.60417 0.28887,0.72187 0.25335,1.58437 -0.0789,1.91667 -0.33229,0.33229 -0.56864,-0.25834 -0.52522,-1.3125 z M 538.5,245 c 0.33992,-0.55 0.81648,-1 1.05902,-1 0.24254,0 0.44098,0.45 0.44098,1 0,0.55 -0.47656,1 -1.05902,1 -0.58246,0 -0.7809,-0.45 -0.44098,-1 z m 6.91902,-4 c 0.38847,-1.925 1.06237,-5.64676 1.49755,-8.27057 0.78713,-4.74579 2.08343,-7.51962 2.08343,-4.45815 0,2.26764 -3.04162,15.11605 -3.7224,15.72415 -0.31068,0.27751 -0.24704,-1.07043 0.14142,-2.99543 z m 0.31219,-15.91984 c -0.43497,-1.66335 -0.30483,-2.05378 0.43724,-1.31171 0.5811,0.5811 0.85979,1.64682 0.61931,2.36826 -0.24965,0.74895 -0.70294,0.29565 -1.05655,-1.05655 z M 549.27236,222 c 0,-2.475 0.19502,-3.4875 0.43337,-2.25 0.23836,1.2375 0.23836,3.2625 0,4.5 -0.23835,1.2375 -0.43337,0.225 -0.43337,-2.25 z m -0.20207,-6.25 c 0.0386,-0.6875 0.45702,-2.15 0.92971,-3.25 0.72021,-1.67602 0.87082,-1.47353 0.92971,1.25 0.0387,1.7875 -0.37971,3.25 -0.92971,3.25 -0.55,0 -0.96837,-0.5625 -0.92971,-1.25 z m 0.96687,-11.25 c -0.19152,-2.75 -0.25475,-6.05356 -0.14053,-7.34125 0.12613,-1.42197 -0.20545,-2.08592 -0.84448,-1.69098 -0.57868,0.35764 -1.05215,0.17371 -1.05215,-0.40875 0,-1.52933 1.96897,-1.30345 2.58286,0.29631 0.28605,0.74543 0.35863,4.23293 0.16129,7.75 -0.35336,6.2978 -0.36407,6.31893 -0.70699,1.39467 z M 549.15789,188 c 0,-1.375 0.22698,-1.9375 0.50439,-1.25 0.27741,0.6875 0.27741,1.8125 0,2.5 -0.27741,0.6875 -0.50439,0.125 -0.50439,-1.25 z M 547.75,183.66821 c -0.4125,-1.00748 -0.73632,-3.03248 -0.71959,-4.5 0.0264,-2.31975 0.16539,-2.43633 1.06396,-0.89271 0.56845,0.97653 0.89227,3.00153 0.71959,4.5 -0.26221,2.27541 -0.43759,2.42256 -1.06396,0.89271 z M 544,174.72251 C 544,173.77513 544.45,173 545,173 c 0.55,0 1.03553,-0.7875 1.07895,-1.75 0.0452,-1.00188 0.2909,-1.22664 0.57474,-0.52576 0.27269,0.67333 -0.21283,2.23596 -1.07894,3.47251 -1.2867,1.83701 -1.57475,1.93318 -1.57475,0.52576 z m 0.028,-8.14892 c -0.56539,-1.48708 -0.98349,-3.68699 -0.92911,-4.88869 0.061,-1.34824 0.63088,-0.4891 1.48819,2.24358 1.52689,4.867 1.08341,6.96519 -0.55908,2.64511 z M 541,158.55902 C 541,157.70156 541.45,157 542,157 c 0.55,0 1,0.42344 1,0.94098 0,0.51754 -0.45,1.2191 -1,1.55902 -0.55,0.33992 -1,-0.0835 -1,-0.94098 z M 539.0856,156 c -0.0302,-0.825 0.38124,-2.175 0.9144,-3 1.18132,-1.82797 1.18132,-0.24909 0,2.5 -0.56668,1.31874 -0.87815,1.48906 -0.9144,0.5 z m -3.00665,-3.55887 c -0.0434,-0.58238 0.59715,-1.93238 1.4235,-3 1.45663,-1.88192 1.48195,-1.88274 0.83006,-0.0271 -0.50181,1.42849 -0.3364,1.7064 0.65206,1.0955 0.88782,-0.54871 1.0859,-0.43258 0.60084,0.35226 -0.39798,0.64395 -1.10408,0.93568 -1.5691,0.64828 -0.46502,-0.2874 -1.0734,0.0428 -1.35195,0.73369 -0.27856,0.69093 -0.54199,0.77974 -0.58541,0.19736 z M 532,144.94098 c 0,-1.13246 -0.41891,-1.80012 -0.9309,-1.48369 -0.512,0.31644 -1.18914,0.1575 -1.50476,-0.35319 -0.68662,-1.11098 1.36428,-0.90435 3.3556,0.33807 1.06627,0.66526 1.26395,0.47943 0.79367,-0.7461 -0.96467,-2.5139 1.03683,-3.0309 2.33598,-0.6034 0.87339,1.63194 0.86927,1.97522 -0.0171,1.42739 -0.71032,-0.439 -1.38207,0.10083 -1.7164,1.37932 C 533.61025,147.5984 532,147.62732 532,144.94098 Z m -3.39461,-5.52692 c -0.33472,-0.87227 -0.22491,-2.27153 0.24402,-3.10946 0.74927,-1.33886 0.92988,-1.32215 1.49014,0.13788 0.40858,1.06474 0.24405,1.4182 -0.45814,0.98423 -0.73146,-0.45207 -0.87146,0.0293 -0.42116,1.44806 0.77867,2.45336 0.0549,2.90998 -0.85486,0.53929 z m 1.88453,-5.43037 c -0.34546,-0.55897 -0.95059,-0.81701 -1.34473,-0.57342 -0.39414,0.24359 -0.71662,-0.39103 -0.71662,-1.41027 0,-2.16247 1.1228,-1.70679 2.60124,1.05569 1.06146,1.98336 0.60125,2.7744 -0.53989,0.928 z M 527,128.16667 c 0,-0.64167 -0.3375,-1.05417 -0.75,-0.91667 -0.4125,0.1375 -0.78646,0.025 -0.83102,-0.25 -0.0446,-0.275 -0.63844,-1.54155 -1.31974,-2.81457 -1.0055,-1.87879 -1.51231,-2.0875 -2.69187,-1.10855 -1.18743,0.98548 -1.33797,0.90585 -0.82327,-0.43544 0.34643,-0.90279 0.97832,-1.64144 1.4042,-1.64144 1.18212,0 6.29763,7.04741 5.61269,7.73235 C 527.27044,129.06289 527,128.80833 527,128.16667 Z M 518.59004,117.25 c -2.19579,-2.10801 -2.71041,-2.30844 -2.20438,-0.85856 0.55963,1.6035 0.42828,1.69903 -0.86277,0.62756 C 514.29298,115.99826 514,116.00312 514,117.0442 c 0,0.70901 -0.23559,1.05352 -0.52354,0.76557 -0.85182,-0.85182 0.65188,-3.84851 1.62832,-3.24503 0.49237,0.3043 0.89522,0.15172 0.89522,-0.33908 0,-1.7384 -1.33636,-2.19184 -2.84995,-0.967 -1.19317,0.96554 -1.36996,0.96821 -0.79576,0.012 1.12101,-1.86683 -1.20654,-5.63818 -2.70974,-4.39063 -0.88374,0.73343 -1.21598,0.47784 -1.21598,-0.93544 0,-1.06953 0.24729,-1.9446 0.54953,-1.9446 0.517,0 7.21928,6.91672 11.42689,11.7925 2.64581,3.06597 1.62637,2.76125 -1.81495,-0.5425 z M 505,110.05902 c 0,-0.51754 0.44485,-1.21592 0.98855,-1.55194 0.56686,-0.35034 0.7345,0.0511 0.39301,0.94098 C 505.71677,111.18048 505,111.49745 505,110.05902 Z m -0.39996,-3.89715 c -0.31791,-0.51439 0.052,-1.4581 0.82194,-2.09712 0.82791,-0.68711 1.63615,-0.77971 1.97798,-0.22662 0.31791,0.51439 -0.052,1.4581 -0.82194,2.09712 -0.82791,0.68711 -1.63615,0.77971 -1.97798,0.22662 z m -3.9676,-6.376156 C 500.89951,99.353571 500.21803,99 499.11803,99 c -1.1,0 -2.27493,-0.444846 -2.61095,-0.988546 -0.36318,-0.587631 0.11984,-0.730721 1.19098,-0.352821 1.23972,0.437371 1.48993,0.308077 0.80194,-0.41439 -0.55,-0.577562 -1.77565,-1.206293 -2.72367,-1.397178 -1.00866,-0.203096 -1.42348,-0.81998 -1,-1.487121 0.48227,-0.75976 2.14464,0.08609 4.98348,2.535715 3.28615,2.835604 3.81721,3.675771 2.32342,3.675771 -1.06502,0 -1.71787,-0.35357 -1.45079,-0.785716 z"
           id="path554" />
        <path
           style="fill:#8c8c8c;fill-opacity:1"
           d="m 408.8125,540.31689 c 0.72187,-0.28887 1.58438,-0.25335 1.91667,0.0789 0.33229,0.33229 -0.25834,0.56864 -1.3125,0.52522 -1.16495,-0.048 -1.4019,-0.28494 -0.60417,-0.60416 z M 333.27236,430 c 0,-2.475 0.19502,-3.4875 0.43337,-2.25 0.23836,1.2375 0.23836,3.2625 0,4.5 -0.23835,1.2375 -0.43337,0.225 -0.43337,-2.25 z M 333.116,396.30902 c -0.0638,-2.85504 0.22978,-5.40469 0.6524,-5.66589 0.42263,-0.26119 0.62382,1.39975 0.4471,3.69099 -0.51902,6.72937 -0.97495,7.5483 -1.0995,1.9749 z M 333.39172,356 c 0,-7.425 0.15742,-10.4625 0.34983,-6.75 0.19241,3.7125 0.19241,9.7875 0,13.5 -0.19241,3.7125 -0.34983,0.675 -0.34983,-6.75 z m -4.05877,-38.91527 c -2.84187,-0.34353 -6.02839,-1.40412 -7.08115,-2.35685 -1.05276,-0.95273 -2.21508,-1.43126 -2.58295,-1.0634 -0.36787,0.36787 -0.66885,0.0957 -0.66885,-0.6048 0,-0.7213 -0.65052,-1.02403 -1.5,-0.69805 -0.92992,0.35684 -1.5,-0.005 -1.5,-0.95203 0,-0.8402 0.375,-1.29587 0.83333,-1.01261 0.45834,0.28327 0.83334,-0.14204 0.83334,-0.94513 0,-1.25292 -0.23987,-1.2431 -1.68995,0.0692 -1.51443,1.37054 -1.82143,1.37097 -2.95578,0.004 C 312.32473,308.68635 312.09031,308 312.5,308 c 0.40969,0 0.2626,-0.58113 -0.32687,-1.29139 -0.83397,-1.00488 -0.43812,-1.28297 1.78418,-1.25342 1.63349,0.0217 2.59972,0.46747 2.25735,1.04139 -0.32922,0.55188 0.0503,0.48693 0.84338,-0.14434 0.98833,-0.78668 11.82359,-1.3078 34.44196,-1.6565 24.76743,-0.38182 34.87104,-0.90598 40.5,-2.10106 4.125,-0.87578 7.5,-1.59391 7.5,-1.59585 0,-0.002 -0.14677,3.59753 -0.32615,7.99882 L 398.84771,317 h -30.84207 c -16.96314,0 -31.44137,0.1596 -32.17385,0.35467 -0.73249,0.19507 -3.65696,0.0736 -6.49884,-0.26994 z m -2.4119,-3.39375 c -0.0565,-0.85244 -0.22291,-0.83389 -0.58541,0.0652 -0.27855,0.69093 -0.98755,0.9589 -1.57556,0.59549 -0.63721,-0.39382 -0.77678,-0.18776 -0.34549,0.51008 0.85086,1.37672 2.62054,0.55006 2.50646,-1.17082 z m -12.7526,-6.92253 c -0.74207,-0.74207 -0.87221,-0.35164 -0.43724,1.31171 0.35361,1.3522 0.8069,1.8055 1.05655,1.05655 0.24048,-0.72144 -0.0382,-1.78716 -0.61931,-2.36826 z M 320.5,316 c -0.33992,-0.55 -0.14148,-1 0.44098,-1 0.58246,0 1.05902,0.45 1.05902,1 0,0.55 -0.19844,1 -0.44098,1 -0.24254,0 -0.7191,-0.45 -1.05902,-1 z m 100.5,0.0122 c -0.825,-0.53985 -1.05,-0.99533 -0.5,-1.01217 0.55,-0.0168 0.325,-0.46684 -0.5,-1 -0.825,-0.53316 -1.05,-0.97526 -0.5,-0.98244 0.61688,-0.008 0.87972,-3.57732 0.68605,-9.31637 l -0.31395,-9.3033 9.17694,-4.76061 c 14.11954,-7.32461 23.36032,-14.13091 35.48606,-26.13728 20.0917,-19.89392 33.21523,-43.86652 39.14188,-71.5 2.6103,-12.17078 2.59887,-44.92156 -0.0199,-57 -2.14466,-9.89173 -5.52642,-21.08489 -6.78277,-22.45 C 496.39344,112.0275 496,111.0007 496,110.26822 c 0,-0.73249 -1.51757,-4.46004 -3.37239,-8.28347 -2.80115,-5.774172 -3.13992,-7.144605 -2,-8.09066 1.04937,-0.870896 1.37988,-0.815945 1.40419,0.233465 0.0212,0.913994 0.56399,0.704366 1.62498,-0.627555 1.57175,-1.973114 1.58602,-1.969753 1.06181,0.25 -0.4035,1.708602 -0.0726,2.280078 1.37503,2.375 3.12692,0.20503 3.70749,0.342775 4.41135,1.046637 0.3694,0.369401 -0.48056,0.545158 -1.88881,0.390572 -1.40824,-0.154586 -2.32142,0.105677 -2.02928,0.578363 C 496.87901,98.613257 498.01803,99 499.11803,99 c 1.1,0 1.79163,0.3375 1.53695,0.75 -0.25469,0.4125 0.67076,0.81813 2.05653,0.90141 2.43981,0.14661 12.81108,9.15934 11.75511,10.2153 -0.26801,0.26801 -1.18246,-0.37986 -2.03212,-1.43971 -1.47466,-1.83946 -1.4948,-1.82385 -0.44342,0.34367 0.60577,1.24886 0.76922,2.82386 0.36321,3.5 -0.48486,0.80743 -0.1616,0.76169 0.94192,-0.13329 1.43617,-1.16477 1.76966,-1.12931 2.29674,0.24425 0.33914,0.88379 1.089,1.31494 1.66634,0.95812 0.58087,-0.359 0.7562,-0.17382 0.39254,0.41459 -0.36146,0.58485 0.72854,2.22938 2.42221,3.65451 1.69368,1.42513 2.64303,2.59115 2.10967,2.59115 -0.53335,0 -1.25318,0.73865 -1.59961,1.64144 -0.52472,1.36739 -0.37759,1.43206 0.88117,0.38738 1.23422,-1.02431 1.62404,-0.95967 2.12768,0.35281 0.33914,0.88379 1.13197,1.29809 1.76183,0.92067 0.66209,-0.39672 0.5974,-0.01 -0.15334,0.91671 -0.87302,1.07765 -0.95494,1.8153 -0.25,2.25098 0.57671,0.35642 1.04856,0.40089 1.04856,0.0988 0,-0.30207 0.87415,0.19925 1.94256,1.11405 1.48226,1.26915 1.70907,2.09957 0.95718,3.50449 -0.54196,1.01266 -0.62862,1.76334 -0.19256,1.66818 1.49597,-0.3265 4.28135,1.35402 3.72806,2.24926 -0.3043,0.49237 -0.0216,0.89522 0.62819,0.89522 0.87253,0 0.85098,0.39821 -0.0824,1.52289 -1.05047,1.26574 -0.99974,1.42153 0.30043,0.92261 1.12379,-0.43124 1.46678,-0.0857 1.21796,1.22711 -0.1905,1.00506 -0.3808,2.19145 -0.42288,2.63641 -0.0421,0.44496 -0.63901,0.45761 -1.32651,0.0281 -1.84829,-1.15466 -3.84555,-1.30076 -3.18566,-0.23304 0.31562,0.51069 0.99276,0.66963 1.50476,0.35319 0.51199,-0.31643 0.9309,0.35123 0.9309,1.48369 0,2.7172 1.61369,2.64427 2.33275,-0.10543 0.47628,-1.82129 0.81012,-1.96187 2.10562,-0.88669 0.84679,0.70276 1.29301,1.67677 0.9916,2.16445 -0.3014,0.48768 -0.0611,0.88669 0.53407,0.88669 0.62427,0 0.38039,1.0709 -0.57645,2.53121 -0.91218,1.39216 -1.37255,2.81716 -1.02305,3.16666 0.3495,0.34951 0.63546,0.0839 0.63546,-0.59022 0,-0.67413 0.44485,-0.95075 0.98855,-0.61473 0.56686,0.35034 0.7345,-0.0511 0.39301,-0.94098 C 538.05401,149.69837 538.25374,149 538.8254,149 c 0.6049,0 0.90939,1.77655 0.72842,4.25 -0.17102,2.3375 -0.1076,3.4625 0.14094,2.5 0.78253,-3.03047 2.15393,-1.89695 1.64117,1.3565 -0.32543,2.0649 -0.12853,2.88335 0.58724,2.44098 0.66594,-0.41157 1.07683,0.34867 1.07683,1.99237 0,2.38283 1.58468,6.93911 4.04801,11.63884 0.57849,1.10369 0.46406,1.84733 -0.33407,2.17105 -0.85349,0.34617 -0.87058,0.51581 -0.0576,0.57131 0.65032,0.0444 0.92933,0.94717 0.63757,2.0629 -0.64732,2.47533 0.4864,7.26983 1.56187,6.60516 0.43844,-0.27098 0.71321,1.52297 0.61058,3.98655 -0.10263,2.46358 0.18325,4.70781 0.63529,4.98719 0.45204,0.27937 0.45493,1.50452 0.006,2.72255 -0.4485,1.21803 -0.50118,4.9146 -0.11705,8.2146 0.40037,3.43964 0.26721,7.25661 -0.31205,8.94476 -0.73295,2.13602 -0.69031,3.05148 0.15526,3.33333 0.64115,0.21372 1.16572,0.82763 1.16572,1.36426 0,0.53663 -0.49988,0.66674 -1.11084,0.28915 -0.76979,-0.47576 -1.00005,0.69495 -0.75,3.81317 0.23166,2.8888 -0.11996,4.94868 -0.98215,5.75381 -0.81736,0.76326 -1.20155,2.73731 -0.9816,5.0437 0.19877,2.08427 0.065,3.60638 -0.29736,3.38245 -0.89004,-0.55007 -2.13344,6.35312 -1.36754,7.59238 0.33414,0.54064 0.13097,0.98299 -0.45149,0.98299 -0.58246,0 -1.05902,0.92656 -1.05902,2.05902 0,1.30174 -0.42461,1.79659 -1.15451,1.34549 -0.70779,-0.43744 -0.88336,-0.2748 -0.45375,0.42031 0.38541,0.62362 0.13824,2.15565 -0.54926,3.40451 -1.22168,2.2192 -1.36144,2.69209 -1.70548,5.77067 -0.149,1.33333 -0.27533,1.33333 -1.137,0 -1.29209,-1.99936 -1.27375,-0.38002 0.0231,2.04324 0.82553,1.54252 0.72896,1.79886 -0.5,1.32727 -1.36861,-0.52519 -2.06385,1.09083 -1.65356,3.8435 0.0585,0.39271 -0.56317,0.45706 -1.38158,0.14301 -0.8184,-0.31405 -1.488,-0.0728 -1.488,0.53599 0,0.60885 0.42331,1.10699 0.9407,1.10699 0.51738,0 0.31541,1.20523 -0.44882,2.6783 -0.76424,1.47306 -1.11373,3.12454 -0.77666,3.66994 0.37099,0.60027 -0.0997,0.7182 -1.19262,0.29881 -1.4669,-0.56291 -1.58665,-0.42915 -0.63852,0.71327 0.9099,1.09637 0.82887,1.53585 -0.36783,1.99507 -0.84414,0.32393 -1.47734,0.93898 -1.4071,1.36678 0.329,2.00406 -0.20345,3.33758 -1.10915,2.77783 -0.55,-0.33992 -1,-0.0864 -1,0.56343 0,0.88585 -0.34211,0.89753 -1.36732,0.0467 -1.04928,-0.87082 -1.68894,-0.72484 -2.75,0.62756 -1.23066,1.56857 -1.20486,1.62354 0.23464,0.5 1.31315,-1.02492 1.83515,-0.99987 2.77552,0.13322 0.90046,1.08498 0.80716,1.53025 -0.41925,2.00087 -1.02622,0.3938 -1.3306,0.20589 -0.87102,-0.53772 0.44534,-0.72058 0.26179,-0.86825 -0.49662,-0.39952 -0.92729,0.5731 -0.9054,1.10988 0.0955,2.34174 1.10186,1.35611 1.05062,1.50544 -0.33826,0.98579 -1.27283,-0.47623 -1.5315,-0.12872 -1.16325,1.56277 0.38336,1.76084 0.26947,1.88945 -0.59787,0.67518 -1.01418,-1.41985 -1.17764,-1.31552 -1.47706,0.94276 -0.0688,0.51852 -1.1375,1.88605 -2.375,3.03896 -2.44039,2.27356 -3.04901,3.80058 -0.95287,2.39072 0.71342,-0.47984 0.37592,-0.0342 -0.75,0.99029 -1.12592,1.0245 -2.04713,2.23553 -2.04713,2.69118 0,0.45565 -1.35649,2.15468 -3.01443,3.77562 -2.11263,2.06548 -3.81787,2.85897 -5.70006,2.65235 -2.37458,-0.26066 -2.55361,-0.0834 -1.54573,1.53046 0.87542,1.40178 0.82667,2.20267 -0.21016,3.45197 -0.74253,0.89469 -1.88066,1.42309 -2.52918,1.17423 -0.64853,-0.24886 -1.93989,0.83538 -2.8697,2.40943 l -1.69057,2.8619 -37.72008,0.0419 C 437.15682,316.97743 421.91715,316.61232 421,316.01217 Z M 428,311 c 0,-0.55 -0.70156,-1 -1.55902,-1 -0.85746,0 -1.2809,0.45 -0.94098,1 0.33992,0.55 1.04148,1 1.55902,1 0.51754,0 0.94098,-0.45 0.94098,-1 z m 86.29733,-11.92336 c -0.43853,-0.32995 -1.08904,-0.96139 -1.44559,-1.4032 -0.35654,-0.4418 -0.58154,0.31238 -0.5,1.67596 0.11428,1.91093 0.44565,2.23258 1.44559,1.4032 0.71354,-0.59183 0.93854,-1.34601 0.5,-1.67596 z m 2.68736,-7.88566 C 516.97149,289.73371 516.8354,289.70731 516,291 c -1.2656,1.95837 -1.2656,3.28218 0,2.5 0.55,-0.33992 0.99311,-1.37898 0.98469,-2.30902 z m 4.08927,-5.64527 c 0.49672,0.30699 0.63613,-0.13762 0.3098,-0.98803 -0.74146,-1.93221 -2.41112,-1.02572 -2.30481,1.25134 0.0491,1.05115 0.27058,1.21565 0.58541,0.43475 0.27855,-0.69093 0.91287,-1.00506 1.4096,-0.69806 z M 520,273 c 0,-0.55 -0.45,-1 -1,-1 -0.55,0 -1,0.45 -1,1 0,0.55 0.45,1 1,1 0.55,0 1,-0.45 1,-1 z m 20,-28 c 0,-0.55 -0.19844,-1 -0.44098,-1 -0.24254,0 -0.7191,0.45 -1.05902,1 -0.33992,0.55 -0.14148,1 0.44098,1 0.58246,0 1.05902,-0.45 1.05902,-1 z m 6.16845,-21.23155 c -0.74207,-0.74207 -0.87221,-0.35164 -0.43724,1.31171 0.35361,1.3522 0.8069,1.8055 1.05655,1.05655 0.24048,-0.72144 -0.0382,-1.78716 -0.61931,-2.36826 z M 549.5,195 c 0.33992,-0.55 0.14148,-1 -0.44098,-1 -0.58246,0 -1.05902,0.45 -1.05902,1 0,0.55 0.19844,1 0.44098,1 0.24254,0 0.7191,-0.45 1.05902,-1 z m -4.13837,-20.5 c 0.31658,-0.825 0.13972,-1.5 -0.39301,-1.5 -0.53274,0 -0.96862,0.675 -0.96862,1.5 0,0.825 0.17686,1.5 0.39301,1.5 0.21616,0 0.65203,-0.675 0.96862,-1.5 z m -15.90138,-35.62523 c -0.4503,-1.41878 -0.3103,-1.90013 0.42116,-1.44806 0.70219,0.43397 0.86672,0.0805 0.45814,-0.98423 -0.56026,-1.46003 -0.74087,-1.47674 -1.49014,-0.13788 -0.46893,0.83793 -0.57874,2.23719 -0.24402,3.10946 0.90972,2.37069 1.63353,1.91407 0.85486,-0.53929 z m -13.69928,-21.66651 c 1.39614,1.15128 1.42824,1.03239 0.29526,-1.09336 -1.00244,-1.88083 -1.45667,-2.09225 -2.1484,-1 -0.48246,0.76181 -0.84857,1.8351 -0.81357,2.3851 0.035,0.55 0.29687,0.41872 0.58193,-0.29174 0.42357,-1.05565 0.8046,-1.05565 2.08478,0 z m -9.37941,-7.7602 c 0.34149,-0.88992 0.17385,-1.29132 -0.39301,-0.94098 -0.5437,0.33602 -0.98855,1.0344 -0.98855,1.55194 0,1.43843 0.71677,1.12146 1.38156,-0.61096 z m 4.04841,-2.56137 c -0.94437,-1.52803 -2.0014,-0.9693 -2.0014,1.05791 0,1.4624 0.31609,1.68228 1.27471,0.8867 0.70108,-0.58185 1.0281,-1.45693 0.72669,-1.94461 z m -3.03001,-3.04856 c -0.34183,-0.55309 -1.15007,-0.46049 -1.97798,0.22662 -0.76998,0.63902 -1.13985,1.58273 -0.82194,2.09712 0.34183,0.55309 1.15007,0.46049 1.97798,-0.22662 0.76998,-0.63902 1.13985,-1.58273 0.82194,-2.09712 z M 506.5,307 c -0.33992,-0.55 -0.14148,-1 0.44098,-1 0.58246,0 1.05902,0.45 1.05902,1 0,0.55 -0.19844,1 -0.44098,1 -0.24254,0 -0.7191,-0.45 -1.05902,-1 z M 313,101.62244 c 0,-0.20765 0.7875,-0.99515 1.75,-1.749995 1.58606,-1.243871 1.62143,-1.208501 0.37756,0.377555 C 313.82119,101.91575 313,102.44548 313,101.62244 Z m 175.38156,-9.174378 c 0.32754,-0.853566 0.24075,-1.332673 -0.19286,-1.064683 -0.43362,0.26799 -1.30729,-0.34362 -1.94149,-1.359133 -0.91798,-1.469935 -0.84626,-1.964127 0.35179,-2.423863 0.85282,-0.327255 1.24015,-0.149139 0.89392,0.411071 -0.33602,0.5437 0.3906,0.988546 1.61473,0.988546 1.22413,0 1.93268,0.293005 1.57456,0.651123 -0.35812,0.358118 0.12938,1.291489 1.08333,2.074158 0.95395,0.782668 1.20305,1.157323 0.55356,0.832565 -0.6495,-0.324759 -1.46356,-0.133129 -1.80902,0.425842 -1.00261,1.622254 -2.78451,1.173853 -2.12852,-0.535626 z M 394.8125,39.316886 c 0.72187,-0.288871 1.58438,-0.253344 1.91667,0.07895 0.33229,0.332292 -0.25834,0.568641 -1.3125,0.52522 -1.16495,-0.04798 -1.4019,-0.284941 -0.60417,-0.604167 z m 28,0 c 0.72187,-0.288871 1.58438,-0.253344 1.91667,0.07895 0.33229,0.332292 -0.25834,0.568641 -1.3125,0.52522 -1.16495,-0.04798 -1.4019,-0.284941 -0.60417,-0.604167 z"
           id="path552" />
        <path
           style="fill:#767676;fill-opacity:1"
           d="m 420,536.62244 c 0,-0.20765 0.7875,-0.99515 1.75,-1.75 1.58606,-1.24387 1.62143,-1.2085 0.37756,0.37756 C 420.82119,536.91575 420,537.44548 420,536.62244 Z M 550.07895,192.41667 c 0.048,-1.16495 0.28494,-1.4019 0.60416,-0.60417 0.28887,0.72187 0.25335,1.58437 -0.0789,1.91667 -0.33229,0.33229 -0.56864,-0.25834 -0.52522,-1.3125 z"
           id="path550" />
        <path
           style="fill:#606060;fill-opacity:1"
           d="m 400.8125,531.31689 c 0.72187,-0.28887 1.58438,-0.25335 1.91667,0.0789 0.33229,0.33229 -0.25834,0.56864 -1.3125,0.52522 -1.16495,-0.048 -1.4019,-0.28494 -0.60417,-0.60416 z m 16,0 c 0.72187,-0.28887 1.58438,-0.25335 1.91667,0.0789 0.33229,0.33229 -0.25834,0.56864 -1.3125,0.52522 -1.16495,-0.048 -1.4019,-0.28494 -0.60417,-0.60416 z M 460,487.68709 c 0,-0.1721 1.4625,-1.6346 3.25,-3.25 l 3.25,-2.93709 -2.93709,3.25 C 460.82513,487.77946 460,488.45965 460,487.68709 Z M 485.32814,405.5 c 0.004,-3.85 0.18518,-5.30246 0.40166,-3.2277 0.21647,2.07477 0.21284,5.22477 -0.008,7 -0.22091,1.77524 -0.39803,0.0777 -0.39359,-3.7723 z m -0.0421,-33 c 0.008,-2.75 0.20172,-3.75631 0.43157,-2.23625 0.22986,1.52006 0.22371,3.77006 -0.0136,5 -0.23736,1.22994 -0.42542,-0.0138 -0.41792,-2.76375 z m -0.20706,-7.08333 c 0.048,-1.16495 0.28494,-1.4019 0.60416,-0.60417 0.28887,0.72187 0.25335,1.58438 -0.0789,1.91667 -0.33229,0.33229 -0.56864,-0.25834 -0.52522,-1.3125 z M 400.41858,299 c 0,-10.725 0.14711,-15.1125 0.32692,-9.75 0.17981,5.3625 0.17981,14.1375 0,19.5 -0.17981,5.3625 -0.32692,0.975 -0.32692,-9.75 z m 18,0 c 0,-10.725 0.14711,-15.1125 0.32692,-9.75 0.17981,5.3625 0.17981,14.1375 0,19.5 -0.17981,5.3625 -0.32692,0.975 -0.32692,-9.75 z M 379.25,235.26496 c 2.6125,-0.206 6.8875,-0.206 9.5,0 2.6125,0.206 0.475,0.37454 -4.75,0.37454 -5.225,0 -7.3625,-0.16854 -4.75,-0.37454 z m 51,0 c 2.6125,-0.206 6.8875,-0.206 9.5,0 2.6125,0.206 0.475,0.37454 -4.75,0.37454 -5.225,0 -7.3625,-0.16854 -4.75,-0.37454 z M 243.07895,218.41667 c 0.048,-1.16495 0.28494,-1.4019 0.60416,-0.60417 0.28887,0.72187 0.25335,1.58437 -0.0789,1.91667 -0.3323,0.33229 -0.56864,-0.25834 -0.52522,-1.3125 z m 24,-11 c 0.048,-1.16495 0.28494,-1.4019 0.60416,-0.60417 0.28887,0.72187 0.25335,1.58437 -0.0789,1.91667 -0.33229,0.33229 -0.56864,-0.25834 -0.52522,-1.3125 z m 308,-13 c 0.048,-1.16495 0.28494,-1.4019 0.60416,-0.60417 0.28887,0.72187 0.25335,1.58437 -0.0789,1.91667 -0.33229,0.33229 -0.56864,-0.25834 -0.52522,-1.3125 z M 397.8125,39.316886 c 0.72187,-0.288871 1.58438,-0.253344 1.91667,0.07895 0.33229,0.332292 -0.25834,0.568641 -1.3125,0.52522 -1.16495,-0.04798 -1.4019,-0.284941 -0.60417,-0.604167 z m 20.9375,0.02083 c 0.6875,-0.277412 1.8125,-0.277412 2.5,0 0.6875,0.277413 0.125,0.504386 -1.25,0.504386 -1.375,0 -1.9375,-0.226973 -1.25,-0.504386 z"
           id="path548" />
        <path
           style="fill:#494949;fill-opacity:1"
           d="m 404.26903,531.30701 c 0.97297,-0.25354 2.32297,-0.23687 3,0.0371 0.67703,0.27393 -0.11903,0.48137 -1.76903,0.46099 -1.65,-0.0204 -2.20394,-0.2445 -1.23097,-0.49804 z m 6.98097,0.004 c 0.9625,-0.25152 2.5375,-0.25152 3.5,0 0.9625,0.25153 0.175,0.45733 -1.75,0.45733 -1.925,0 -2.7125,-0.2058 -1.75,-0.45733 z M 457,490.62244 c 0,-0.20765 0.7875,-0.99515 1.75,-1.75 1.58606,-1.24387 1.62143,-1.2085 0.37756,0.37756 C 457.82119,490.91575 457,491.44548 457,490.62244 Z m 28.07895,-55.20577 c 0.048,-1.16495 0.28494,-1.4019 0.60416,-0.60417 0.28887,0.72187 0.25335,1.58438 -0.0789,1.91667 -0.33229,0.33229 -0.56864,-0.25834 -0.52522,-1.3125 z M 345.75,318.25145 c 10.0375,-0.16311 26.4625,-0.16311 36.5,0 10.0375,0.16311 1.825,0.29656 -18.25,0.29656 -20.075,0 -28.2875,-0.13345 -18.25,-0.29656 z m 94.06582,-3.7e-4 c 10.6237,-0.1621 27.7237,-0.16186 38,5.4e-4 10.2763,0.16239 1.58418,0.29502 -19.31582,0.29473 -20.9,-3e-4 -29.30788,-0.13317 -18.68418,-0.29527 z M 309.40499,306.75 307.5,304.5 l 2.25,1.90499 c 2.11444,1.79022 2.70524,2.59501 1.90499,2.59501 -0.18976,0 -1.20226,-1.0125 -2.25,-2.25 z M 267.19495,211.5 c 0.0204,-1.65 0.2445,-2.20394 0.49804,-1.23097 0.25354,0.97297 0.23687,2.32297 -0.0371,3 -0.27393,0.67703 -0.48137,-0.11903 -0.46099,-1.76903 z m 284.13319,-6 c 0.004,-3.85 0.18518,-5.30246 0.40166,-3.2277 0.21647,2.07477 0.21284,5.22477 -0.008,7 -0.22091,1.77524 -0.39803,0.0777 -0.39359,-3.7723 z m -284.13319,-6 c 0.0204,-1.65 0.2445,-2.20394 0.49804,-1.23097 0.25354,0.97297 0.23687,2.32297 -0.0371,3 -0.27393,0.67703 -0.48137,-0.11903 -0.46099,-1.76903 z M 406.75,63.276604 c 1.7875,-0.221826 4.7125,-0.221826 6.5,0 1.7875,0.221827 0.325,0.403322 -3.25,0.403322 -3.575,0 -5.0375,-0.181495 -3.25,-0.403322 z"
           id="path546" />
        <path
           style="fill:#333333;fill-opacity:1"
           d="m 402.97225,554.63918 c -6.94685,-1.4938 -13.91427,-5.53304 -17.91893,-10.38819 C 381.87475,540.39738 378,531.44927 378,527.96249 378,526.88312 377.4137,526 376.6971,526 374.53221,526 359.38411,518.33537 353.05628,514.03822 335.23794,501.93801 320.94979,482.98411 314.08948,462.3469 309.44995,448.39029 309,441.8557 309,388.43325 v -50.30478 l -7.25,-5.92552 C 284.76887,318.32403 268.01141,296.30197 258.42589,275.26793 241.10953,237.26969 238.52531,194.74924 251.11647,155 262.365,119.48937 285.98792,88.175289 317.16868,67.442486 366.36792,34.728779 427.68357,30.289132 480.90463,55.586952 c 69.62758,33.096414 107.32675,109.762088 91.00904,185.077528 -7.52602,34.73681 -27.64168,68.72648 -53.67537,90.69589 l -8.1147,6.84786 -0.36073,54.14588 c -0.34747,52.15452 -0.44187,54.44011 -2.56682,62.14589 -5.50846,19.97553 -13.10068,33.37351 -26.68439,47.08992 -4.40641,4.44945 -10.8212,9.97671 -14.25507,12.28278 C 459.84069,518.18141 444.5001,526 442.46203,526 c -0.62908,0 -1.67802,2.38728 -2.33099,5.30506 -3.64297,16.27852 -20.56206,26.90298 -37.15879,23.33412 z m 13.63824,-15.25864 c 1.87702,-0.8907 4.53252,-2.95022 5.90113,-4.57672 2.48965,-2.95878 3.36057,-5.46089 1.50069,-4.31143 -0.54323,0.33574 -7.52387,0.60634 -15.51254,0.60134 -13.39036,-0.008 -14.45293,0.12429 -13.60413,1.69859 3.85633,7.15247 14.02459,10.23749 21.71485,6.58822 z m 9.6921,-34.00189 c 12.41246,-2.79615 26.79838,-10.37792 35.539,-18.73004 4.72843,-4.51827 13.68897,-16.45139 12.92611,-17.21425 -0.26046,-0.26046 -24.05225,3.85014 -52.87063,9.13465 -28.81839,5.28452 -54.08457,9.85259 -56.14707,10.15127 -2.0625,0.29868 -3.75,0.91219 -3.75,1.36335 0,1.16031 7.42557,6.11045 14.5,9.6662 5.16875,2.59792 12.70748,5.08662 20,6.60245 5.2989,1.10143 23.18502,0.5171 29.80259,-0.97363 z m -22.65112,-43.45041 c 26.86669,-4.96595 55.75013,-10.28055 64.18543,-11.81021 8.46299,-1.53468 15.68672,-3.34723 16.11742,-4.04411 0.79017,-1.27853 2.30394,-13.14899 1.74774,-13.70519 -0.47804,-0.47804 -145.74204,26.33792 -146.43653,27.03241 -0.64536,0.64535 1.74671,6.31984 4.41132,10.46457 1.91651,2.98109 -1.65134,3.45329 59.97462,-7.93747 z M 369,433.45182 c 61.0232,-11.10264 102.97621,-18.81938 111.75,-20.55504 L 486,411.8582 v -6.76243 c 0,-3.71934 -0.2136,-6.97604 -0.47468,-7.23711 -0.47968,-0.47968 -5.26062,0.36745 -99.21564,17.58005 C 357.605,420.69742 333.8675,425 333.55968,425 c -0.78615,0 -0.70228,13.52407 0.0888,14.31512 0.35665,0.35666 1.59415,0.43189 2.75,0.16719 1.15585,-0.26471 15.82654,-2.97842 32.60154,-6.03049 z m 4.08279,-35.48906 C 394.21226,394.09228 422.075,388.94681 435,386.52837 c 12.925,-2.41844 28.9,-5.35028 35.5,-6.51521 17.0032,-3.00112 15.5,-2.02351 15.5,-10.08055 C 486,364.14877 485.7258,363 484.34523,363 c -1.67394,0 -23.3811,3.90927 -97.84523,17.62108 -22.55,4.15236 -43.8125,8.02782 -47.25,8.61215 l -6.25,1.06242 v 7.35218 c 0,4.04369 0.37476,7.35217 0.83279,7.35217 0.45804,0 18.12054,-3.16676 39.25,-7.03724 z m 20.12458,-38.53709 C 424.71832,353.60979 457.25,347.57775 465.5,346.02115 l 15,-2.8302 -73.75,-0.0955 L 333,343 v 13.5 c 0,11.15784 0.25284,13.5 1.45737,13.5 0.80156,0 27.23906,-4.75845 58.75,-10.57433 z m 7.56503,-59.76686 0.2724,-18.84118 -8.16961,-14.15882 C 388.38191,258.87147 382.52998,248.7875 379.87091,244.25 L 375.03624,236 h 8.8597 8.85971 l 7.87217,13.6623 c 4.3297,7.51427 8.27569,13.70177 8.76887,13.75 0.49319,0.0482 4.47717,-6.0998 8.85331,-13.6623 L 426.20661,236 h 8.50368 c 7.62499,0 8.43562,0.17738 7.84494,1.71666 -0.36231,0.94416 -6.04559,11.01105 -12.62953,22.37085 l -11.97078,20.65419 0.27254,18.87915 L 418.5,318.5 l 38.72428,0.28097 38.72428,0.28097 11.44295,-11.08524 c 18.23906,-17.6689 29.81447,-35.94462 37.03776,-58.4767 8.26564,-25.78354 9.35956,-50.26468 3.39601,-76 C 535.67816,121.07983 494.8528,79.956664 442.56037,67.467217 398.25919,56.88639 351.342,68.096066 317.5,97.347231 309.71858,104.07306 309.66467,104.12611 302.15864,112.44284 277.5684,139.68899 264.05976,181.81505 267.98878,219 c 4.02989,38.13966 21.80525,71.76423 50.85441,96.19822 l 4.3432,3.65317 38.6568,-0.17569 L 400.5,318.5 Z"
           id="path544" />
      </g>
      <path
         style="fill:#a0a0a0;stroke:none;stroke-width:0.76779"
         d="m 330.8224,286.42584 c -0.79221,-1.12248 -3.14518,-3.80702 -5.22883,-5.96565 -4.29424,-4.44878 -8.89607,-10.36688 -12.33514,-15.86338 -0.42229,-0.67491 -1.36772,-2.04908 -2.10097,-3.05371 -0.73324,-1.00462 -1.16893,-2.09233 -0.96819,-2.41713 0.20074,-0.32481 -0.14947,-1.01751 -0.77825,-1.53935 -0.62878,-0.52184 -1.14323,-1.24681 -1.14323,-1.61104 0,-0.36424 -1.10115,-2.45185 -2.447,-4.63914 -4.27043,-6.94032 -10.19296,-23.21607 -12.94979,-35.58738 -1.48824,-6.67848 -1.88051,-13.34911 -1.80602,-30.71161 0.0657,-15.31001 0.26889,-17.81819 2.17049,-26.79108 2.23377,-10.5402 4.57772,-18.82506 6.21394,-21.9636 0.55037,-1.05571 1.76257,-3.80269 2.69377,-6.10441 0.9312,-2.30172 2.51743,-5.49078 3.52495,-7.0868 1.00753,-1.59603 1.83187,-3.2909 1.83187,-3.76638 0,-0.47547 1.03652,-2.17321 2.30337,-3.77275 1.26685,-1.59953 2.30337,-3.28068 2.30337,-3.73588 0,-1.18704 9.53329,-13.686751 16.55752,-21.70963 2.21079,-2.525096 13.39318,-12.492484 14.44263,-12.873387 0.47473,-0.172305 1.29298,-0.918796 1.81833,-1.658869 2.42131,-3.410941 25.84013,-16.838709 29.3677,-16.838709 0.86533,0 2.91816,-0.889963 4.56184,-1.977697 1.64367,-1.087733 3.45017,-2.055347 4.01443,-2.150253 0.56427,-0.09491 3.96274,-1.077144 7.55216,-2.182751 14.27767,-4.397786 24.65724,-5.915402 40.71581,-5.95314 8.56365,-0.02012 26.98913,1.803577 28.66088,2.836773 0.79736,0.492793 6.42335,1.695111 9.12986,1.951123 0.739,0.0699 1.34364,0.398564 1.34364,0.730359 0,0.331795 0.67061,0.603264 1.49026,0.603264 0.81965,0 1.70729,0.351141 1.97253,0.780314 0.26524,0.429173 0.80699,0.579624 1.20387,0.334336 1.31538,-0.812951 3.85635,0.524343 4.57179,2.406105 0.38765,1.019577 1.09583,1.853777 1.57375,1.853777 0.47791,0 0.67007,-0.518259 0.42699,-1.151686 -0.24306,-0.633427 -0.33158,-1.151685 -0.19671,-1.151685 0.68508,0 5.51716,1.848256 5.8489,2.237188 0.21114,0.247543 2.54331,1.463746 5.18259,2.702674 2.63927,1.238927 4.79868,2.52373 4.79868,2.855116 0,0.331386 0.49155,0.413898 1.09232,0.183358 0.60079,-0.230539 1.81005,0.298563 2.68727,1.175782 0.87722,0.877221 1.94045,1.594946 2.36274,1.594946 1.1326,0 3.59243,2.659052 3.29241,3.559086 -0.14224,0.426716 0.44081,1.408812 1.29565,2.182435 0.85484,0.773623 1.55426,1.871296 1.55426,2.439275 0,0.567977 0.29081,1.032687 0.64626,1.032687 0.35544,0 1.06032,1.382022 1.5664,3.071161 0.50608,1.689138 1.19419,3.071161 1.52914,3.071161 0.33496,0 0.6099,0.431882 0.61098,0.959738 7.7e-4,0.527856 1.58562,4.933052 3.52118,9.789326 3.99036,10.011603 7.1705,21.135463 8.26005,28.892913 0.95166,6.77563 0.96304,40.55061 0.0159,47.26919 -0.39864,2.82782 -1.24166,7.12077 -1.87337,9.53987 -0.63172,2.41911 -0.97243,4.68339 -0.75715,5.03173 0.21529,0.34833 0.0909,0.63334 -0.27637,0.63334 -0.61273,0 -3.63035,8.59043 -3.64104,10.36517 -0.002,0.42228 -0.45639,1.24422 -1.00853,1.82652 -0.55214,0.58231 -0.82211,1.53245 -0.59994,2.11143 0.22217,0.57897 0.11624,1.05268 -0.23543,1.05268 -0.68324,0 -3.59253,6.90424 -3.31617,7.86985 0.0906,0.31672 -0.2011,0.57585 -0.64831,0.57585 -0.4472,0 -0.6178,0.316 -0.37911,0.70221 0.2387,0.38621 0.15909,0.8181 -0.1769,0.95974 -0.89261,0.37628 -5.78142,8.53553 -5.78979,9.66295 -0.004,0.52786 -0.24614,0.95974 -0.53826,0.95974 -0.52653,0 -6.26131,8.2584 -5.99561,8.63402 0.0761,0.10756 -0.87161,1.25645 -2.10598,2.55308 -1.23438,1.29662 -5.0858,5.49404 -8.55873,9.3276 -7.22742,7.97791 -17.94421,17.21592 -26.3039,22.67427 -3.16012,2.06336 -6.00525,4.15974 -6.32251,4.65864 -0.31727,0.49889 -0.58215,0.62456 -0.58861,0.27926 -0.0154,-0.822 -9.22524,4.24274 -9.22524,5.07319 0,0.34974 -0.34551,0.42235 -0.76779,0.16136 -0.42229,-0.26098 -0.76779,-0.16621 -0.76779,0.21062 0,0.37683 -0.43189,0.70157 -0.95974,0.72165 -0.52786,0.0201 -1.60923,0.3046 -2.40305,0.63225 -1.36444,0.56319 -1.42289,0.22208 -1.06975,-6.24282 0.26825,-4.9109 0.85061,-7.81246 2.06599,-10.29361 2.50645,-5.1168 4.5174,-8.63651 5.22551,-9.146 0.34504,-0.24826 1.06287,-1.31514 1.59516,-2.37085 0.53231,-1.05571 1.98305,-3.647 3.22389,-5.75843 1.24084,-2.11142 2.49976,-4.35721 2.79761,-4.99063 0.29784,-0.63343 0.99947,-1.42799 1.55917,-1.76568 0.5597,-0.3377 1.03168,-1.37422 1.04884,-2.30337 0.0172,-0.92916 1.05368,-2.8856 2.30337,-4.34765 1.2497,-1.46204 2.27217,-3.2224 2.27217,-3.9119 0,-0.6895 0.69101,-1.87899 1.53558,-2.64331 2.4347,-2.20337 1.96602,-4.07252 -1.16859,-4.66058 -4.26599,-0.8003 -17.86391,-0.0316 -18.96776,1.07221 -0.77486,0.77486 -0.7736,1.08337 0.006,1.56544 0.73532,0.45445 0.59379,0.9422 -0.58226,2.0065 -0.85454,0.77336 -1.55372,1.84202 -1.55372,2.37481 0,0.53279 -0.28675,1.08387 -0.63721,1.22464 -0.35046,0.14076 -1.60476,2.31638 -2.78734,4.83471 -1.71121,3.64409 -6.31884,11.14691 -7.72669,12.58175 -0.53118,0.54136 -3.15014,-2.65317 -4.61723,-5.63196 -0.82875,-1.6827 -1.93869,-3.52129 -2.46655,-4.08574 -0.52786,-0.56447 -0.95974,-1.3801 -0.95974,-1.81252 0,-1.34045 -8.42024,-13.51805 -9.68185,-14.00218 -1.56355,-0.59999 -15.94448,-0.59316 -17.5119,0.008 -1.6776,0.64375 -1.52047,2.858 0.32109,4.52459 0.84457,0.76433 1.53558,1.71337 1.53558,2.10899 0,0.39561 0.71535,1.63771 1.58967,2.76022 2.39788,3.07856 6.85603,10.92083 6.85603,12.06036 0,0.5521 0.54187,1.5457 1.20417,2.20799 0.77462,0.77462 1.0169,1.79422 0.67919,2.85825 -0.41757,1.31566 -0.27123,1.55671 0.7153,1.17814 0.79489,-0.30502 1.24029,-0.071 1.24029,0.65164 0,0.62018 0.3455,1.1276 0.76779,1.1276 0.42228,0 0.76779,0.45311 0.76779,1.00691 0,0.5538 0.69101,1.74862 1.53558,2.65516 0.84457,0.90654 1.53558,1.9659 1.53558,2.35413 0,0.38823 0.51826,1.136 1.15168,1.6617 0.63343,0.5257 1.15169,1.60452 1.15169,2.39738 0,0.79286 0.34551,1.44157 0.76779,1.44157 0.42229,0 0.77878,0.60463 0.79221,1.34363 0.0134,0.739 0.53169,2.01431 1.15168,2.83402 0.84843,1.12172 1.12727,3.81235 1.12727,10.87739 v 9.387 l -3.87674,0.83142 c -2.13221,0.45727 -4.37799,0.83141 -4.99064,0.83141 -0.61264,0 -1.11389,0.25913 -1.11389,0.57584 0,0.31672 -1.4684,0.6033 -3.26311,0.63685 -1.79471,0.0336 -10.17322,0.34764 -18.61891,0.69795 -8.4457,0.35032 -20.79054,0.55728 -27.43297,0.45992 -6.64244,-0.0974 -12.47008,0.0658 -12.9503,0.36261 -0.48022,0.2968 -4.19639,0.51914 -8.25814,0.49411 -4.30347,-0.0266 -7.58958,0.28547 -7.87525,0.7477 -0.2815,0.45548 -1.10353,-0.0758 -1.93061,-1.24764 z m 14.76,-4.57003 c 1.43576,-1.43577 2.60904,-3.07692 2.60727,-3.64701 -0.007,-2.14479 -3.74029,-8.08574 -7.4642,-11.87699 -4.92327,-5.01231 -13.95376,-18.63046 -18.26836,-27.54904 -3.03983,-6.28354 -6.64666,-16.42605 -8.77773,-24.68323 -2.82397,-10.94198 -4.33591,-40.96284 -2.063,-40.96284 0.68333,0 0.92569,-0.6252 0.70002,-1.80576 -0.4672,-2.44398 1.73628,-13.87349 4.14786,-21.5151 2.25639,-7.14982 8.82086,-20.63844 13.87245,-28.50498 11.71892,-18.24917 33.19261,-36.154867 54.16351,-45.16387 13.84731,-5.948742 27.82165,-8.750554 46.99791,-9.422937 13.19647,-0.462711 14.42113,-0.636899 16.0699,-2.285666 1.68729,-1.687283 1.53701,-6.660014 -0.26836,-8.880482 -1.47093,-1.809121 -1.50579,-1.812442 -18.23502,-1.736645 -19.09477,0.08651 -23.5708,0.684815 -37.49162,5.011434 -27.99973,8.702371 -50.96452,25.035344 -69.64712,49.534286 -6.29873,8.25967 -5.73926,7.39149 -9.08335,14.09557 -1.36918,2.74485 -2.99246,5.57349 -3.6073,6.28589 -0.61484,0.71238 -0.89091,1.66252 -0.61348,2.11142 0.27744,0.44889 0.18914,0.81617 -0.19622,0.81617 -0.38535,0 -1.94656,3.88694 -3.46935,8.63764 -10.62082,33.13418 -10.92941,61.53146 -0.97579,89.79306 5.85229,16.61656 6.44444,18.12127 8.04121,20.43349 0.78348,1.13453 2.34188,3.69522 3.4631,5.69042 2.93899,5.22991 10.80421,15.48235 16.57131,21.60098 7.08348,7.51524 9.35847,8.19207 13.52636,4.02419 z m 32.29081,-100.68258 c 5.28144,-2.58397 10.57332,-7.67227 12.58287,-12.09881 2.25408,-4.96519 2.12447,-17.44857 -0.22668,-21.8322 -3.0109,-5.61372 -7.22022,-9.94828 -11.88554,-12.23917 -3.92031,-1.92505 -5.2692,-2.17533 -11.72401,-2.17533 -6.13447,0 -7.81825,0.27991 -10.59171,1.76078 -4.31725,2.30516 -8.81323,6.41696 -11.82963,10.81881 -2.33529,3.40789 -2.43054,3.85362 -2.4802,11.6058 -0.0473,7.38657 0.12966,8.41549 2.11301,12.28464 3.63764,7.09638 8.15953,10.86625 16.26231,13.5578 4.81819,1.60048 12.56871,0.86712 17.77958,-1.68232 z m 28.43402,-48.23425 c 2.52544,-2.31439 2.83944,-3.03563 3.09197,-7.10206 0.33008,-5.3153 -0.64767,-7.59294 -4.32262,-10.06949 -2.94321,-1.98343 -8.438,-2.34861 -11.56102,-0.76833 -3.04529,1.54093 -5.39758,5.69616 -5.39758,9.53459 0,6.88981 4.21662,10.97337 11.33618,10.97842 3.51799,0.002 4.40668,-0.33118 6.85307,-2.57313 z m 92.52025,-50.912302 c 4.34266,-3.911198 3.30348,-8.755517 -2.65053,-12.355838 -8.93292,-5.401633 -27.9805,-12.28381 -31.01781,-11.207204 -2.98392,1.057676 -4.86888,3.541067 -4.86888,6.414641 0,1.914939 0.54753,3.317496 1.72753,4.42525 1.98693,1.865284 8.00576,4.746496 9.96735,4.771371 1.93388,0.02452 13.57131,5.626419 16.71336,8.045286 2.16371,1.665704 3.25983,1.995348 5.62608,1.691975 1.61633,-0.20723 3.64265,-1.010697 4.5029,-1.785481 z"
         id="path750" />
      <path
         style="fill:#ffca00;fill-opacity:1;stroke:none;stroke-width:0.76779"
         d="m 330.2102,285.61798 c -0.55802,-0.84457 -2.46605,-3.09036 -4.24006,-4.99064 -6.66471,-7.1391 -15.39898,-19.02598 -15.39898,-20.9572 0,-0.55088 -0.36528,-1.36688 -0.81174,-1.81334 -2.76388,-2.76388 -8.66486,-15.46972 -12.29019,-26.46293 -5.52851,-16.76427 -6.19876,-21.71007 -6.17817,-45.58863 0.0148,-17.21788 0.63381,-22.81205 3.99119,-36.07217 2.35339,-9.29479 4.08383,-13.77139 9.33234,-24.14255 1.58698,-3.13588 2.88541,-6.1055 2.88541,-6.59916 0,-0.49366 0.66655,-1.50078 1.48122,-2.23805 0.81467,-0.73726 2.07633,-2.60472 2.80368,-4.14989 3.67017,-7.79686 22.62814,-29.325679 30.28683,-34.393958 1.6775,-1.110114 3.04999,-2.300244 3.04999,-2.644734 0,-1.829366 26.0702,-16.814099 29.27128,-16.824659 0.6858,-0.0022 2.93159,-0.946244 4.99063,-2.097736 2.05904,-1.151493 4.08922,-2.161996 4.5115,-2.245564 0.42229,-0.08357 3.58266,-1.012853 7.02306,-2.065077 14.87758,-4.550228 21.61014,-5.459502 39.81215,-5.376878 17.52724,0.07956 22.57941,0.66024 35.70224,4.103504 3.58942,0.941817 6.90351,2.01506 7.36466,2.384984 0.46113,0.369924 1.03973,0.471287 1.28577,0.225251 0.88851,-0.888508 3.4201,0.531698 4.26903,2.394895 0.94023,2.063586 2.43635,2.570141 2.43635,0.824897 0,-0.879314 0.49899,-0.926677 2.68727,-0.255074 1.47799,0.45361 2.68726,1.112281 2.68726,1.463714 0,0.351434 0.43188,0.642212 0.95974,0.646175 0.52785,0.004 2.86002,1.109213 5.18258,2.456111 2.32257,1.346899 4.91386,2.55938 5.75843,2.694403 0.84457,0.135022 1.88905,0.670923 2.32106,1.190892 0.43201,0.519968 1.46853,1.324815 2.30337,1.78855 0.83484,0.463735 1.89407,1.584248 2.35385,2.490031 0.45977,0.905783 1.36673,2.253892 2.01547,2.995798 0.64873,0.741906 2.15835,3.50833 3.35471,6.147609 1.19636,2.639279 2.46919,4.798689 2.82853,4.798689 0.35934,0 0.48009,0.280326 0.26833,0.622947 -0.21175,0.34262 0.83477,3.695197 2.32562,7.45017 1.49083,3.754973 3.91133,11.16215 5.37887,16.46039 1.46755,5.29824 2.95683,10.17689 3.30949,10.84145 0.76176,1.43543 0.7925,52.15313 0.0316,52.15313 -0.53383,0 -2.72859,10.34469 -2.56562,12.0927 0.0492,0.52786 -0.16294,0.95974 -0.47146,0.95974 -0.30852,0 -0.98994,1.4684 -1.51427,3.26311 -0.52432,1.79471 -2.11069,6.1999 -3.52527,9.78932 -1.41458,3.58942 -2.68143,7.03625 -2.81523,7.65962 -0.13379,0.62338 -0.67832,1.60137 -1.21005,2.17333 -0.53174,0.57195 -0.77048,1.35756 -0.53053,1.74581 0.23995,0.38824 0.05,0.70589 -0.42215,0.70589 -0.47213,0 -0.64488,0.3455 -0.3839,0.76779 0.26099,0.42228 0.17225,0.76779 -0.19719,0.76779 -0.36945,0 -1.4884,1.4684 -2.48655,3.26311 -11.56968,20.8027 -35.30178,44.1986 -55.86026,55.06895 -2.63928,1.39552 -4.79869,2.85507 -4.79869,3.24344 0,0.38837 -0.34551,0.4926 -0.76779,0.23161 -0.42229,-0.26098 -0.76779,-0.051 -0.76779,0.46655 0,0.51759 -0.21656,0.72451 -0.48124,0.45983 -0.26469,-0.26468 -1.48016,0.0353 -2.70106,0.66667 -1.9988,1.03362 -2.2671,1.02471 -2.6947,-0.0896 -0.26118,-0.68063 -0.25782,-3.71589 0.008,-6.74502 0.38164,-4.35767 1.1545,-6.82997 3.70186,-11.84178 1.77073,-3.48385 3.50111,-6.33427 3.84528,-6.33427 0.34417,0 0.62576,-0.32255 0.62576,-0.71677 0,-0.78778 3.59992,-7.0217 7.02563,-12.16617 1.20332,-1.80705 2.18786,-3.7462 2.18786,-4.30921 0,-0.56302 1.03651,-2.32795 2.30337,-3.92208 1.26685,-1.59413 2.30337,-3.48837 2.30337,-4.20943 0,-0.72105 0.69101,-1.93636 1.53558,-2.70068 2.03699,-1.84346 1.94799,-3.93323 -0.19195,-4.50671 -2.31816,-0.62125 -15.82582,-0.46805 -18.23502,0.20682 -1.20739,0.33821 -1.91947,1.0931 -1.91947,2.03489 0,0.82346 -0.71223,2.53372 -1.58272,3.80058 -0.8705,1.26685 -2.91046,4.89466 -4.53325,8.06179 -1.6228,3.16714 -3.96661,7.05891 -5.20846,8.64837 l -2.25792,2.88994 -1.54312,-1.96176 c -1.62462,-2.06536 -4.68391,-7.2699 -5.93715,-10.1004 -1.07586,-2.42987 -7.72913,-11.97758 -9.13176,-13.10442 -1.24405,-0.99945 -15.76433,-1.39521 -18.11361,-0.4937 -1.6776,0.64375 -1.52046,2.85801 0.3211,4.5246 0.84456,0.76432 1.53558,1.70469 1.53558,2.0897 0,0.38501 0.82463,1.79986 1.83253,3.14411 3.05793,4.07843 8.87234,15.87 8.41419,17.06391 -0.23636,0.61593 -0.0226,1.11988 0.47504,1.11988 0.98477,0 3.09846,1.86415 3.09846,2.73267 0,0.29645 1.20927,2.22221 2.68727,4.27946 1.47799,2.05727 2.68726,4.25795 2.68726,4.89039 0,0.63245 0.34551,1.14991 0.76779,1.14991 0.42229,0 0.76779,0.62191 0.76779,1.38203 0,0.76011 0.41932,1.80133 0.93181,2.31382 0.59806,0.59807 1.04216,4.47354 1.2399,10.82009 l 0.30809,9.88827 -4.07691,0.87434 c -11.71084,2.51153 -20.36286,3.03909 -50.80457,3.09789 -9.60698,0.0186 -17.46772,0.29243 -17.46831,0.60861 -5.9e-4,0.31619 -3.99116,0.57488 -8.86794,0.57488 -8.0168,0 -8.96413,-0.14722 -9.88145,-1.53558 z m 15.3722,-3.76217 c 1.43576,-1.43577 2.61048,-3.14355 2.61048,-3.79507 0,-1.91307 -3.02412,-6.66789 -7.64577,-12.02141 -13.27738,-15.37997 -22.91236,-34.54401 -27.2142,-54.12922 -2.26184,-10.29762 -3.7385,-37.31133 -2.09508,-38.32702 0.36668,-0.22661 0.90846,-2.54908 1.20397,-5.16103 1.12826,-9.97256 4.75168,-21.74779 9.93632,-32.29062 7.51407,-15.27967 11.70064,-21.18897 23.05944,-32.54811 10.64132,-10.641629 19.89437,-17.630627 31.16356,-23.538415 16.86985,-8.843883 31.19933,-12.247036 55.9243,-13.281629 12.17101,-0.509285 13.42004,-0.702329 15.04261,-2.324899 1.68729,-1.687283 1.53701,-6.660014 -0.26836,-8.880482 -1.47118,-1.80943 -1.50293,-1.812445 -18.23502,-1.731467 -19.20222,0.09293 -24.37963,0.788646 -37.83746,5.084397 -21.92006,6.996904 -39.93181,17.958608 -55.70907,33.90378 -8.63433,8.726215 -18.28778,21.004835 -21.48984,27.333815 -1.17208,2.31666 -2.96012,5.52543 -3.97343,7.13062 -1.01331,1.60519 -1.65503,3.22166 -1.42604,3.59217 0.22898,0.37051 0.0886,0.78954 -0.31196,0.93118 -0.40056,0.14164 -2.12149,4.65189 -3.82429,10.02278 -5.82721,18.37993 -8.18944,34.60833 -7.51554,51.6313 0.65735,16.60502 2.97366,26.90448 10.54625,46.89388 4.55272,12.01783 13.65847,25.95841 24.37761,37.32126 7.25142,7.6869 9.4932,8.3725 13.68152,4.18419 z m 32.28407,-100.67929 c 5.35938,-2.6221 11.25645,-8.51849 12.94723,-12.94574 1.03078,-2.69905 1.25588,-5.20146 1.02616,-11.40745 -0.27589,-7.45268 -0.45366,-8.19828 -2.8423,-11.92065 -3.11953,-4.86136 -6.97214,-8.32968 -11.58963,-10.43359 -5.26585,-2.39931 -16.80379,-2.32353 -21.42152,0.1407 -4.53783,2.42158 -9.77671,7.38172 -12.26256,11.61009 -1.86062,3.16488 -2.05718,4.23283 -2.05718,11.17712 0,6.91126 0.21614,8.09956 2.16465,11.90075 3.55267,6.93061 7.49455,10.29713 15.83644,13.52492 4.26773,1.65135 13.08994,0.85335 18.19871,-1.64615 z m 28.44076,-48.23754 c 2.52544,-2.31439 2.83944,-3.03563 3.09197,-7.10206 0.33008,-5.3153 -0.64767,-7.59294 -4.32262,-10.06949 -2.94321,-1.98343 -8.438,-2.34861 -11.56102,-0.76833 -3.04529,1.54093 -5.39758,5.69616 -5.39758,9.53459 0,6.88981 4.21662,10.97337 11.33618,10.97842 3.51799,0.002 4.40668,-0.33118 6.85307,-2.57313 z m 93.02715,-51.474925 c 2.614,-2.614002 2.64582,-6.590396 0.0748,-9.347659 -3.35698,-3.600153 -23.16765,-12.240843 -31.61074,-13.787447 -2.50998,-0.459778 -3.13946,-0.240878 -5.18258,1.802246 -4.74567,4.745663 -2.3847,9.874042 5.89783,12.810996 8.86985,3.145216 15.46719,6.111326 19.03313,8.557142 3.18439,2.184113 4.34986,2.572329 6.83532,2.276837 1.83752,-0.218461 3.75279,-1.112663 4.95224,-2.312115 z"
         id="path789" />
    </g>
  </g>
</svg>
