<?xml version="1.0" encoding="UTF-8" standalone="no"?>
<!-- Created with Inkscape (http://www.inkscape.org/) -->

<svg
   version="1.1"
   id="svg9"
   width="40"
   height="40"
   viewBox="0 0 40 40"
   sodipodi:docname="light_icon.svg"
   inkscape:version="1.1.2 (b8e25be833, 2022-02-05)"
   xmlns:inkscape="http://www.inkscape.org/namespaces/inkscape"
   xmlns:sodipodi="http://sodipodi.sourceforge.net/DTD/sodipodi-0.dtd"
   xmlns="http://www.w3.org/2000/svg"
   xmlns:svg="http://www.w3.org/2000/svg">
  <defs
     id="defs13" />
  <sodipodi:namedview
     id="namedview11"
     pagecolor="#ffffff"
     bordercolor="#666666"
     borderopacity="1.0"
     inkscape:pageshadow="2"
     inkscape:pageopacity="0.0"
     inkscape:pagecheckerboard="0"
     showgrid="false"
     inkscape:zoom="5.4319328"
     inkscape:cx="76.676207"
     inkscape:cy="57.622215"
     inkscape:window-width="1920"
     inkscape:window-height="1017"
     inkscape:window-x="-1928"
     inkscape:window-y="-8"
     inkscape:window-maximized="1"
     inkscape:current-layer="g15"
     width="100px" />
  <g
     inkscape:groupmode="layer"
     inkscape:label="Image"
     id="g15">
    <g
       id="g799"
       transform="matrix(0.31746033,0,0,0.31746033,3.3117176,2.9096561)">
      <g
         id="g117"
         transform="matrix(0.18884541,0,0,0.18884541,-26.604661,-5.8221497)">
        <path
           style="fill:#b9b9b9;fill-opacity:1"
           d="m 480,502.62244 c 0,-0.20765 0.7875,-0.99515 1.75,-1.75 1.58606,-1.24387 1.62143,-1.2085 0.37756,0.37756 C 480.82119,502.91575 480,503.44548 480,502.62244 Z m -72,-5.01545 c 0,-0.21616 0.69837,-0.661 1.55194,-0.98855 0.88992,-0.34149 1.29132,-0.17385 0.94098,0.39301 C 409.90566,497.96166 408,498.4169 408,497.60699 Z m 6,-2.98455 c 0,-0.20765 0.7875,-0.99515 1.75,-1.75 1.58606,-1.24387 1.62143,-1.2085 0.37756,0.37756 C 414.82119,494.91575 414,495.44548 414,494.62244 Z m 35.24132,-1.12011 c 0.40773,-0.45007 0.27338,-1.38215 -0.29855,-2.07129 -0.72047,-0.86811 -0.7178,-1.45204 0.009,-1.90103 0.57671,-0.35642 1.08299,-0.50899 1.12507,-0.33903 0.65923,2.66252 0.54246,3.91718 -0.41558,4.46537 -0.63851,0.36537 -0.82733,0.29606 -0.41961,-0.15402 z M 419,490.62244 c 0,-0.20765 0.7875,-0.99515 1.75,-1.75 1.58606,-1.24387 1.62143,-1.2085 0.37756,0.37756 C 419.82119,490.91575 419,491.44548 419,490.62244 Z m 38.33333,-3.07845 c 0,-0.80081 0.38234,-1.21971 0.84965,-0.9309 0.4673,0.28881 0.59075,0.94401 0.27431,1.45601 -0.80862,1.30838 -1.12396,1.16106 -1.12396,-0.52511 z M 427,483 c 1.74243,-2.2 3.39306,-4 3.66806,-4 0.275,0 -0.92563,1.8 -2.66806,4 -1.74243,2.2 -3.39306,4 -3.66806,4 -0.275,0 0.92563,-1.8 2.66806,-4 z M 308.34281,428.5 c 0.004,-4.4 0.17944,-6.07561 0.39069,-3.72357 0.21124,2.35204 0.20827,5.95204 -0.007,8 -0.21487,2.04796 -0.38771,0.12357 -0.38408,-4.27643 z m 201.96706,1 c 0.006,-3.3 0.1923,-4.52944 0.41486,-2.73209 0.22256,1.79735 0.21797,4.49735 -0.0102,6 -0.22818,1.50265 -0.41027,0.0321 -0.40466,-3.26791 z m -201.94464,-39 c 0.003,-5.5 0.17053,-7.62242 0.37317,-4.71648 0.20265,2.90594 0.20052,7.40594 -0.005,10 -0.20525,2.59406 -0.37104,0.21648 -0.36844,-5.28352 z m 201.98418,1.5 c 0,-4.675 0.17226,-6.5875 0.3828,-4.25 0.21053,2.3375 0.21053,6.1625 0,8.5 -0.21054,2.3375 -0.3828,0.425 -0.3828,-4.25 z M 308.3605,351 c 0,-5.225 0.16854,-7.3625 0.37454,-4.75 0.206,2.6125 0.206,6.8875 0,9.5 -0.206,2.6125 -0.37454,0.475 -0.37454,-4.75 z m 201.99446,0.5 c -0.003,-4.95 0.16605,-7.10108 0.37577,-4.78017 0.20972,2.3209 0.21222,6.3709 0.006,9 C 510.5296,358.34892 510.358,356.45 510.35496,351.5 Z M 322,301.62244 c 0,-0.20765 0.7875,-0.99515 1.75,-1.75 1.58606,-1.24387 1.62143,-1.2085 0.37756,0.37756 C 322.82119,301.91575 322,302.44548 322,301.62244 Z M 309.43709,294.75 306.5,291.5 l 3.25,2.93709 c 1.7875,1.6154 3.25,3.0779 3.25,3.25 0,0.77256 -0.82513,0.0924 -3.56291,-2.93709 z M 325,296.05902 c 0,-2.41457 0.55611,-2.65816 1.34934,-0.59105 0.30982,0.80739 0.13297,1.73395 -0.39301,2.05902 C 325.43035,297.85207 325,297.19148 325,296.05902 Z M 303.09889,287.75 c -1.37729,-2.24201 -1.37459,-2.24323 0.75946,-0.34501 2.29128,2.03808 2.58792,2.59501 1.3822,2.59501 -0.4177,0 -1.38145,-1.0125 -2.14166,-2.25 z m 14.77355,-2.5 c -1.24387,-1.58606 -1.2085,-1.62143 0.37756,-0.37756 1.66575,1.30637 2.19548,2.12756 1.37244,2.12756 -0.20765,0 -0.99515,-0.7875 -1.75,-1.75 z m -4.46745,-5.5 -1.90499,-2.25 2.25,1.90499 c 1.2375,1.04774 2.25,2.06024 2.25,2.25 0,0.80025 -0.80479,0.20945 -2.59501,-1.90499 z m 84.1593,-1.45687 c -0.54268,-1.4252 -0.42782,-1.54006 0.5598,-0.5598 0.68342,0.67834 0.99067,1.48524 0.68278,1.79313 -0.30789,0.30789 -0.86705,-0.24711 -1.24258,-1.23333 z M 308.25513,272.75 c -1.41474,-1.78672 -3.40609,-5.75 -2.88909,-5.75 0.24002,0 1.36568,1.575 2.50146,3.5 2.06378,3.49785 2.25513,4.60852 0.38763,2.25 z m -16.79625,-2.81653 c -0.36253,-0.58659 -0.44468,-1.281 -0.18255,-1.54313 0.26212,-0.26213 0.74306,0.21781 1.06875,1.06653 0.67618,1.76211 0.0999,2.07206 -0.8862,0.4766 z M 289,265.5 c 0,-0.825 0.17686,-1.5 0.39301,-1.5 0.21616,0 0.65203,0.675 0.96862,1.5 0.31658,0.825 0.13972,1.5 -0.39301,1.5 C 289.43588,267 289,266.325 289,265.5 Z M 410,261 c 0.5887,-1.1 1.29537,-2 1.57037,-2 0.275,0 0.0183,0.9 -0.57037,2 -0.5887,1.1 -1.29537,2 -1.57037,2 -0.275,0 -0.0183,-0.9 0.57037,-2 z m -9.43571,-12.70687 c -0.54268,-1.4252 -0.42782,-1.54006 0.5598,-0.5598 0.68342,0.67834 0.99067,1.48524 0.68278,1.79313 -0.30789,0.30789 -0.86705,-0.24711 -1.24258,-1.23333 z m -105.99286,-2.86456 c -0.36782,-1.46551 -0.47591,-2.85742 -0.24019,-3.09314 0.23571,-0.23571 0.72951,0.77049 1.09733,2.236 0.36782,1.46551 0.47591,2.85742 0.24019,3.09314 -0.23571,0.23571 -0.72951,-0.77049 -1.09733,-2.236 z M 441.5,242 c 0.99549,-1.1 2.03498,-2 2.30998,-2 0.275,0 -0.31449,0.9 -1.30998,2 -0.99549,1.1 -2.03498,2 -2.30998,2 -0.275,0 0.31449,-0.9 1.30998,-2 z m -161.42105,-0.58333 c 0.048,-1.16495 0.28494,-1.4019 0.60416,-0.60417 0.28887,0.72187 0.25335,1.58437 -0.0789,1.91667 -0.33229,0.33229 -0.56864,-0.25834 -0.52522,-1.3125 z m 94.48534,-3.12354 c -0.54268,-1.4252 -0.42782,-1.54006 0.5598,-0.5598 0.68342,0.67834 0.99067,1.48524 0.68278,1.79313 -0.30789,0.30789 -0.86705,-0.24711 -1.24258,-1.23333 z m 69,-0.58626 c 0.37553,-0.98622 0.93469,-1.54122 1.24258,-1.23333 0.30789,0.30789 6.4e-4,1.11479 -0.68278,1.79313 -0.98762,0.98026 -1.10248,0.8654 -0.5598,-0.5598 z M 423,237.10699 c 0,-0.49116 0.73865,-1.17646 1.64144,-1.52289 1.37248,-0.52667 1.43434,-0.38034 0.37756,0.89301 -1.44013,1.73524 -2.019,1.91584 -2.019,0.62988 z m -145.26879,-4.02683 c -0.43497,-1.66335 -0.30483,-2.05378 0.43724,-1.31171 0.5811,0.5811 0.85979,1.64682 0.61931,2.36826 -0.24965,0.74895 -0.70294,0.29565 -1.05655,-1.05655 z m 11.65832,-9.50743 c -0.30123,-0.785 -0.38004,-2.4725 -0.17514,-3.75 0.27408,-1.70876 0.50623,-1.33149 0.87828,1.42727 0.52359,3.88245 0.24656,4.79759 -0.70314,2.32273 z M 276.15789,221 c 0,-1.375 0.22698,-1.9375 0.50439,-1.25 0.27741,0.6875 0.27741,1.8125 0,2.5 -0.27741,0.6875 -0.50439,0.125 -0.50439,-1.25 z m 12,-7 c 0,-1.375 0.22698,-1.9375 0.50439,-1.25 0.27741,0.6875 0.27741,1.8125 0,2.5 -0.27741,0.6875 -0.50439,0.125 -0.50439,-1.25 z m -20,-1 c 0,-1.375 0.22698,-1.9375 0.50439,-1.25 0.27741,0.6875 0.27741,1.8125 0,2.5 -0.27741,0.6875 -0.50439,0.125 -0.50439,-1.25 z m 7.03706,-2.5 c 0.0204,-1.65 0.2445,-2.20394 0.49804,-1.23097 0.25354,0.97297 0.23687,2.32297 -0.0371,3 -0.27393,0.67703 -0.48137,-0.11903 -0.46099,-1.76903 z M 242.27236,206 c 0,-2.475 0.19502,-3.4875 0.43337,-2.25 0.23836,1.2375 0.23836,3.2625 0,4.5 -0.23835,1.2375 -0.43337,0.225 -0.43337,-2.25 z m 46.01365,-1.5 c 0.008,-2.75 0.20172,-3.75631 0.43157,-2.23625 0.22986,1.52006 0.22371,3.77006 -0.0136,5 -0.23736,1.22994 -0.42542,-0.0137 -0.41792,-2.76375 z M 338,200.98608 c -1.05532,-0.69179 -0.46242,-0.79289 2,-0.34104 4.31279,0.79139 5.12629,1.35998 1.91667,1.33965 -1.32917,-0.008 -3.09167,-0.4578 -3.91667,-0.99861 z m 8.75,0.35164 c 0.6875,-0.27741 1.8125,-0.27741 2.5,0 0.6875,0.27741 0.125,0.50439 -1.25,0.50439 -1.375,0 -1.9375,-0.22698 -1.25,-0.50439 z m -13.24292,-2.32627 c -0.35034,-0.56686 0.0511,-0.7345 0.94098,-0.39301 1.73242,0.66479 2.04939,1.38156 0.61096,1.38156 -0.51754,0 -1.21592,-0.44485 -1.55194,-0.98855 z M 268.19495,196.5 c 0.0204,-1.65 0.2445,-2.20394 0.49804,-1.23097 0.25354,0.97297 0.23687,2.32297 -0.0371,3 -0.27393,0.67703 -0.48137,-0.11903 -0.46099,-1.76903 z m 19.96294,0.5 c 0,-1.375 0.22698,-1.9375 0.50439,-1.25 0.27741,0.6875 0.27741,1.8125 0,2.5 -0.27741,0.6875 -0.50439,0.125 -0.50439,-1.25 z m 38.76642,-2.75 -2.42431,-2.75 2.75,2.42431 c 2.57029,2.26589 3.20859,3.07569 2.42431,3.07569 -0.17912,0 -1.41662,-1.2375 -2.75,-2.75 z m 37.58697,-1.62688 C 365.45659,191.18041 366.4191,190 366.65019,190 c 0.72338,0 -1.6049,3.85397 -2.75929,4.56743 -0.6041,0.37335 -0.32492,-0.50159 0.62038,-1.94431 z M 276.19495,189.5 c 0.0204,-1.65 0.2445,-2.20394 0.49804,-1.23097 0.25354,0.97297 0.23687,2.32297 -0.0371,3 -0.27393,0.67703 -0.48137,-0.11903 -0.46099,-1.76903 z m 13.42859,0.96134 c -0.34295,-0.8937 -0.59502,-2.15061 -0.56015,-2.79313 0.0349,-0.64251 0.49453,-0.0904 1.02148,1.22697 0.52695,1.31735 0.77902,2.57426 0.56015,2.79313 -0.21887,0.21887 -0.67854,-0.33327 -1.02148,-1.22697 z m 79.10767,-5.5415 c 0.35361,-1.3522 0.8069,-1.8055 1.05655,-1.05655 0.24048,0.72144 -0.0382,1.78716 -0.61931,2.36826 -0.74207,0.74207 -0.87221,0.35164 -0.43724,-1.31171 z m -91.65226,-1.50317 c 0.048,-1.16495 0.28494,-1.4019 0.60416,-0.60417 0.28887,0.72187 0.25335,1.58437 -0.0789,1.91667 -0.33229,0.33229 -0.56864,-0.25834 -0.52522,-1.3125 z M 320.15789,181 c 0,-1.375 0.22698,-1.9375 0.50439,-1.25 0.27741,0.6875 0.27741,1.8125 0,2.5 -0.27741,0.6875 -0.50439,0.125 -0.50439,-1.25 z m 50.09429,-3.5 c 0.0111,-2.2 0.21589,-2.98225 0.45508,-1.73834 0.23919,1.24391 0.23011,3.04391 -0.0202,4 -0.25029,0.95609 -0.446,-0.0617 -0.4349,-2.26166 z m -79.17323,0.91667 c 0.048,-1.16495 0.28494,-1.4019 0.60416,-0.60417 0.28887,0.72187 0.25335,1.58437 -0.0789,1.91667 -0.33229,0.33229 -0.56864,-0.25834 -0.52522,-1.3125 z M 320.15789,172 c 0,-1.375 0.22698,-1.9375 0.50439,-1.25 0.27741,0.6875 0.27741,1.8125 0,2.5 -0.27741,0.6875 -0.50439,0.125 -0.50439,-1.25 z M 368.6,168.4 c -0.35589,-0.92744 -0.42208,-1.91126 -0.14708,-2.18626 0.275,-0.275 0.79119,0.25882 1.14708,1.18626 0.35589,0.92744 0.42208,1.91126 0.14708,2.18626 -0.275,0.275 -0.79119,-0.25882 -1.14708,-1.18626 z m -47.52105,-0.98333 c 0.048,-1.16495 0.28494,-1.4019 0.60416,-0.60417 0.28887,0.72187 0.25335,1.58437 -0.0789,1.91667 -0.33229,0.33229 -0.56864,-0.25834 -0.52522,-1.3125 z m -24.51466,-6.7098 c 0.37553,-0.98622 0.93469,-1.54122 1.24258,-1.23333 0.30789,0.30789 6.4e-4,1.11479 -0.68278,1.79313 -0.98762,0.98026 -1.10248,0.8654 -0.5598,-0.5598 z M 327,158.62244 c 0,-0.20765 0.7875,-0.99515 1.75,-1.75 1.58606,-1.24387 1.62143,-1.2085 0.37756,0.37756 C 327.82119,158.91575 327,159.44548 327,158.62244 Z m 32.50708,-2.61099 c -0.35034,-0.56686 0.0511,-0.7345 0.94098,-0.39301 1.73242,0.66479 2.04939,1.38156 0.61096,1.38156 -0.51754,0 -1.21592,-0.44485 -1.55194,-0.98855 z m -59.94279,-2.30458 c 0.37553,-0.98622 0.93469,-1.54122 1.24258,-1.23333 0.30789,0.30789 6.4e-4,1.11479 -0.68278,1.79313 -0.98762,0.98026 -1.10248,0.8654 -0.5598,-0.5598 z M 353.5,153 c -1.63041,-0.70061 -1.68751,-0.87242 -0.30902,-0.92971 0.93004,-0.0387 1.9691,0.37971 2.30902,0.92971 0.71066,1.14988 0.67591,1.14988 -2,0 z m 24.25,0.33772 c 0.6875,-0.27741 1.8125,-0.27741 2.5,0 0.6875,0.27741 0.125,0.50439 -1.25,0.50439 -1.375,0 -1.9375,-0.22698 -1.25,-0.50439 z m -91.67105,-1.92105 c 0.048,-1.16495 0.28494,-1.4019 0.60416,-0.60417 0.28887,0.72187 0.25335,1.58437 -0.0789,1.91667 -0.33229,0.33229 -0.56864,-0.25834 -0.52522,-1.3125 z M 342.25,151.28375 c 1.5125,-0.22913 3.9875,-0.22913 5.5,0 1.5125,0.22912 0.275,0.41659 -2.75,0.41659 -3.025,0 -4.2625,-0.18747 -2.75,-0.41659 z m 44.31429,-3.57688 c 0.37553,-0.98622 0.93469,-1.54122 1.24258,-1.23333 0.30789,0.30789 6.4e-4,1.11479 -0.68278,1.79313 -0.98762,0.98026 -1.10248,0.8654 -0.5598,-0.5598 z m -82.73733,-2.33619 c 0.56457,-1.02888 1.75625,-2.77068 2.64817,-3.87068 1.50531,-1.85647 1.51107,-1.77131 0.0804,1.18659 -0.84771,1.75262 -2.03939,3.49443 -2.64818,3.87067 -0.79261,0.48987 -0.81544,0.15297 -0.0804,-1.18658 z m 62.63192,0.56279 c -0.36253,-0.58659 -0.44468,-1.281 -0.18255,-1.54313 0.26212,-0.26213 0.74306,0.21781 1.06875,1.06653 0.67618,1.76211 0.0999,2.07206 -0.8862,0.4766 z M 290,144.05902 c 0,-0.51754 0.44485,-1.21592 0.98855,-1.55194 0.56686,-0.35034 0.7345,0.0511 0.39301,0.94098 C 290.71677,145.18048 290,145.49745 290,144.05902 Z m 2,-4 c 0,-0.51754 0.44485,-1.21592 0.98855,-1.55194 0.56686,-0.35034 0.7345,0.0511 0.39301,0.94098 C 292.71677,141.18048 292,141.49745 292,140.05902 Z m 75,-1 c 0,-0.51754 0.44485,-1.21592 0.98855,-1.55194 0.56686,-0.35034 0.7345,0.0511 0.39301,0.94098 C 367.71677,140.18048 367,140.49745 367,139.05902 Z m 16.50708,-4.04757 c -0.35034,-0.56686 0.0511,-0.7345 0.94098,-0.39301 1.73242,0.66479 2.04939,1.38156 0.61096,1.38156 -0.51754,0 -1.21592,-0.44485 -1.55194,-0.98855 z m -11.69458,-1.69456 c 0.72187,-0.28887 1.58438,-0.25335 1.91667,0.0789 0.33229,0.33229 -0.25834,0.56864 -1.3125,0.52522 -1.16495,-0.048 -1.4019,-0.28494 -0.60417,-0.60416 z M 323.5,120 c 3.26557,-3.3 6.16239,-6 6.43739,-6 0.275,0 -2.17182,2.7 -5.43739,6 -3.26557,3.3 -6.16239,6 -6.43739,6 -0.275,0 2.17182,-2.7 5.43739,-6 z m -20,3 c 0.99549,-1.1 2.03498,-2 2.30998,-2 0.275,0 -0.31449,0.9 -1.30998,2 -0.99549,1.1 -2.03498,2 -2.30998,2 -0.275,0 0.31449,-0.9 1.30998,-2 z m 5.5,-6.5 c 1.29175,-1.375 2.57363,-2.5 2.84863,-2.5 0.275,0 -0.55688,1.125 -1.84863,2.5 -1.29175,1.375 -2.57363,2.5 -2.84863,2.5 -0.275,0 0.55688,-1.125 1.84863,-2.5 z m -9,-0.87756 c 0,-0.20765 0.7875,-0.99515 1.75,-1.75 1.58606,-1.24387 1.62143,-1.2085 0.37756,0.37756 C 300.82119,115.91575 300,116.44548 300,115.62244 Z m 33.00363,-3.96426 c 1.37301,-1.563 3.39637,-3.30559 4.49637,-3.87241 2.10528,-1.08483 2.04382,-1.0194 -3.49637,3.72198 L 330.50727,114.5 Z M 316,109.68709 c 0,-0.1721 1.4625,-1.6346 3.25,-3.25 l 3.25,-2.93709 -2.93709,3.25 C 316.82513,109.77946 316,110.45965 316,109.68709 Z m 153.29398,-7.96912 c -1.19752,-0.53434 -2.43886,-1.65313 -2.75853,-2.486197 -0.48199,-1.256031 -0.32015,-1.297977 0.94782,-0.245657 0.84098,0.697952 2.98878,1.573544 4.77289,1.945764 2.62726,0.54813 2.86096,0.77949 1.22948,1.2172 -1.10789,0.29724 -2.99414,0.10324 -4.19166,-0.43111 z M 351,99.570368 c 0,-0.275 0.9,-0.981666 2,-1.570368 1.1,-0.588702 2,-0.845368 2,-0.570368 0,0.275 -0.9,0.981666 -2,1.570368 -1.1,0.588702 -2,0.845368 -2,0.570368 z m 127.56429,-1.863496 c 0.37553,-0.986221 0.93469,-1.541221 1.24258,-1.233333 0.30789,0.307887 6.4e-4,1.114794 -0.68278,1.793128 -0.98762,0.980267 -1.10248,0.865403 -0.5598,-0.559795 z m -16.05721,-0.695418 c -0.35034,-0.56686 0.0511,-0.734507 0.94098,-0.393011 C 465.18048,97.283234 465.49745,98 464.05902,98 c -0.51754,0 -1.21592,-0.444846 -1.55194,-0.988546 z M 339,91.570368 c 0,-0.275 0.9,-0.981666 2,-1.570368 1.1,-0.588702 2,-0.845368 2,-0.570368 0,0.275 -0.9,0.981666 -2,1.570368 -1.1,0.588702 -2,0.845368 -2,0.570368 z m 108.55764,-0.477109 c -0.30822,-0.498708 0.34022,-0.671224 1.44098,-0.383369 2.33499,0.610613 2.63015,1.29011 0.5604,1.29011 -0.79254,0 -1.69316,-0.408034 -2.00138,-0.906741 z m -7.52974,-3.559637 c -0.66934,-0.806508 -1.06194,-1.916798 -0.87244,-2.467311 0.1895,-0.550513 0.8647,0.109357 1.50045,1.466378 1.31782,2.812886 1.12751,3.116202 -0.62801,1.000933 z M 393.25,85.310674 c 0.9625,-0.251527 2.5375,-0.251527 3.5,0 0.9625,0.251528 0.175,0.457323 -1.75,0.457323 -1.925,0 -2.7125,-0.205795 -1.75,-0.457323 z m 8,-1 c 0.9625,-0.251527 2.5375,-0.251527 3.5,0 0.9625,0.251528 0.175,0.457323 -1.75,0.457323 -1.925,0 -2.7125,-0.205795 -1.75,-0.457323 z m 14.5,0.02705 c 0.6875,-0.277412 1.8125,-0.277412 2.5,0 0.6875,0.277413 0.125,0.504386 -1.25,0.504386 -1.375,0 -1.9375,-0.226973 -1.25,-0.504386 z M 426.232,79 c 0,-1.925 0.2058,-2.7125 0.45733,-1.75 0.25152,0.9625 0.25152,2.5375 0,3.5 C 426.4378,81.7125 426.232,80.925 426.232,79 Z M 471,79 c -0.90129,-0.58246 -1.02463,-0.975486 -0.30902,-0.984687 0.65504,-0.0084 1.4691,0.434687 1.80902,0.984687 0.7673,1.241525 0.42112,1.241525 -1.5,0 z m -12.45729,-3.930902 c -0.31644,-0.511996 -0.19299,-1.167201 0.27431,-1.456011 0.46731,-0.28881 0.84965,0.130095 0.84965,0.930902 0,1.686167 -0.31534,1.833491 -1.12396,0.525109 z M 381,74.606989 c 0,-0.216156 0.675,-0.652033 1.5,-0.968615 0.825,-0.316583 1.5,-0.139728 1.5,0.393011 C 384,74.564123 383.325,75 382.5,75 381.675,75 381,74.823145 381,74.606989 Z m 6.8125,-1.290103 c 0.72187,-0.288871 1.58438,-0.253344 1.91667,0.07895 0.33229,0.332292 -0.25834,0.568641 -1.3125,0.52522 -1.16495,-0.04798 -1.4019,-0.284941 -0.60417,-0.604167 z m 5.45653,-1.009877 c 0.97297,-0.253543 2.32297,-0.236869 3,0.03705 0.67703,0.273923 -0.11903,0.481368 -1.76903,0.460988 -1.65,-0.02038 -2.20394,-0.244498 -1.23097,-0.498042 z m 39.54347,-5.990123 c 0.72187,-0.288871 1.58438,-0.253344 1.91667,0.07895 0.33229,0.332292 -0.25834,0.568641 -1.3125,0.52522 -1.16495,-0.04798 -1.4019,-0.284941 -0.60417,-0.604167 z m -16,-2 c 0.72187,-0.288871 1.58438,-0.253344 1.91667,0.07895 0.33229,0.332292 -0.25834,0.568641 -1.3125,0.52522 -1.16495,-0.04798 -1.4019,-0.284941 -0.60417,-0.604167 z"
           id="path131" />
        <path
           style="fill:#a3a3a3;fill-opacity:1"
           d="m 401.2005,537.98086 c -2.06593,-1.25958 -3.03412,-2.47324 -2.58967,-3.24626 0.3904,-0.67903 0.34158,-0.901 -0.1085,-0.49328 -0.93817,0.84991 -3.70136,-1.11026 -3.05024,-2.16381 0.23654,-0.38273 2.81909,-0.4379 5.73899,-0.12261 2.91991,0.3153 9.13392,0.31595 13.80892,0.001 4.675,-0.3145 8.69219,-0.42864 8.9271,-0.25365 0.79126,0.58946 -5.22432,6.23165 -6.08012,5.70274 -0.46584,-0.28791 -0.84698,0.006 -0.84698,0.65218 0,0.68359 -0.83766,0.9566 -2.00138,0.65228 -1.10076,-0.28785 -1.7492,-0.11534 -1.44098,0.38337 1.13433,1.83539 -9.02178,0.92113 -12.35714,-1.1124 z m -2.59986,-32.02108 C 392.80061,505.05019 390.00741,504 393.3882,504 c 1.72783,0 7.04789,-2.2008 15.82189,-6.5452 8.92435,-4.41884 22.82398,-16.97262 21.37968,-19.30956 -0.27599,-0.44655 0.0409,-0.8326 0.70422,-0.85789 2.63482,-0.10046 9.78813,-1.29637 21.70601,-3.62886 18.51983,-3.62458 21.02449,-3.88587 20.34792,-2.12278 C 473.03888,472.34107 472.38417,473 471.89301,473 471.40186,473 471,473.44486 471,473.98857 c 0,1.10775 -1.69773,3.33487 -7.38611,9.68929 -3.28577,3.67049 -4.12645,4.14655 -5.44195,3.08163 -1.25529,-1.01617 -1.40747,-1.01266 -0.78777,0.0182 0.48661,0.80947 -0.39793,2.3669 -2.4138,4.25 -3.62867,3.38968 -4.9169,3.73871 -4.5114,1.22232 0.36064,-2.23806 -0.33148,-3.44683 -1.54438,-2.69721 -0.52097,0.32197 -0.61503,1.11681 -0.20902,1.76631 1.4144,2.26264 1.10649,3.7114 -1.0424,4.90464 -1.18974,0.66064 -2.50067,1.10556 -2.91317,0.98871 -0.4125,-0.11685 -0.75,0.26411 -0.75,0.84657 0,0.58246 -0.45,0.7809 -1,0.44098 -0.55,-0.33992 -1,-0.18378 -1,0.34698 0,1.14354 -8.5806,4.23909 -9.42096,3.39872 C 432.26057,501.92723 432,502.13312 432,502.70323 c 0,2.5753 -23.27346,4.84454 -33.39936,3.25655 z M 477,505.62244 c 0,-0.20765 0.7875,-0.99515 1.75,-1.75 1.58606,-1.24387 1.62143,-1.2085 0.37756,0.37756 C 477.82119,505.91575 477,506.44548 477,505.62244 Z M 445.4268,452 c 0.33016,-1.375 0.87969,-4.40761 1.22118,-6.73913 0.34149,-2.33151 1.12289,-4.64025 1.73645,-5.13053 0.61357,-0.49027 5.39057,-1.63943 10.61557,-2.55368 5.225,-0.91426 12.74565,-2.24779 16.71256,-2.96341 4.99504,-0.90109 7.01133,-0.96479 6.55805,-0.20719 -0.35999,0.60167 0.12606,0.4604 1.08011,-0.31393 1.61487,-1.31065 1.69881,-1.04222 1.2157,3.88752 -0.8659,8.83594 -0.52252,8.53052 -11.83644,10.5275 -5.62649,0.99312 -11.12998,1.9378 -12.22998,2.09931 -1.1,0.16151 -3.575,0.58391 -5.5,0.93867 -1.925,0.35476 -4.625,0.71474 -6,0.79995 -1.375,0.0852 -2.87654,0.60492 -3.33675,1.15492 -0.46625,0.55722 -0.57094,-0.10696 -0.23645,-1.5 z m 2.40818,-40.19889 c 0.28658,-5.94587 0.5711,-6.85926 1.96951,-6.32264 0.899,0.34498 1.28757,0.28026 0.86349,-0.14382 -0.88152,-0.88153 28.19277,-6.56577 30.04999,-5.875 0.66989,0.24915 1.48395,0.0227 1.80902,-0.50332 1.56012,-2.52432 2.47301,-0.32799 2.47301,5.94983 v 6.90616 l -5.25,0.71083 c -2.8875,0.39096 -6.15,0.89944 -7.25,1.12996 -1.1,0.23053 -6.725,1.303 -12.5,2.38329 -5.775,1.08029 -10.95,2.133 -11.5,2.33937 -0.62608,0.23491 -0.87474,-2.22352 -0.66502,-6.57466 z M 448,376.63084 c 0,-5.60448 0.27088,-6.64869 1.75,-6.74619 2.16405,-0.14264 3.08474,-0.31349 6.25,-1.15979 1.375,-0.36763 3.85,-0.88503 5.5,-1.14976 1.65,-0.26473 7.6125,-1.34594 13.25,-2.40268 L 485,363.25106 v 6.7078 c 0,4.65603 -0.38235,6.73279 -1.25,6.78947 -0.6875,0.0449 -5.975,1.02488 -11.75,2.17771 -5.775,1.15283 -11.85,2.297 -13.5,2.5426 -1.65,0.24561 -4.6875,0.74952 -6.75,1.1198 l -3.75,0.67324 z m 0,-30.79728 V 343 l 14.25,0.116 c 7.8375,0.0638 13.575,0.29147 12.75,0.50593 -0.825,0.21446 -7.2375,1.43736 -14.25,2.71756 L 448,348.66712 Z M 292.87244,325.25 c -1.24387,-1.58606 -1.2085,-1.62143 0.37756,-0.37756 1.66575,1.30637 2.19548,2.12756 1.37244,2.12756 -0.20765,0 -0.99515,-0.7875 -1.75,-1.75 z M 527,323.5 c 1.29175,-1.375 2.57363,-2.5 2.84863,-2.5 0.275,0 -0.55688,1.125 -1.84863,2.5 -1.29175,1.375 -2.57363,2.5 -2.84863,2.5 -0.275,0 0.55688,-1.125 1.84863,-2.5 z m -204.63837,-7 c -0.31659,-0.825 -1.14736,-1.5 -1.84617,-1.5 -0.69882,0 -1.83077,-0.675 -2.51546,-1.5 -0.8601,-1.03636 -0.89795,-1.5 -0.12244,-1.5 0.61734,0 1.12244,0.525 1.12244,1.16667 0,0.64166 0.30098,0.86568 0.66885,0.49781 0.36787,-0.36786 1.53019,0.11067 2.58295,1.0634 1.05276,0.95273 4.23928,2.01535 7.08115,2.36138 l 5.16705,0.62914 -5.78138,0.1408 c -4.31085,0.10499 -5.9278,-0.24074 -6.35699,-1.3592 z m 44.84656,0.75057 31.70819,-0.27855 0.34056,-7.73601 0.34057,-7.73601 0.20125,8.25 L 400,318 367.75,317.76456 335.5,317.52911 Z M 419,316 c 0,-1.1 0.47656,-2 1.05902,-2 0.58246,0 0.78905,0.43681 0.4591,0.97068 -1.14731,1.85638 4.19139,2.09771 40.13696,1.81434 19.8853,-0.15676 35.94624,0.0525 35.69099,0.46498 -0.25526,0.4125 -17.76255,0.75 -38.90509,0.75 C 419.66667,318 419,317.96531 419,316 Z m -94.58541,-1.1382 c -0.43129,-0.69784 -0.29172,-0.9039 0.34549,-0.51008 0.58801,0.36341 1.29701,0.0954 1.57556,-0.59549 0.3625,-0.89914 0.52891,-0.91769 0.58541,-0.0652 0.11408,1.72088 -1.6556,2.54754 -2.50646,1.17082 z m 175.6858,-1.56632 c 0.72815,-1.21249 1.53915,-1.98927 1.80223,-1.72619 0.26308,0.26308 -0.33267,1.25511 -1.3239,2.20452 -1.72194,1.64929 -1.74325,1.62798 -0.47833,-0.47833 z M 419.15136,296 c 0.12805,-9.35 0.50599,-17 0.83985,-17 0.33386,0 1.17654,-1.575 1.87263,-3.5 0.69609,-1.925 1.6377,-3.5 2.09248,-3.5 0.45478,0 1.10922,-1.125 1.45432,-2.5 0.34511,-1.375 1.06889,-2.5 1.60841,-2.5 0.53952,0 0.98095,-0.6199 0.98095,-1.37756 0,-0.75765 0.67005,-1.93364 1.48899,-2.6133 0.81894,-0.67967 1.24239,-1.63477 0.94098,-2.12245 C 430.12857,260.39901 430.35852,260 430.94098,260 431.52344,260 432,259.3801 432,258.62244 c 0,-0.75765 0.67005,-1.93364 1.48899,-2.6133 0.81894,-0.67967 1.27153,-1.58761 1.00574,-2.01766 -0.26578,-0.43005 0.19335,-1.04154 1.02029,-1.35887 0.82694,-0.31733 1.44607,-0.92698 1.37583,-1.35478 -0.33046,-2.01292 0.30496,-3.38273 2.66299,-5.74076 1.40461,-1.40461 2.29463,-2.97324 1.97782,-3.48584 -0.3168,-0.5126 0.42149,-1.86131 1.64065,-2.99713 3.37094,-3.14052 1.22528,-4.27431 -8.03301,-4.24472 -8.56418,0.0274 -12.1393,0.70976 -12.1393,2.31702 0,0.5454 0.44485,0.7167 0.98855,0.38068 0.55571,-0.34345 0.74078,0.0347 0.42268,0.86366 -0.31123,0.81104 -1.2346,1.73124 -2.05193,2.04488 -0.81734,0.31364 -1.20598,1.02343 -0.86367,1.57732 0.34232,0.55388 0.0709,1.00706 -0.60328,1.00706 -0.67413,0 -0.96265,0.26303 -0.64117,0.58452 0.32149,0.32148 -0.0572,1.33398 -0.84152,2.25 -0.78431,0.91601 -1.45517,2.11548 -1.49079,2.66548 -0.088,1.35834 -4.05936,7.82279 -5.36608,8.73469 -0.57904,0.40408 -0.71529,0.74158 -0.30279,0.75 0.4125,0.008 -0.15,0.91531 -1.25,2.01531 -2.11689,2.11689 -3.54028,2.68321 -2.49563,0.99294 0.34231,-0.55389 -0.0785,-1.27604 -0.93524,-1.60479 -0.85671,-0.32874 -1.35079,-0.93242 -1.09797,-1.34149 0.25282,-0.40908 -0.39766,-1.66402 -1.44552,-2.78877 -1.04786,-1.12474 -1.6323,-2.31789 -1.29876,-2.65144 C 404.06043,252.2729 403.80833,252 403.16667,252 402.525,252 402,251.18485 402,250.18856 c 0,-0.99629 -0.80027,-2.68379 -1.77837,-3.75 -0.97811,-1.06621 -3.02207,-4.07606 -4.54216,-6.68856 -3.00172,-5.15894 -1.88652,-4.77961 -14.67947,-4.99318 -7.23097,-0.12072 -8.85918,1.24115 -5.5,4.60032 0.825,0.825 1.5,1.98215 1.5,2.57143 0,0.58929 0.37642,1.07143 0.83648,1.07143 0.46006,0 2.1333,2.5875 3.7183,5.75 1.585,3.1625 3.23638,5.90093 3.66975,6.08541 0.43336,0.18448 0.53357,0.74698 0.22268,1.25 C 385.13633,256.58843 385.38508,257 386,257 c 0.61492,0 0.83992,0.45 0.5,1 -0.33992,0.55 -0.11115,1 0.50837,1 0.68898,0 0.88063,0.87376 0.49351,2.25 -0.49544,1.76135 -0.40481,1.92423 0.4173,0.75 0.9436,-1.34775 1.51532,-0.75183 1.19924,1.25 -0.0651,0.4125 0.33158,0.75 0.88158,0.75 0.55,0 1,0.675 1,1.5 0,0.825 0.47656,1.5 1.05902,1.5 0.58246,0 0.7809,0.45 0.44098,1 -0.33992,0.55 -0.14148,1 0.44098,1 0.58246,0 1.05902,0.48214 1.05902,1.07143 0,0.58928 0.67914,1.75056 1.50919,2.58062 0.83006,0.83005 1.2535,1.92291 0.94098,2.42857 -0.31251,0.50566 -0.0917,0.91938 0.49081,0.91938 0.58246,0 1.00573,0.3375 0.9406,0.75 -0.31473,1.99327 0.21908,3.30582 1.11842,2.75 0.64349,-0.3977 1,3.29932 1,10.37009 v 10.98811 l -5.25,1.08801 c -11.0519,2.2904 -23.16527,3.03887 -49.3,3.0462 -20.24626,0.006 -27.38873,0.322 -28.3967,1.25759 -0.74069,0.6875 -1.09771,0.79846 -0.79338,0.24658 0.31006,-0.56227 -0.69377,-1.02 -2.28323,-1.04114 -1.5601,-0.0207 -2.61199,0.32564 -2.33752,0.76974 0.27446,0.44409 0.94822,0.52983 1.49724,0.19052 0.54901,-0.33931 1.24788,0.33783 1.55304,1.50476 0.39886,1.52525 0.89532,1.83912 1.76603,1.11649 0.84401,-0.70047 1.21119,-0.60581 1.21119,0.31226 0,1.96761 -2.86958,1.59088 -3.40241,-0.44668 -0.25373,-0.97028 -1.00109,-1.55701 -1.66079,-1.30386 -1.50424,0.57723 -6.02391,-4.10936 -5.219,-5.41174 0.3267,-0.52862 -0.0498,-0.89943 -0.83667,-0.82403 -0.78688,0.0754 -1.51623,-0.3129 -1.6208,-0.8629 -0.10456,-0.55 -1.70591,-2.29476 -3.55855,-3.87725 C 299.5158,295.04026 298,293.1759 298,292.47974 c 0,-0.69617 -0.675,-1.52478 -1.5,-1.84137 -0.825,-0.31658 -1.5,-1.07187 -1.5,-1.67841 0,-0.60655 -0.5625,-1.73006 -1.25,-2.49668 -3.06834,-3.42149 -3.77605,-4.4643 -3.03943,-4.47859 0.43419,-0.008 0.33943,-0.34592 -0.21057,-0.75 -0.55,-0.40408 -1.675,-1.60857 -2.5,-2.67665 -1.33333,-1.72618 -1.33333,-1.85683 0,-1.17584 0.825,0.42136 0.62649,0.0577 -0.44113,-0.80804 C 286.49125,275.70837 285.98385,275 286.43132,275 c 0.44746,0 0.35643,-0.5625 -0.2023,-1.25 C 284.72282,271.89666 279,261.09038 279,260.09958 c 0,-0.47043 -0.76016,-2.59779 -1.68924,-4.72746 -0.92908,-2.12966 -1.75327,-4.09712 -1.83153,-4.37212 -0.0783,-0.275 -0.48069,-1.85 -0.89429,-3.5 -0.41359,-1.65 -1.00737,-3.675 -1.3195,-4.5 -0.83297,-2.20161 -1.01199,-2.94333 -3.13665,-12.99615 -0.63379,-2.99876 -0.60927,-4.7069 0.0736,-5.12895 0.66067,-0.40831 0.60084,-0.77382 -0.16865,-1.03031 -0.84001,-0.28001 -1.26073,-4.9048 -1.42317,-15.64437 -0.12684,-8.38577 0.0214,-15.49884 0.3294,-15.80681 0.308,-0.30798 0.65455,-2.43498 0.77009,-4.72668 0.21815,-4.3268 0.47993,-6.11261 1.6369,-11.16673 0.37772,-1.65 0.90417,-4.0125 1.16989,-5.25 1.13823,-5.30086 1.43527,-6.42238 3.09841,-11.69849 0.96248,-3.05333 2.04278,-5.55151 2.40068,-5.55151 0.35789,0 0.65071,-0.59701 0.65071,-1.32668 0,-1.95159 5.69292,-13.67332 6.64075,-13.67332 0.44584,0 0.54264,-0.43359 0.21512,-0.96353 -0.32752,-0.52993 0.32092,-1.87993 1.44099,-3 1.12006,-1.12006 1.72546,-2.03647 1.34534,-2.03647 -0.38012,0 0.18238,-0.70837 1.25,-1.57416 1.06762,-0.86578 1.34541,-1.26869 0.61731,-0.89535 -1.09629,0.56212 -1.09792,0.31705 -0.009,-1.42585 0.72291,-1.15755 1.65613,-2.10464 2.07383,-2.10464 0.4177,0 0.75945,-0.62686 0.75945,-1.39301 0,-0.76616 0.675,-1.65203 1.5,-1.96862 0.825,-0.31658 1.5,-1.09944 1.5,-1.73969 0,-0.64025 0.96885,-2.00437 2.15301,-3.03138 1.18416,-1.02702 1.86325,-1.8673 1.5091,-1.8673 -0.35415,0 0.702,-1.28622 2.34699,-2.85826 1.645,-1.57205 2.9909,-3.18746 2.9909,-3.58981 0,-1.44834 5.4039,-6.42034 6.34553,-5.83838 0.52992,0.32751 0.65635,0.0985 0.28097,-0.50887 -0.37861,-0.61261 0.33181,-1.62723 1.59549,-2.27866 1.25291,-0.64588 3.34457,-2.495862 4.64814,-4.111066 1.38436,-1.715305 2.96564,-2.708216 3.80194,-2.387298 0.78749,0.302189 1.18782,0.154655 0.88961,-0.327853 -0.29821,-0.482509 1.02842,-2.075256 2.94806,-3.539437 C 327.42938,90.096184 329,89.124632 329,89.40136 c 0,0.276728 1.19071,-0.600371 2.64602,-1.949109 C 333.10134,86.103513 334.76465,85 335.34227,85 c 0.57763,0 2.72277,-1.159072 4.76699,-2.575716 2.04422,-1.416644 4.36333,-2.670613 5.15358,-2.786598 0.79026,-0.115984 2.5169,-0.911608 3.83699,-1.768052 1.3201,-0.856444 3.3918,-1.479217 4.60379,-1.383939 1.21199,0.09528 1.97293,-0.200026 1.69098,-0.656231 C 355.11265,75.373259 355.58352,75 356.44098,75 357.29844,75 358,74.475 358,73.833333 c 0,-0.641666 0.2961,-0.870571 0.65799,-0.508676 0.3619,0.361895 1.2619,0.156795 2,-0.455778 C 361.3961,72.256307 362,72.090311 362,72.5 c 0,0.409689 0.675,0.184689 1.5,-0.5 0.825,-0.684689 1.5,-0.948957 1.5,-0.587261 0,0.361696 0.9292,0.160334 2.0649,-0.447471 2.0507,-1.0975 4.60013,-1.844513 8.4351,-2.471577 1.1,-0.179863 2.225,-0.417814 2.5,-0.528779 0.275,-0.110965 0.85573,-0.142388 1.29051,-0.06983 0.43478,0.07256 1.58415,-0.292819 2.55416,-0.811951 4.32996,-2.317323 32.5558,-3.388662 44.65533,-1.694936 2.75,0.384952 6.47653,0.887199 8.28117,1.116105 1.80464,0.228905 3.82964,0.760349 4.5,1.180987 0.67036,0.420638 2.03316,0.630696 3.02846,0.466795 0.99529,-0.163901 2.43808,0.223571 3.20619,0.861048 0.76811,0.637478 1.86628,0.868752 2.44038,0.513943 0.57409,-0.354809 1.0438,-0.120404 1.0438,0.520899 0,0.641303 0.675,0.906984 1.5,0.590402 0.825,-0.316583 1.5,-0.09158 1.5,0.5 0,0.591582 0.5625,0.861589 1.25,0.600016 1.77914,-0.67691 5.99259,1.06007 5.29793,2.184053 -0.3193,0.516648 -0.0537,1.264983 0.59027,1.662967 0.70462,0.435483 0.90371,0.291422 0.5,-0.361803 -0.36895,-0.596976 -0.21348,-1.368062 0.34549,-1.713526 C 460.54266,73.164618 461,73.385081 461,74 c 0,0.614919 0.41891,0.859136 0.9309,0.542705 0.512,-0.316431 1.21809,-0.110648 1.5691,0.457295 0.35101,0.567943 1.0571,0.773726 1.5691,0.457295 C 465.58109,75.140864 466,75.385081 466,76 c 0,0.614919 0.45,0.839919 1,0.5 0.55,-0.339919 1,-0.06648 1,0.60765 0,0.674126 0.27857,0.947112 0.61905,0.606636 0.34047,-0.340476 1.27675,0.03866 2.08062,0.842524 0.80386,0.803865 1.87529,1.205879 2.38095,0.893364 C 473.58628,79.13766 474,79.385081 474,80 c 0,0.614919 0.45,0.839919 1,0.5 0.55,-0.339919 1,-0.06648 1,0.60765 0,0.674126 0.28417,0.941516 0.63148,0.5942 0.93632,-0.936317 4.52093,1.242528 3.84459,2.336869 -0.31897,0.516105 0.11463,0.671837 0.96356,0.346072 0.90803,-0.348443 1.79598,0.06562 2.15673,1.005711 0.33726,0.878906 0.90852,1.415499 1.26945,1.19243 0.36094,-0.22307 1.55128,0.276057 2.64522,1.109171 1.93718,1.475313 1.92875,1.496765 -0.32409,0.823923 -2.11909,-0.632898 -2.20713,-0.52121 -1.04985,1.33189 0.69477,1.112494 1.61799,1.803453 2.05161,1.535463 0.43361,-0.26799 0.5204,0.211117 0.19286,1.064683 -0.74245,1.934786 0.97216,2.035582 2.53773,0.149184 0.89398,-1.077175 0.86437,-1.523051 -0.12755,-1.921053 -0.76702,-0.307757 -0.83371,-0.550368 -0.16418,-0.597246 2.01842,-0.141323 3.83896,2.85453 2.53006,4.163435 C 492.28079,95.119206 492,95.079226 492,94.077555 c 0,-1.007471 -0.32687,-1.051167 -1.37239,-0.183465 -1.13992,0.946055 -0.80115,2.316488 2,8.09066 1.85482,3.82343 3.37239,7.55098 3.37239,8.28347 0,0.73248 0.39344,1.75928 0.87431,2.28178 1.25635,1.36511 4.63811,12.55827 6.78277,22.45 2.61877,12.07844 2.6302,44.82922 0.0199,57 -5.92665,27.63348 -19.05018,51.60608 -39.14188,71.5 -12.12574,12.00637 -21.36652,18.81267 -35.48606,26.13728 l -9.17694,4.76061 0.31395,9.3033 c 0.17267,5.11681 -0.0419,9.30229 -0.47679,9.30105 -0.4349,-10e-4 -0.68596,-7.65224 -0.5579,-17.00224 z m -94.1884,3.05201 c 1.90343,-2.67311 1.90295,-2.74337 -0.0402,-5.93868 -1.08155,-1.77846 -1.73646,-3.60571 -1.45535,-4.06054 0.2811,-0.45484 -0.075,-0.76529 -0.79134,-0.68989 -3.03483,0.31945 -18.50239,-21.81489 -23.71237,-33.93281 -3.66301,-8.51982 -8.00964,-23.12819 -8.52056,-28.63631 -0.27006,-2.91158 -0.83374,-7.54378 -1.25262,-10.29378 -0.41887,-2.75 -0.65864,-7.7 -0.53281,-11 0.12582,-3.3 0.26121,-8.025 0.30086,-10.5 0.0531,-3.31606 0.33079,-4.10535 1.05538,-3 0.70965,1.08257 0.82133,0.65347 0.4013,-1.54191 -0.63086,-3.29736 3.29089,-20.73919 6.10092,-27.13357 5.33517,-12.14052 12.19124,-24.31045 17.02468,-30.21981 18.00382,-22.01148 40.76479,-37.132225 65.71726,-43.6578 8.86799,-2.319158 30.52763,-4.568983 36.9735,-3.840502 C 423.005,85.371908 427,83.499262 427,79.558734 c 0,-7.380732 -2.67371,-8.246423 -22.59838,-7.31687 -20.84285,0.97239 -19.73663,0.783341 -37.90162,6.477201 -15.74067,4.93395 -34.2411,15.891989 -48.63058,28.804515 -4.88021,4.37929 -15.02351,16.17481 -18.89815,21.97642 -1.8366,2.75 -3.81897,5.33061 -4.40527,5.73469 -0.5863,0.40408 -0.65876,0.74158 -0.16101,0.75 0.49774,0.008 0.22256,0.80281 -0.61151,1.76531 -0.83407,0.9625 -2.34042,3.6625 -3.34744,6 -1.00701,2.3375 -2.18021,4.25 -2.6071,4.25 -0.4269,0 -0.48882,0.74882 -0.13762,1.66404 0.42936,1.11889 0.25527,1.42717 -0.53138,0.94099 C 286.45845,150.1653 286,150.52424 286,151.52102 c 0,0.90148 -1.31662,5.36931 -2.92582,9.92852 -6.70384,18.99342 -9.4383,45.43505 -6.40097,61.89597 0.69471,3.76503 1.17637,7.14003 1.07035,7.5 -0.52537,1.78373 6.34324,23.22923 9.40497,29.36465 1.01831,2.04059 1.85147,4.40309 1.85147,5.25 0,0.84691 0.34015,1.53984 0.75589,1.53984 0.41574,0 1.32499,1.2857 2.02056,2.8571 3.98873,9.01115 21.10025,30.40401 25.68625,32.113 2.89226,1.07782 5.33038,0.12923 7.50026,-2.91809 z m 28.33905,-98.49595 c 6.08282,-2.16969 11.46008,-6.45091 14.35789,-11.43134 2.33222,-4.00834 2.68623,-5.70632 2.65622,-12.73998 -0.0322,-7.53396 -0.27411,-8.46516 -3.37783,-13 -4.11826,-6.01719 -4.51189,-6.40667 -9.28934,-9.19162 -4.71976,-2.75131 -13.6997,-3.80772 -19.3569,-2.27715 -5.07411,1.37281 -11.88761,6.47091 -14.14533,10.58403 -0.9057,1.65 -2.04885,3.2915 -2.54035,3.64778 -0.49149,0.35628 -1.10792,3.98698 -1.36984,8.06821 -0.42478,6.61897 -0.17787,8.02971 2.28606,13.0617 3.26048,6.65877 5.26777,8.68943 11.97741,12.1168 5.69368,2.9084 12.69251,3.34079 18.80201,1.16157 z m 29.01373,-47.6731 c 3.56994,-1.82569 5.63836,-5.14489 5.66202,-9.08591 0.0326,-5.43247 -1.76383,-8.49429 -5.97166,-10.17793 -7.41051,-2.9651 -13.73682,0.48443 -15.1254,8.24738 -1.44815,8.09599 7.98315,14.82739 15.43504,11.01646 z m 95.89844,-53.576787 c 2.18462,-1.977055 1.69613,-7.157205 -0.85432,-9.059677 -5.91463,-4.411917 -27.22425,-13.245221 -31.95487,-13.245992 -6.74661,-0.0011 -8.94168,8.976055 -2.90499,11.880497 1.65,0.793866 3.78139,1.820404 4.73643,2.281196 C 448.19147,91.622989 449.68913,92 450.56456,92 452.65273,92 467,98.911088 467,99.916961 c 0,0.427579 1.0125,1.235889 2.25,1.796249 2.49275,1.12875 6.13907,0.14965 8.96418,-2.407037 z M 425.5,311 c -0.33992,-0.55 0.0835,-1 0.94098,-1 0.85746,0 1.55902,0.45 1.55902,1 0,0.55 -0.42344,1 -0.94098,1 -0.51754,0 -1.2191,-0.45 -1.55902,-1 z m 79.85938,-3.79615 c -0.92396,-1.4795 -0.79355,-1.82086 0.73976,-1.93637 1.02382,-0.0771 2.11871,0.276 2.43311,0.7847 0.31439,0.5087 -0.13185,0.65496 -0.99165,0.32503 -1.13517,-0.43561 -1.39395,-0.15862 -0.94495,1.01145 0.8239,2.14706 0.15782,2.04749 -1.23627,-0.18481 z m 6.98686,-7.85785 c -0.1026,-1.77005 0.12158,-2.20709 0.67379,-1.31359 0.68748,1.11237 1.13661,1.10112 2.65375,-0.0665 1.00442,-0.77299 0.73528,-0.18156 -0.59809,1.3143 -1.33338,1.49586 -2.45838,2.71942 -2.5,2.71903 -0.0416,-3.8e-4 -0.14488,-1.19437 -0.22945,-2.65329 z M 517.53413,295 c 0.4639,-0.825 1.66603,-2.09329 2.67139,-2.81842 1.00537,-0.72513 1.58807,-1.70654 1.2949,-2.1809 -0.29318,-0.47437 -0.0757,-1.14514 0.48327,-1.4906 2.37361,-1.46697 0.75409,2.35987 -2.13835,5.05283 -1.73507,1.6154 -2.77511,2.26209 -2.31121,1.43709 z m -2.51882,-1.69098 C 515.02373,292.86406 515.46684,291.825 516,291 c 0.8354,-1.29269 0.97149,-1.26629 0.98469,0.19098 0.008,0.93004 -0.43469,1.9691 -0.98469,2.30902 -0.55,0.33992 -0.99311,0.25398 -0.98469,-0.19098 z m 4.06364,-7.5 c -0.10631,-2.27706 1.56335,-3.18355 2.30481,-1.25134 0.32633,0.85041 0.18692,1.29502 -0.3098,0.98803 -0.49673,-0.307 -1.13105,0.007 -1.4096,0.69806 -0.31483,0.7809 -0.53634,0.6164 -0.58541,-0.43475 z m 5.47384,-0.72361 c -0.32198,-0.52097 -0.15917,-1.21065 0.3618,-1.53262 0.52097,-0.32198 1.21065,-0.15917 1.53262,0.3618 0.32198,0.52097 0.15917,1.21065 -0.3618,1.53262 -0.52097,0.32198 -1.21065,0.15917 -1.53262,-0.3618 z m -0.67011,-3.34774 c 1.00527,-1.2813 1.72935,-1.47462 2.65275,-0.70826 0.90901,0.75441 1.41742,0.68684 1.78838,-0.23767 0.35574,-0.88662 0.54306,-0.91822 0.59724,-0.10076 0.10969,1.6547 -1.64135,2.5706 -2.44098,1.27677 -0.45055,-0.729 -1.182,-0.65529 -2.3191,0.23369 -1.48855,1.16376 -1.51744,1.11561 -0.27829,-0.46377 z M 518,273 c 0,-0.55 0.45,-1 1,-1 0.55,0 1,0.45 1,1 0,0.55 -0.45,1 -1,1 -0.55,0 -1,-0.45 -1,-1 z m 15.68662,-1.75 c 0.34312,-0.9625 1.05909,-2.3125 1.59106,-3 0.6438,-0.83204 0.5919,-1.25 -0.15524,-1.25 C 534.5051,267 534,266.50186 534,265.89301 c 0,-0.60884 0.58296,-0.88328 1.29547,-0.60987 0.77824,0.29864 1.35713,-0.32143 1.44991,-1.55303 0.0849,-1.12759 0.64221,-2.35162 1.23839,-2.72008 0.59619,-0.36846 0.80128,-1.53395 0.45577,-2.58998 -0.51469,-1.57311 -0.43323,-1.64901 0.45081,-0.42005 0.95913,1.33333 1.09765,1.33333 1.24665,0 0.34404,-3.07858 0.4838,-3.55147 1.70548,-5.77067 0.6875,-1.24886 0.93818,-2.82386 0.55706,-3.5 -0.50158,-0.88984 -0.37093,-0.93401 0.47313,-0.15996 0.88554,0.8121 0.82734,2.01501 -0.24189,5 -2.05172,5.7278 -8.42865,19.43063 -9.0425,19.43063 -0.28903,0 -0.24478,-0.7875 0.0983,-1.75 z m 10.39233,-24.83333 c 0.048,-1.16495 0.28494,-1.4019 0.60416,-0.60417 0.28887,0.72187 0.25335,1.58437 -0.0789,1.91667 -0.33229,0.33229 -0.56864,-0.25834 -0.52522,-1.3125 z M 538.5,245 c 0.33992,-0.55 0.81648,-1 1.05902,-1 0.24254,0 0.44098,0.45 0.44098,1 0,0.55 -0.47656,1 -1.05902,1 -0.58246,0 -0.7809,-0.45 -0.44098,-1 z m 6.91902,-4 c 0.38847,-1.925 1.06237,-5.64676 1.49755,-8.27057 0.78713,-4.74579 2.08343,-7.51962 2.08343,-4.45815 0,2.26764 -3.04162,15.11605 -3.7224,15.72415 -0.31068,0.27751 -0.24704,-1.07043 0.14142,-2.99543 z m 0.31219,-15.91984 c -0.43497,-1.66335 -0.30483,-2.05378 0.43724,-1.31171 0.5811,0.5811 0.85979,1.64682 0.61931,2.36826 -0.24965,0.74895 -0.70294,0.29565 -1.05655,-1.05655 z M 549.27236,222 c 0,-2.475 0.19502,-3.4875 0.43337,-2.25 0.23836,1.2375 0.23836,3.2625 0,4.5 -0.23835,1.2375 -0.43337,0.225 -0.43337,-2.25 z m -0.20207,-6.25 c 0.0386,-0.6875 0.45702,-2.15 0.92971,-3.25 0.72021,-1.67602 0.87082,-1.47353 0.92971,1.25 0.0387,1.7875 -0.37971,3.25 -0.92971,3.25 -0.55,0 -0.96837,-0.5625 -0.92971,-1.25 z m 0.96687,-11.25 c -0.19152,-2.75 -0.25475,-6.05356 -0.14053,-7.34125 0.12613,-1.42197 -0.20545,-2.08592 -0.84448,-1.69098 -0.57868,0.35764 -1.05215,0.17371 -1.05215,-0.40875 0,-1.52933 1.96897,-1.30345 2.58286,0.29631 0.28605,0.74543 0.35863,4.23293 0.16129,7.75 -0.35336,6.2978 -0.36407,6.31893 -0.70699,1.39467 z M 549.15789,188 c 0,-1.375 0.22698,-1.9375 0.50439,-1.25 0.27741,0.6875 0.27741,1.8125 0,2.5 -0.27741,0.6875 -0.50439,0.125 -0.50439,-1.25 z M 547.75,183.66821 c -0.4125,-1.00748 -0.73632,-3.03248 -0.71959,-4.5 0.0264,-2.31975 0.16539,-2.43633 1.06396,-0.89271 0.56845,0.97653 0.89227,3.00153 0.71959,4.5 -0.26221,2.27541 -0.43759,2.42256 -1.06396,0.89271 z M 544,174.72251 C 544,173.77513 544.45,173 545,173 c 0.55,0 1.03553,-0.7875 1.07895,-1.75 0.0452,-1.00188 0.2909,-1.22664 0.57474,-0.52576 0.27269,0.67333 -0.21283,2.23596 -1.07894,3.47251 -1.2867,1.83701 -1.57475,1.93318 -1.57475,0.52576 z m 0.028,-8.14892 c -0.56539,-1.48708 -0.98349,-3.68699 -0.92911,-4.88869 0.061,-1.34824 0.63088,-0.4891 1.48819,2.24358 1.52689,4.867 1.08341,6.96519 -0.55908,2.64511 z M 541,158.55902 C 541,157.70156 541.45,157 542,157 c 0.55,0 1,0.42344 1,0.94098 0,0.51754 -0.45,1.2191 -1,1.55902 -0.55,0.33992 -1,-0.0835 -1,-0.94098 z M 539.0856,156 c -0.0302,-0.825 0.38124,-2.175 0.9144,-3 1.18132,-1.82797 1.18132,-0.24909 0,2.5 -0.56668,1.31874 -0.87815,1.48906 -0.9144,0.5 z m -3.00665,-3.55887 c -0.0434,-0.58238 0.59715,-1.93238 1.4235,-3 1.45663,-1.88192 1.48195,-1.88274 0.83006,-0.0271 -0.50181,1.42849 -0.3364,1.7064 0.65206,1.0955 0.88782,-0.54871 1.0859,-0.43258 0.60084,0.35226 -0.39798,0.64395 -1.10408,0.93568 -1.5691,0.64828 -0.46502,-0.2874 -1.0734,0.0428 -1.35195,0.73369 -0.27856,0.69093 -0.54199,0.77974 -0.58541,0.19736 z M 532,144.94098 c 0,-1.13246 -0.41891,-1.80012 -0.9309,-1.48369 -0.512,0.31644 -1.18914,0.1575 -1.50476,-0.35319 -0.68662,-1.11098 1.36428,-0.90435 3.3556,0.33807 1.06627,0.66526 1.26395,0.47943 0.79367,-0.7461 -0.96467,-2.5139 1.03683,-3.0309 2.33598,-0.6034 0.87339,1.63194 0.86927,1.97522 -0.0171,1.42739 -0.71032,-0.439 -1.38207,0.10083 -1.7164,1.37932 C 533.61025,147.5984 532,147.62732 532,144.94098 Z m -3.39461,-5.52692 c -0.33472,-0.87227 -0.22491,-2.27153 0.24402,-3.10946 0.74927,-1.33886 0.92988,-1.32215 1.49014,0.13788 0.40858,1.06474 0.24405,1.4182 -0.45814,0.98423 -0.73146,-0.45207 -0.87146,0.0293 -0.42116,1.44806 0.77867,2.45336 0.0549,2.90998 -0.85486,0.53929 z m 1.88453,-5.43037 c -0.34546,-0.55897 -0.95059,-0.81701 -1.34473,-0.57342 -0.39414,0.24359 -0.71662,-0.39103 -0.71662,-1.41027 0,-2.16247 1.1228,-1.70679 2.60124,1.05569 1.06146,1.98336 0.60125,2.7744 -0.53989,0.928 z M 527,128.16667 c 0,-0.64167 -0.3375,-1.05417 -0.75,-0.91667 -0.4125,0.1375 -0.78646,0.025 -0.83102,-0.25 -0.0446,-0.275 -0.63844,-1.54155 -1.31974,-2.81457 -1.0055,-1.87879 -1.51231,-2.0875 -2.69187,-1.10855 -1.18743,0.98548 -1.33797,0.90585 -0.82327,-0.43544 0.34643,-0.90279 0.97832,-1.64144 1.4042,-1.64144 1.18212,0 6.29763,7.04741 5.61269,7.73235 C 527.27044,129.06289 527,128.80833 527,128.16667 Z M 518.59004,117.25 c -2.19579,-2.10801 -2.71041,-2.30844 -2.20438,-0.85856 0.55963,1.6035 0.42828,1.69903 -0.86277,0.62756 C 514.29298,115.99826 514,116.00312 514,117.0442 c 0,0.70901 -0.23559,1.05352 -0.52354,0.76557 -0.85182,-0.85182 0.65188,-3.84851 1.62832,-3.24503 0.49237,0.3043 0.89522,0.15172 0.89522,-0.33908 0,-1.7384 -1.33636,-2.19184 -2.84995,-0.967 -1.19317,0.96554 -1.36996,0.96821 -0.79576,0.012 1.12101,-1.86683 -1.20654,-5.63818 -2.70974,-4.39063 -0.88374,0.73343 -1.21598,0.47784 -1.21598,-0.93544 0,-1.06953 0.24729,-1.9446 0.54953,-1.9446 0.517,0 7.21928,6.91672 11.42689,11.7925 2.64581,3.06597 1.62637,2.76125 -1.81495,-0.5425 z M 505,110.05902 c 0,-0.51754 0.44485,-1.21592 0.98855,-1.55194 0.56686,-0.35034 0.7345,0.0511 0.39301,0.94098 C 505.71677,111.18048 505,111.49745 505,110.05902 Z m -0.39996,-3.89715 c -0.31791,-0.51439 0.052,-1.4581 0.82194,-2.09712 0.82791,-0.68711 1.63615,-0.77971 1.97798,-0.22662 0.31791,0.51439 -0.052,1.4581 -0.82194,2.09712 -0.82791,0.68711 -1.63615,0.77971 -1.97798,0.22662 z m -3.9676,-6.376156 C 500.89951,99.353571 500.21803,99 499.11803,99 c -1.1,0 -2.27493,-0.444846 -2.61095,-0.988546 -0.36318,-0.587631 0.11984,-0.730721 1.19098,-0.352821 1.23972,0.437371 1.48993,0.308077 0.80194,-0.41439 -0.55,-0.577562 -1.77565,-1.206293 -2.72367,-1.397178 -1.00866,-0.203096 -1.42348,-0.81998 -1,-1.487121 0.48227,-0.75976 2.14464,0.08609 4.98348,2.535715 3.28615,2.835604 3.81721,3.675771 2.32342,3.675771 -1.06502,0 -1.71787,-0.35357 -1.45079,-0.785716 z"
           id="path129" />
        <path
           style="fill:#8c8c8c;fill-opacity:1"
           d="m 408.8125,540.31689 c 0.72187,-0.28887 1.58438,-0.25335 1.91667,0.0789 0.33229,0.33229 -0.25834,0.56864 -1.3125,0.52522 -1.16495,-0.048 -1.4019,-0.28494 -0.60417,-0.60416 z M 333.27236,430 c 0,-2.475 0.19502,-3.4875 0.43337,-2.25 0.23836,1.2375 0.23836,3.2625 0,4.5 -0.23835,1.2375 -0.43337,0.225 -0.43337,-2.25 z M 333.116,396.30902 c -0.0638,-2.85504 0.22978,-5.40469 0.6524,-5.66589 0.42263,-0.26119 0.62382,1.39975 0.4471,3.69099 -0.51902,6.72937 -0.97495,7.5483 -1.0995,1.9749 z M 333.39172,356 c 0,-7.425 0.15742,-10.4625 0.34983,-6.75 0.19241,3.7125 0.19241,9.7875 0,13.5 -0.19241,3.7125 -0.34983,0.675 -0.34983,-6.75 z m -4.05877,-38.91527 c -2.84187,-0.34353 -6.02839,-1.40412 -7.08115,-2.35685 -1.05276,-0.95273 -2.21508,-1.43126 -2.58295,-1.0634 -0.36787,0.36787 -0.66885,0.0957 -0.66885,-0.6048 0,-0.7213 -0.65052,-1.02403 -1.5,-0.69805 -0.92992,0.35684 -1.5,-0.005 -1.5,-0.95203 0,-0.8402 0.375,-1.29587 0.83333,-1.01261 0.45834,0.28327 0.83334,-0.14204 0.83334,-0.94513 0,-1.25292 -0.23987,-1.2431 -1.68995,0.0692 -1.51443,1.37054 -1.82143,1.37097 -2.95578,0.004 C 312.32473,308.68635 312.09031,308 312.5,308 c 0.40969,0 0.2626,-0.58113 -0.32687,-1.29139 -0.83397,-1.00488 -0.43812,-1.28297 1.78418,-1.25342 1.63349,0.0217 2.59972,0.46747 2.25735,1.04139 -0.32922,0.55188 0.0503,0.48693 0.84338,-0.14434 0.98833,-0.78668 11.82359,-1.3078 34.44196,-1.6565 24.76743,-0.38182 34.87104,-0.90598 40.5,-2.10106 4.125,-0.87578 7.5,-1.59391 7.5,-1.59585 0,-0.002 -0.14677,3.59753 -0.32615,7.99882 L 398.84771,317 h -30.84207 c -16.96314,0 -31.44137,0.1596 -32.17385,0.35467 -0.73249,0.19507 -3.65696,0.0736 -6.49884,-0.26994 z m -2.4119,-3.39375 c -0.0565,-0.85244 -0.22291,-0.83389 -0.58541,0.0652 -0.27855,0.69093 -0.98755,0.9589 -1.57556,0.59549 -0.63721,-0.39382 -0.77678,-0.18776 -0.34549,0.51008 0.85086,1.37672 2.62054,0.55006 2.50646,-1.17082 z m -12.7526,-6.92253 c -0.74207,-0.74207 -0.87221,-0.35164 -0.43724,1.31171 0.35361,1.3522 0.8069,1.8055 1.05655,1.05655 0.24048,-0.72144 -0.0382,-1.78716 -0.61931,-2.36826 z M 320.5,316 c -0.33992,-0.55 -0.14148,-1 0.44098,-1 0.58246,0 1.05902,0.45 1.05902,1 0,0.55 -0.19844,1 -0.44098,1 -0.24254,0 -0.7191,-0.45 -1.05902,-1 z m 100.5,0.0122 c -0.825,-0.53985 -1.05,-0.99533 -0.5,-1.01217 0.55,-0.0168 0.325,-0.46684 -0.5,-1 -0.825,-0.53316 -1.05,-0.97526 -0.5,-0.98244 0.61688,-0.008 0.87972,-3.57732 0.68605,-9.31637 l -0.31395,-9.3033 9.17694,-4.76061 c 14.11954,-7.32461 23.36032,-14.13091 35.48606,-26.13728 20.0917,-19.89392 33.21523,-43.86652 39.14188,-71.5 2.6103,-12.17078 2.59887,-44.92156 -0.0199,-57 -2.14466,-9.89173 -5.52642,-21.08489 -6.78277,-22.45 C 496.39344,112.0275 496,111.0007 496,110.26822 c 0,-0.73249 -1.51757,-4.46004 -3.37239,-8.28347 -2.80115,-5.774172 -3.13992,-7.144605 -2,-8.09066 1.04937,-0.870896 1.37988,-0.815945 1.40419,0.233465 0.0212,0.913994 0.56399,0.704366 1.62498,-0.627555 1.57175,-1.973114 1.58602,-1.969753 1.06181,0.25 -0.4035,1.708602 -0.0726,2.280078 1.37503,2.375 3.12692,0.20503 3.70749,0.342775 4.41135,1.046637 0.3694,0.369401 -0.48056,0.545158 -1.88881,0.390572 -1.40824,-0.154586 -2.32142,0.105677 -2.02928,0.578363 C 496.87901,98.613257 498.01803,99 499.11803,99 c 1.1,0 1.79163,0.3375 1.53695,0.75 -0.25469,0.4125 0.67076,0.81813 2.05653,0.90141 2.43981,0.14661 12.81108,9.15934 11.75511,10.2153 -0.26801,0.26801 -1.18246,-0.37986 -2.03212,-1.43971 -1.47466,-1.83946 -1.4948,-1.82385 -0.44342,0.34367 0.60577,1.24886 0.76922,2.82386 0.36321,3.5 -0.48486,0.80743 -0.1616,0.76169 0.94192,-0.13329 1.43617,-1.16477 1.76966,-1.12931 2.29674,0.24425 0.33914,0.88379 1.089,1.31494 1.66634,0.95812 0.58087,-0.359 0.7562,-0.17382 0.39254,0.41459 -0.36146,0.58485 0.72854,2.22938 2.42221,3.65451 1.69368,1.42513 2.64303,2.59115 2.10967,2.59115 -0.53335,0 -1.25318,0.73865 -1.59961,1.64144 -0.52472,1.36739 -0.37759,1.43206 0.88117,0.38738 1.23422,-1.02431 1.62404,-0.95967 2.12768,0.35281 0.33914,0.88379 1.13197,1.29809 1.76183,0.92067 0.66209,-0.39672 0.5974,-0.01 -0.15334,0.91671 -0.87302,1.07765 -0.95494,1.8153 -0.25,2.25098 0.57671,0.35642 1.04856,0.40089 1.04856,0.0988 0,-0.30207 0.87415,0.19925 1.94256,1.11405 1.48226,1.26915 1.70907,2.09957 0.95718,3.50449 -0.54196,1.01266 -0.62862,1.76334 -0.19256,1.66818 1.49597,-0.3265 4.28135,1.35402 3.72806,2.24926 -0.3043,0.49237 -0.0216,0.89522 0.62819,0.89522 0.87253,0 0.85098,0.39821 -0.0824,1.52289 -1.05047,1.26574 -0.99974,1.42153 0.30043,0.92261 1.12379,-0.43124 1.46678,-0.0857 1.21796,1.22711 -0.1905,1.00506 -0.3808,2.19145 -0.42288,2.63641 -0.0421,0.44496 -0.63901,0.45761 -1.32651,0.0281 -1.84829,-1.15466 -3.84555,-1.30076 -3.18566,-0.23304 0.31562,0.51069 0.99276,0.66963 1.50476,0.35319 0.51199,-0.31643 0.9309,0.35123 0.9309,1.48369 0,2.7172 1.61369,2.64427 2.33275,-0.10543 0.47628,-1.82129 0.81012,-1.96187 2.10562,-0.88669 0.84679,0.70276 1.29301,1.67677 0.9916,2.16445 -0.3014,0.48768 -0.0611,0.88669 0.53407,0.88669 0.62427,0 0.38039,1.0709 -0.57645,2.53121 -0.91218,1.39216 -1.37255,2.81716 -1.02305,3.16666 0.3495,0.34951 0.63546,0.0839 0.63546,-0.59022 0,-0.67413 0.44485,-0.95075 0.98855,-0.61473 0.56686,0.35034 0.7345,-0.0511 0.39301,-0.94098 C 538.05401,149.69837 538.25374,149 538.8254,149 c 0.6049,0 0.90939,1.77655 0.72842,4.25 -0.17102,2.3375 -0.1076,3.4625 0.14094,2.5 0.78253,-3.03047 2.15393,-1.89695 1.64117,1.3565 -0.32543,2.0649 -0.12853,2.88335 0.58724,2.44098 0.66594,-0.41157 1.07683,0.34867 1.07683,1.99237 0,2.38283 1.58468,6.93911 4.04801,11.63884 0.57849,1.10369 0.46406,1.84733 -0.33407,2.17105 -0.85349,0.34617 -0.87058,0.51581 -0.0576,0.57131 0.65032,0.0444 0.92933,0.94717 0.63757,2.0629 -0.64732,2.47533 0.4864,7.26983 1.56187,6.60516 0.43844,-0.27098 0.71321,1.52297 0.61058,3.98655 -0.10263,2.46358 0.18325,4.70781 0.63529,4.98719 0.45204,0.27937 0.45493,1.50452 0.006,2.72255 -0.4485,1.21803 -0.50118,4.9146 -0.11705,8.2146 0.40037,3.43964 0.26721,7.25661 -0.31205,8.94476 -0.73295,2.13602 -0.69031,3.05148 0.15526,3.33333 0.64115,0.21372 1.16572,0.82763 1.16572,1.36426 0,0.53663 -0.49988,0.66674 -1.11084,0.28915 -0.76979,-0.47576 -1.00005,0.69495 -0.75,3.81317 0.23166,2.8888 -0.11996,4.94868 -0.98215,5.75381 -0.81736,0.76326 -1.20155,2.73731 -0.9816,5.0437 0.19877,2.08427 0.065,3.60638 -0.29736,3.38245 -0.89004,-0.55007 -2.13344,6.35312 -1.36754,7.59238 0.33414,0.54064 0.13097,0.98299 -0.45149,0.98299 -0.58246,0 -1.05902,0.92656 -1.05902,2.05902 0,1.30174 -0.42461,1.79659 -1.15451,1.34549 -0.70779,-0.43744 -0.88336,-0.2748 -0.45375,0.42031 0.38541,0.62362 0.13824,2.15565 -0.54926,3.40451 -1.22168,2.2192 -1.36144,2.69209 -1.70548,5.77067 -0.149,1.33333 -0.27533,1.33333 -1.137,0 -1.29209,-1.99936 -1.27375,-0.38002 0.0231,2.04324 0.82553,1.54252 0.72896,1.79886 -0.5,1.32727 -1.36861,-0.52519 -2.06385,1.09083 -1.65356,3.8435 0.0585,0.39271 -0.56317,0.45706 -1.38158,0.14301 -0.8184,-0.31405 -1.488,-0.0728 -1.488,0.53599 0,0.60885 0.42331,1.10699 0.9407,1.10699 0.51738,0 0.31541,1.20523 -0.44882,2.6783 -0.76424,1.47306 -1.11373,3.12454 -0.77666,3.66994 0.37099,0.60027 -0.0997,0.7182 -1.19262,0.29881 -1.4669,-0.56291 -1.58665,-0.42915 -0.63852,0.71327 0.9099,1.09637 0.82887,1.53585 -0.36783,1.99507 -0.84414,0.32393 -1.47734,0.93898 -1.4071,1.36678 0.329,2.00406 -0.20345,3.33758 -1.10915,2.77783 -0.55,-0.33992 -1,-0.0864 -1,0.56343 0,0.88585 -0.34211,0.89753 -1.36732,0.0467 -1.04928,-0.87082 -1.68894,-0.72484 -2.75,0.62756 -1.23066,1.56857 -1.20486,1.62354 0.23464,0.5 1.31315,-1.02492 1.83515,-0.99987 2.77552,0.13322 0.90046,1.08498 0.80716,1.53025 -0.41925,2.00087 -1.02622,0.3938 -1.3306,0.20589 -0.87102,-0.53772 0.44534,-0.72058 0.26179,-0.86825 -0.49662,-0.39952 -0.92729,0.5731 -0.9054,1.10988 0.0955,2.34174 1.10186,1.35611 1.05062,1.50544 -0.33826,0.98579 -1.27283,-0.47623 -1.5315,-0.12872 -1.16325,1.56277 0.38336,1.76084 0.26947,1.88945 -0.59787,0.67518 -1.01418,-1.41985 -1.17764,-1.31552 -1.47706,0.94276 -0.0688,0.51852 -1.1375,1.88605 -2.375,3.03896 -2.44039,2.27356 -3.04901,3.80058 -0.95287,2.39072 0.71342,-0.47984 0.37592,-0.0342 -0.75,0.99029 -1.12592,1.0245 -2.04713,2.23553 -2.04713,2.69118 0,0.45565 -1.35649,2.15468 -3.01443,3.77562 -2.11263,2.06548 -3.81787,2.85897 -5.70006,2.65235 -2.37458,-0.26066 -2.55361,-0.0834 -1.54573,1.53046 0.87542,1.40178 0.82667,2.20267 -0.21016,3.45197 -0.74253,0.89469 -1.88066,1.42309 -2.52918,1.17423 -0.64853,-0.24886 -1.93989,0.83538 -2.8697,2.40943 l -1.69057,2.8619 -37.72008,0.0419 C 437.15682,316.97743 421.91715,316.61232 421,316.01217 Z M 428,311 c 0,-0.55 -0.70156,-1 -1.55902,-1 -0.85746,0 -1.2809,0.45 -0.94098,1 0.33992,0.55 1.04148,1 1.55902,1 0.51754,0 0.94098,-0.45 0.94098,-1 z m 86.29733,-11.92336 c -0.43853,-0.32995 -1.08904,-0.96139 -1.44559,-1.4032 -0.35654,-0.4418 -0.58154,0.31238 -0.5,1.67596 0.11428,1.91093 0.44565,2.23258 1.44559,1.4032 0.71354,-0.59183 0.93854,-1.34601 0.5,-1.67596 z m 2.68736,-7.88566 C 516.97149,289.73371 516.8354,289.70731 516,291 c -1.2656,1.95837 -1.2656,3.28218 0,2.5 0.55,-0.33992 0.99311,-1.37898 0.98469,-2.30902 z m 4.08927,-5.64527 c 0.49672,0.30699 0.63613,-0.13762 0.3098,-0.98803 -0.74146,-1.93221 -2.41112,-1.02572 -2.30481,1.25134 0.0491,1.05115 0.27058,1.21565 0.58541,0.43475 0.27855,-0.69093 0.91287,-1.00506 1.4096,-0.69806 z M 520,273 c 0,-0.55 -0.45,-1 -1,-1 -0.55,0 -1,0.45 -1,1 0,0.55 0.45,1 1,1 0.55,0 1,-0.45 1,-1 z m 20,-28 c 0,-0.55 -0.19844,-1 -0.44098,-1 -0.24254,0 -0.7191,0.45 -1.05902,1 -0.33992,0.55 -0.14148,1 0.44098,1 0.58246,0 1.05902,-0.45 1.05902,-1 z m 6.16845,-21.23155 c -0.74207,-0.74207 -0.87221,-0.35164 -0.43724,1.31171 0.35361,1.3522 0.8069,1.8055 1.05655,1.05655 0.24048,-0.72144 -0.0382,-1.78716 -0.61931,-2.36826 z M 549.5,195 c 0.33992,-0.55 0.14148,-1 -0.44098,-1 -0.58246,0 -1.05902,0.45 -1.05902,1 0,0.55 0.19844,1 0.44098,1 0.24254,0 0.7191,-0.45 1.05902,-1 z m -4.13837,-20.5 c 0.31658,-0.825 0.13972,-1.5 -0.39301,-1.5 -0.53274,0 -0.96862,0.675 -0.96862,1.5 0,0.825 0.17686,1.5 0.39301,1.5 0.21616,0 0.65203,-0.675 0.96862,-1.5 z m -15.90138,-35.62523 c -0.4503,-1.41878 -0.3103,-1.90013 0.42116,-1.44806 0.70219,0.43397 0.86672,0.0805 0.45814,-0.98423 -0.56026,-1.46003 -0.74087,-1.47674 -1.49014,-0.13788 -0.46893,0.83793 -0.57874,2.23719 -0.24402,3.10946 0.90972,2.37069 1.63353,1.91407 0.85486,-0.53929 z m -13.69928,-21.66651 c 1.39614,1.15128 1.42824,1.03239 0.29526,-1.09336 -1.00244,-1.88083 -1.45667,-2.09225 -2.1484,-1 -0.48246,0.76181 -0.84857,1.8351 -0.81357,2.3851 0.035,0.55 0.29687,0.41872 0.58193,-0.29174 0.42357,-1.05565 0.8046,-1.05565 2.08478,0 z m -9.37941,-7.7602 c 0.34149,-0.88992 0.17385,-1.29132 -0.39301,-0.94098 -0.5437,0.33602 -0.98855,1.0344 -0.98855,1.55194 0,1.43843 0.71677,1.12146 1.38156,-0.61096 z m 4.04841,-2.56137 c -0.94437,-1.52803 -2.0014,-0.9693 -2.0014,1.05791 0,1.4624 0.31609,1.68228 1.27471,0.8867 0.70108,-0.58185 1.0281,-1.45693 0.72669,-1.94461 z m -3.03001,-3.04856 c -0.34183,-0.55309 -1.15007,-0.46049 -1.97798,0.22662 -0.76998,0.63902 -1.13985,1.58273 -0.82194,2.09712 0.34183,0.55309 1.15007,0.46049 1.97798,-0.22662 0.76998,-0.63902 1.13985,-1.58273 0.82194,-2.09712 z M 506.5,307 c -0.33992,-0.55 -0.14148,-1 0.44098,-1 0.58246,0 1.05902,0.45 1.05902,1 0,0.55 -0.19844,1 -0.44098,1 -0.24254,0 -0.7191,-0.45 -1.05902,-1 z M 313,101.62244 c 0,-0.20765 0.7875,-0.99515 1.75,-1.749995 1.58606,-1.243871 1.62143,-1.208501 0.37756,0.377555 C 313.82119,101.91575 313,102.44548 313,101.62244 Z m 175.38156,-9.174378 c 0.32754,-0.853566 0.24075,-1.332673 -0.19286,-1.064683 -0.43362,0.26799 -1.30729,-0.34362 -1.94149,-1.359133 -0.91798,-1.469935 -0.84626,-1.964127 0.35179,-2.423863 0.85282,-0.327255 1.24015,-0.149139 0.89392,0.411071 -0.33602,0.5437 0.3906,0.988546 1.61473,0.988546 1.22413,0 1.93268,0.293005 1.57456,0.651123 -0.35812,0.358118 0.12938,1.291489 1.08333,2.074158 0.95395,0.782668 1.20305,1.157323 0.55356,0.832565 -0.6495,-0.324759 -1.46356,-0.133129 -1.80902,0.425842 -1.00261,1.622254 -2.78451,1.173853 -2.12852,-0.535626 z M 394.8125,39.316886 c 0.72187,-0.288871 1.58438,-0.253344 1.91667,0.07895 0.33229,0.332292 -0.25834,0.568641 -1.3125,0.52522 -1.16495,-0.04798 -1.4019,-0.284941 -0.60417,-0.604167 z m 28,0 c 0.72187,-0.288871 1.58438,-0.253344 1.91667,0.07895 0.33229,0.332292 -0.25834,0.568641 -1.3125,0.52522 -1.16495,-0.04798 -1.4019,-0.284941 -0.60417,-0.604167 z"
           id="path127" />
        <path
           style="fill:#767676;fill-opacity:1"
           d="m 420,536.62244 c 0,-0.20765 0.7875,-0.99515 1.75,-1.75 1.58606,-1.24387 1.62143,-1.2085 0.37756,0.37756 C 420.82119,536.91575 420,537.44548 420,536.62244 Z M 550.07895,192.41667 c 0.048,-1.16495 0.28494,-1.4019 0.60416,-0.60417 0.28887,0.72187 0.25335,1.58437 -0.0789,1.91667 -0.33229,0.33229 -0.56864,-0.25834 -0.52522,-1.3125 z"
           id="path125" />
        <path
           style="fill:#606060;fill-opacity:1"
           d="m 400.8125,531.31689 c 0.72187,-0.28887 1.58438,-0.25335 1.91667,0.0789 0.33229,0.33229 -0.25834,0.56864 -1.3125,0.52522 -1.16495,-0.048 -1.4019,-0.28494 -0.60417,-0.60416 z m 16,0 c 0.72187,-0.28887 1.58438,-0.25335 1.91667,0.0789 0.33229,0.33229 -0.25834,0.56864 -1.3125,0.52522 -1.16495,-0.048 -1.4019,-0.28494 -0.60417,-0.60416 z M 460,487.68709 c 0,-0.1721 1.4625,-1.6346 3.25,-3.25 l 3.25,-2.93709 -2.93709,3.25 C 460.82513,487.77946 460,488.45965 460,487.68709 Z M 485.32814,405.5 c 0.004,-3.85 0.18518,-5.30246 0.40166,-3.2277 0.21647,2.07477 0.21284,5.22477 -0.008,7 -0.22091,1.77524 -0.39803,0.0777 -0.39359,-3.7723 z m -0.0421,-33 c 0.008,-2.75 0.20172,-3.75631 0.43157,-2.23625 0.22986,1.52006 0.22371,3.77006 -0.0136,5 -0.23736,1.22994 -0.42542,-0.0138 -0.41792,-2.76375 z m -0.20706,-7.08333 c 0.048,-1.16495 0.28494,-1.4019 0.60416,-0.60417 0.28887,0.72187 0.25335,1.58438 -0.0789,1.91667 -0.33229,0.33229 -0.56864,-0.25834 -0.52522,-1.3125 z M 400.41858,299 c 0,-10.725 0.14711,-15.1125 0.32692,-9.75 0.17981,5.3625 0.17981,14.1375 0,19.5 -0.17981,5.3625 -0.32692,0.975 -0.32692,-9.75 z m 18,0 c 0,-10.725 0.14711,-15.1125 0.32692,-9.75 0.17981,5.3625 0.17981,14.1375 0,19.5 -0.17981,5.3625 -0.32692,0.975 -0.32692,-9.75 z M 379.25,235.26496 c 2.6125,-0.206 6.8875,-0.206 9.5,0 2.6125,0.206 0.475,0.37454 -4.75,0.37454 -5.225,0 -7.3625,-0.16854 -4.75,-0.37454 z m 51,0 c 2.6125,-0.206 6.8875,-0.206 9.5,0 2.6125,0.206 0.475,0.37454 -4.75,0.37454 -5.225,0 -7.3625,-0.16854 -4.75,-0.37454 z M 243.07895,218.41667 c 0.048,-1.16495 0.28494,-1.4019 0.60416,-0.60417 0.28887,0.72187 0.25335,1.58437 -0.0789,1.91667 -0.3323,0.33229 -0.56864,-0.25834 -0.52522,-1.3125 z m 24,-11 c 0.048,-1.16495 0.28494,-1.4019 0.60416,-0.60417 0.28887,0.72187 0.25335,1.58437 -0.0789,1.91667 -0.33229,0.33229 -0.56864,-0.25834 -0.52522,-1.3125 z m 308,-13 c 0.048,-1.16495 0.28494,-1.4019 0.60416,-0.60417 0.28887,0.72187 0.25335,1.58437 -0.0789,1.91667 -0.33229,0.33229 -0.56864,-0.25834 -0.52522,-1.3125 z M 397.8125,39.316886 c 0.72187,-0.288871 1.58438,-0.253344 1.91667,0.07895 0.33229,0.332292 -0.25834,0.568641 -1.3125,0.52522 -1.16495,-0.04798 -1.4019,-0.284941 -0.60417,-0.604167 z m 20.9375,0.02083 c 0.6875,-0.277412 1.8125,-0.277412 2.5,0 0.6875,0.277413 0.125,0.504386 -1.25,0.504386 -1.375,0 -1.9375,-0.226973 -1.25,-0.504386 z"
           id="path123" />
        <path
           style="fill:#494949;fill-opacity:1"
           d="m 404.26903,531.30701 c 0.97297,-0.25354 2.32297,-0.23687 3,0.0371 0.67703,0.27393 -0.11903,0.48137 -1.76903,0.46099 -1.65,-0.0204 -2.20394,-0.2445 -1.23097,-0.49804 z m 6.98097,0.004 c 0.9625,-0.25152 2.5375,-0.25152 3.5,0 0.9625,0.25153 0.175,0.45733 -1.75,0.45733 -1.925,0 -2.7125,-0.2058 -1.75,-0.45733 z M 457,490.62244 c 0,-0.20765 0.7875,-0.99515 1.75,-1.75 1.58606,-1.24387 1.62143,-1.2085 0.37756,0.37756 C 457.82119,490.91575 457,491.44548 457,490.62244 Z m 28.07895,-55.20577 c 0.048,-1.16495 0.28494,-1.4019 0.60416,-0.60417 0.28887,0.72187 0.25335,1.58438 -0.0789,1.91667 -0.33229,0.33229 -0.56864,-0.25834 -0.52522,-1.3125 z M 345.75,318.25145 c 10.0375,-0.16311 26.4625,-0.16311 36.5,0 10.0375,0.16311 1.825,0.29656 -18.25,0.29656 -20.075,0 -28.2875,-0.13345 -18.25,-0.29656 z m 94.06582,-3.7e-4 c 10.6237,-0.1621 27.7237,-0.16186 38,5.4e-4 10.2763,0.16239 1.58418,0.29502 -19.31582,0.29473 -20.9,-3e-4 -29.30788,-0.13317 -18.68418,-0.29527 z M 309.40499,306.75 307.5,304.5 l 2.25,1.90499 c 2.11444,1.79022 2.70524,2.59501 1.90499,2.59501 -0.18976,0 -1.20226,-1.0125 -2.25,-2.25 z M 267.19495,211.5 c 0.0204,-1.65 0.2445,-2.20394 0.49804,-1.23097 0.25354,0.97297 0.23687,2.32297 -0.0371,3 -0.27393,0.67703 -0.48137,-0.11903 -0.46099,-1.76903 z m 284.13319,-6 c 0.004,-3.85 0.18518,-5.30246 0.40166,-3.2277 0.21647,2.07477 0.21284,5.22477 -0.008,7 -0.22091,1.77524 -0.39803,0.0777 -0.39359,-3.7723 z m -284.13319,-6 c 0.0204,-1.65 0.2445,-2.20394 0.49804,-1.23097 0.25354,0.97297 0.23687,2.32297 -0.0371,3 -0.27393,0.67703 -0.48137,-0.11903 -0.46099,-1.76903 z M 406.75,63.276604 c 1.7875,-0.221826 4.7125,-0.221826 6.5,0 1.7875,0.221827 0.325,0.403322 -3.25,0.403322 -3.575,0 -5.0375,-0.181495 -3.25,-0.403322 z"
           id="path121" />
        <path
           style="fill:#333333;fill-opacity:1"
           d="m 402.97225,554.63918 c -6.94685,-1.4938 -13.91427,-5.53304 -17.91893,-10.38819 C 381.87475,540.39738 378,531.44927 378,527.96249 378,526.88312 377.4137,526 376.6971,526 374.53221,526 359.38411,518.33537 353.05628,514.03822 335.23794,501.93801 320.94979,482.98411 314.08948,462.3469 309.44995,448.39029 309,441.8557 309,388.43325 v -50.30478 l -7.25,-5.92552 C 284.76887,318.32403 268.01141,296.30197 258.42589,275.26793 241.10953,237.26969 238.52531,194.74924 251.11647,155 262.365,119.48937 285.98792,88.175289 317.16868,67.442486 366.36792,34.728779 427.68357,30.289132 480.90463,55.586952 c 69.62758,33.096414 107.32675,109.762088 91.00904,185.077528 -7.52602,34.73681 -27.64168,68.72648 -53.67537,90.69589 l -8.1147,6.84786 -0.36073,54.14588 c -0.34747,52.15452 -0.44187,54.44011 -2.56682,62.14589 -5.50846,19.97553 -13.10068,33.37351 -26.68439,47.08992 -4.40641,4.44945 -10.8212,9.97671 -14.25507,12.28278 C 459.84069,518.18141 444.5001,526 442.46203,526 c -0.62908,0 -1.67802,2.38728 -2.33099,5.30506 -3.64297,16.27852 -20.56206,26.90298 -37.15879,23.33412 z m 13.63824,-15.25864 c 1.87702,-0.8907 4.53252,-2.95022 5.90113,-4.57672 2.48965,-2.95878 3.36057,-5.46089 1.50069,-4.31143 -0.54323,0.33574 -7.52387,0.60634 -15.51254,0.60134 -13.39036,-0.008 -14.45293,0.12429 -13.60413,1.69859 3.85633,7.15247 14.02459,10.23749 21.71485,6.58822 z m 9.6921,-34.00189 c 12.41246,-2.79615 26.79838,-10.37792 35.539,-18.73004 4.72843,-4.51827 13.68897,-16.45139 12.92611,-17.21425 -0.26046,-0.26046 -24.05225,3.85014 -52.87063,9.13465 -28.81839,5.28452 -54.08457,9.85259 -56.14707,10.15127 -2.0625,0.29868 -3.75,0.91219 -3.75,1.36335 0,1.16031 7.42557,6.11045 14.5,9.6662 5.16875,2.59792 12.70748,5.08662 20,6.60245 5.2989,1.10143 23.18502,0.5171 29.80259,-0.97363 z m -22.65112,-43.45041 c 26.86669,-4.96595 55.75013,-10.28055 64.18543,-11.81021 8.46299,-1.53468 15.68672,-3.34723 16.11742,-4.04411 0.79017,-1.27853 2.30394,-13.14899 1.74774,-13.70519 -0.47804,-0.47804 -145.74204,26.33792 -146.43653,27.03241 -0.64536,0.64535 1.74671,6.31984 4.41132,10.46457 1.91651,2.98109 -1.65134,3.45329 59.97462,-7.93747 z M 369,433.45182 c 61.0232,-11.10264 102.97621,-18.81938 111.75,-20.55504 L 486,411.8582 v -6.76243 c 0,-3.71934 -0.2136,-6.97604 -0.47468,-7.23711 -0.47968,-0.47968 -5.26062,0.36745 -99.21564,17.58005 C 357.605,420.69742 333.8675,425 333.55968,425 c -0.78615,0 -0.70228,13.52407 0.0888,14.31512 0.35665,0.35666 1.59415,0.43189 2.75,0.16719 1.15585,-0.26471 15.82654,-2.97842 32.60154,-6.03049 z m 4.08279,-35.48906 C 394.21226,394.09228 422.075,388.94681 435,386.52837 c 12.925,-2.41844 28.9,-5.35028 35.5,-6.51521 17.0032,-3.00112 15.5,-2.02351 15.5,-10.08055 C 486,364.14877 485.7258,363 484.34523,363 c -1.67394,0 -23.3811,3.90927 -97.84523,17.62108 -22.55,4.15236 -43.8125,8.02782 -47.25,8.61215 l -6.25,1.06242 v 7.35218 c 0,4.04369 0.37476,7.35217 0.83279,7.35217 0.45804,0 18.12054,-3.16676 39.25,-7.03724 z m 20.12458,-38.53709 C 424.71832,353.60979 457.25,347.57775 465.5,346.02115 l 15,-2.8302 -73.75,-0.0955 L 333,343 v 13.5 c 0,11.15784 0.25284,13.5 1.45737,13.5 0.80156,0 27.23906,-4.75845 58.75,-10.57433 z m 7.56503,-59.76686 0.2724,-18.84118 -8.16961,-14.15882 C 388.38191,258.87147 382.52998,248.7875 379.87091,244.25 L 375.03624,236 h 8.8597 8.85971 l 7.87217,13.6623 c 4.3297,7.51427 8.27569,13.70177 8.76887,13.75 0.49319,0.0482 4.47717,-6.0998 8.85331,-13.6623 L 426.20661,236 h 8.50368 c 7.62499,0 8.43562,0.17738 7.84494,1.71666 -0.36231,0.94416 -6.04559,11.01105 -12.62953,22.37085 l -11.97078,20.65419 0.27254,18.87915 L 418.5,318.5 l 38.72428,0.28097 38.72428,0.28097 11.44295,-11.08524 c 18.23906,-17.6689 29.81447,-35.94462 37.03776,-58.4767 8.26564,-25.78354 9.35956,-50.26468 3.39601,-76 C 535.67816,121.07983 494.8528,79.956664 442.56037,67.467217 398.25919,56.88639 351.342,68.096066 317.5,97.347231 309.71858,104.07306 309.66467,104.12611 302.15864,112.44284 277.5684,139.68899 264.05976,181.81505 267.98878,219 c 4.02989,38.13966 21.80525,71.76423 50.85441,96.19822 l 4.3432,3.65317 38.6568,-0.17569 L 400.5,318.5 Z"
           id="path119" />
      </g>
      <path
         style="fill:#ffff00;stroke:none;stroke-width:0.184097"
         d="m 30.671885,50.363044 c -1.385693,-1.583911 -2.369461,-2.942934 -2.874321,-3.970717 -0.14921,-0.30376 -0.505738,-0.959217 -0.792284,-1.45657 -0.777003,-1.348634 -1.487308,-3.252662 -2.169399,-5.815243 -0.459487,-1.726272 -0.681491,-7.380966 -0.383801,-9.775895 0.235751,-1.896632 0.865292,-4.545104 1.352087,-5.688214 0.668813,-1.570532 2.247962,-4.602414 2.397157,-4.602414 0.08225,0 0.149542,-0.130182 0.149542,-0.289294 0,-0.159112 0.103555,-0.400991 0.230121,-0.537509 0.126566,-0.136517 0.395808,-0.465032 0.598314,-0.730033 0.202506,-0.265001 0.658145,-0.841661 1.012531,-1.281468 0.354386,-0.439806 0.875689,-1.099495 1.158451,-1.465975 0.282763,-0.36648 0.634848,-0.666327 0.782411,-0.666327 0.147563,0 0.268296,-0.07985 0.268296,-0.177447 0,-0.250989 1.517364,-1.653363 1.794941,-1.658915 0.126567,-0.0025 0.230121,-0.08436 0.230121,-0.18184 0,-0.372074 4.901198,-3.3205976 5.519679,-3.3205976 0.133465,0 0.665138,-0.2033959 1.181495,-0.4519909 0.516358,-0.248595 1.60158,-0.6296712 2.411604,-0.8468361 0.810025,-0.2171648 1.804147,-0.4901186 2.209159,-0.6065641 0.455046,-0.1308306 2.283758,-0.211719 4.78651,-0.211719 4.174299,0 5.4527,0.1462635 7.416791,0.848564 0.535376,0.1914349 1.133077,0.3480634 1.328223,0.3480634 0.195146,0 0.445613,0.1696682 0.556596,0.3770404 0.136436,0.2549334 0.313415,0.3416103 0.546474,0.2676403 0.207675,-0.065914 0.859996,0.150104 1.641062,0.5434423 0.713004,0.3590633 1.418589,0.6528424 1.567965,0.6528424 0.149376,0 0.337841,0.1036894 0.418812,0.2304209 0.08097,0.126732 0.368427,0.3443 0.638789,0.483484 0.270363,0.139185 0.45299,0.353597 0.405839,0.476471 -0.04715,0.122874 0.04231,0.329667 0.198793,0.45954 0.156488,0.129873 0.284523,0.350254 0.284523,0.489736 0,0.139482 0.08284,0.253603 0.184097,0.253603 0.101253,0 0.184096,0.100146 0.184096,0.222547 0,0.256266 1.288527,3.321 1.454453,3.459384 0.0607,0.05063 0.111981,0.174891 0.113954,0.276145 0.0091,0.468206 0.543735,2.11711 0.686421,2.11711 0.08809,0 0.115842,0.0717 0.06168,0.15934 -0.05416,0.08764 0.03181,0.729674 0.191048,1.426748 0.391502,1.713819 0.458226,8.69755 0.0983,10.288138 -0.51876,2.29247 -1.330644,4.664646 -2.215274,6.472613 -0.503292,1.02861 -0.866102,1.919177 -0.806242,1.979038 0.05986,0.05986 0.02082,0.108838 -0.08675,0.108838 -0.107573,0 -0.473465,0.43474 -0.813091,0.966089 -1.04952,1.641977 -3.182179,4.077153 -4.789436,5.468812 -2.460008,2.130023 -2.73169,2.355066 -2.73169,2.262744 0,-0.0481 -0.22782,0.06314 -0.506266,0.247212 -0.591161,0.390783 -3.708433,2.100935 -3.829596,2.100935 -0.04535,0 -0.08245,-0.502414 -0.08245,-1.116475 0,-1.105395 0.587774,-2.933649 0.943152,-2.933649 0.08879,0 0.161427,-0.118348 0.161427,-0.262994 0,-0.144649 0.103554,-0.375966 0.230121,-0.51404 0.297469,-0.324518 0.636202,-0.854352 0.915586,-1.432124 0.122402,-0.253133 0.411752,-0.716592 0.643001,-1.029908 0.231247,-0.313317 0.420451,-0.673324 0.420451,-0.800015 0,-0.126692 0.182909,-0.487223 0.406466,-0.801177 0.719735,-1.010775 1.07989,-1.847271 0.880985,-2.046176 -0.252028,-0.252028 -2.320051,-0.354289 -3.220465,-0.159246 -0.475746,0.103054 -0.737367,0.261622 -0.73916,0.448003 -0.0015,0.158671 -0.09549,0.403274 -0.208821,0.543563 -0.113324,0.140291 -0.500737,0.834978 -0.860918,1.543749 -0.36018,0.708772 -0.854567,1.53168 -1.098637,1.828685 l -0.443765,0.54001 -0.67158,-1.049849 c -0.36937,-0.577417 -0.671581,-1.099233 -0.671581,-1.159589 0,-0.06036 -0.372722,-0.670393 -0.828268,-1.355636 -0.910356,-1.36937 -1.095286,-1.46675 -2.792581,-1.470508 -1.305775,-0.0029 -1.71795,0.113209 -1.71795,0.483902 0,0.25388 0.509596,1.166257 0.756565,1.354551 0.0664,0.05063 0.420441,0.671952 0.786751,1.380724 0.36631,0.708772 0.747931,1.387778 0.848044,1.508905 0.100116,0.121126 0.128297,0.369656 0.06263,0.552289 -0.06567,0.182633 -0.05491,0.273873 0.0239,0.202755 0.160239,-0.144595 0.651753,0.27852 0.651753,0.561056 0,0.100048 0.0652,0.209519 0.144897,0.243271 0.230004,0.09741 1.143779,1.753694 1.143779,2.073185 0,0.159162 0.08284,0.289387 0.184096,0.289387 0.111021,0 0.184097,0.7659 0.184097,1.929506 0,1.849152 -0.01725,1.933594 -0.414217,2.027669 -1.97944,0.469098 -4.046838,0.606348 -11.091817,0.736364 -2.025062,0.03737 -4.029709,0.09998 -4.454772,0.139127 -0.766988,0.07064 -0.783293,0.05923 -2.152891,-1.506287 z m 4.18019,0.315247 c 0.322308,-0.431695 0.325761,-0.500492 0.05172,-1.030431 -0.161505,-0.312316 -0.293646,-0.686565 -0.293646,-0.831665 0,-0.145097 -0.151567,-0.303452 -0.336815,-0.351895 -0.505586,-0.132212 -2.628567,-3.068322 -3.674977,-5.082541 -1.146908,-2.207663 -1.999977,-4.856941 -2.344766,-7.281863 -0.290287,-2.041604 -0.362606,-5.631919 -0.113442,-5.631919 0.08661,0 0.207628,-0.517772 0.268926,-1.150604 0.247515,-2.555289 1.233722,-5.192718 3.183793,-8.514465 1.061059,-1.807406 4.468043,-5.273998 6.515115,-6.629103 3.988509,-2.640283 7.294481,-3.652809 12.702661,-3.890465 2.866031,-0.125944 3.313737,-0.2932491 3.313737,-1.238321 0,-1.3193089 -1.034079,-1.5530197 -5.522896,-1.2482207 -3.488425,0.2368705 -5.665968,0.8254058 -8.928682,2.4131987 -3.83313,1.865384 -6.564014,4.074556 -9.18325,7.428867 -1.110867,1.422626 -2.558868,3.7836 -2.815563,4.590793 -0.05635,0.177192 -0.175634,0.322169 -0.265078,0.322169 -0.08944,0 -0.162625,0.152717 -0.162625,0.339372 0,0.186655 -0.171626,0.828692 -0.381392,1.426748 -0.878189,2.503783 -1.296723,4.861874 -1.401972,7.898948 -0.147958,4.269515 0.298198,6.618695 2.185227,11.506033 0.856348,2.21791 4.400697,6.964565 5.572074,7.462217 0.653609,0.277682 1.164611,0.118965 1.631851,-0.506853 z m 5.741211,-18.71312 c 1.821131,-0.83017 2.853496,-2.419422 2.853496,-4.392749 0,-2.89542 -1.974233,-4.830738 -4.931916,-4.834702 -1.890575,-0.0025 -3.056818,0.659891 -4.198131,2.384531 -0.387361,0.585343 -0.471344,0.946297 -0.500265,2.150121 -0.03234,1.346248 0.01104,1.529767 0.6249,2.643315 0.582576,1.056804 0.79419,1.266538 1.811026,1.794941 0.966462,0.502225 1.348356,0.597664 2.377937,0.594271 0.787398,-0.0026 1.490228,-0.124234 1.962953,-0.339728 z m 5.541306,-9.302888 c 0.665533,-0.665532 0.81133,-1.43981 0.450048,-2.390051 -0.414374,-1.089891 -2.356843,-1.486152 -3.236075,-0.660156 -1.506624,1.4154 -0.614991,3.673441 1.451327,3.675448 0.5611,5.52e-4 0.839184,-0.129724 1.3347,-0.625241 z M 63.61372,13.079222 c 0.952149,-0.952148 0.499975,-1.785922 -1.49651,-2.75945 -3.970632,-1.9361649 -5.517465,-2.1031876 -5.877059,-0.6345881 -0.1901,0.7763741 0.503836,1.3885371 2.275507,2.0073671 1.516193,0.529593 3.03061,1.301522 3.250079,1.656632 0.226402,0.366325 1.380258,0.197765 1.847983,-0.269961 z"
         id="path280" />
      <path
         style="fill:#ffd42a;stroke-width:0.184097"
         d="m 31.331951,50.934016 c -3.492044,-3.755744 -6.146875,-9.211445 -6.67931,-13.726041 -0.119048,-1.009421 -0.17232,-3.265513 -0.125301,-5.306546 0.121114,-5.257425 0.738746,-7.404695 3.668908,-12.755389 0.716,-1.30747 3.278776,-4.381044 4.820832,-5.781694 3.148661,-2.85993 6.484013,-4.6522039 11.235311,-6.0373697 1.512411,-0.44092 2.050404,-0.4974261 5.401996,-0.5673787 2.079876,-0.04341 4.361151,0.00829 5.170152,0.1171604 1.838613,0.2474387 4.668025,1.0569809 4.935081,1.4120093 0.112417,0.1494469 0.391942,0.2717216 0.621168,0.2717216 0.957931,0 4.605289,1.9255491 4.605289,2.4312711 0,0.111856 0.188209,0.459725 0.418241,0.773041 0.230034,0.313317 0.531415,0.901041 0.669736,1.306053 0.138321,0.405012 0.477108,1.233447 0.752861,1.840965 0.650982,1.434196 1.209673,3.218693 1.504603,4.805807 0.326707,1.758115 0.32933,9.62708 0.0036,10.750351 -1.246461,4.298166 -2.601356,7.396223 -4.132309,9.448802 -2.850353,3.821526 -5.695092,6.423949 -9.065881,8.293654 -2.137194,1.185455 -2.212471,1.211782 -2.310844,0.808211 -0.05593,-0.229437 -0.03264,-0.861181 0.05175,-1.403874 0.146803,-0.944075 0.318613,-1.35625 1.022045,-2.451921 0.887609,-1.382543 1.9905,-3.231043 2.122271,-3.557032 0.08186,-0.202506 0.38365,-0.740989 0.670652,-1.196628 0.6909,-1.09686 0.852691,-1.659779 0.534917,-1.861129 -0.280775,-0.177907 -3.103976,-0.222768 -3.537999,-0.05622 -0.154383,0.05924 -0.546288,0.618437 -0.8709,1.242651 -0.854303,1.642791 -1.891812,3.311107 -2.070154,3.328808 -0.08473,0.0084 -0.633537,-0.771724 -1.219581,-1.733628 -0.586043,-0.961904 -1.31587,-2.021509 -1.621839,-2.354676 l -0.556304,-0.60576 -1.629901,0.05347 c -1.525335,0.05004 -1.633634,0.07973 -1.688095,0.462852 -0.03231,0.227258 0.178192,0.75961 0.473161,1.196627 0.775249,1.1486 1.886235,3.242494 1.886235,3.555029 0,0.148395 0.06889,0.269809 0.153093,0.269809 0.199146,0 1.175618,1.519273 1.65652,2.577351 0.361999,0.796464 0.507389,2.005675 0.434111,3.610492 l -0.03457,0.756996 -1.048951,0.210658 c -1.185277,0.238038 -6.271514,0.517565 -11.742509,0.645337 l -3.678682,0.08591 z m 2.973165,0.316534 c 0.246773,-0.112437 0.551758,-0.39704 0.677746,-0.632449 0.298555,-0.557855 -0.173966,-1.81359 -0.932017,-2.476857 -1.45781,-1.275528 -3.791715,-5.306673 -4.779649,-8.255458 -1.475907,-4.405288 -1.43401,-9.900757 0.108504,-14.231976 2.647815,-7.434788 9.414316,-13.374711 16.840684,-14.783469 0.788381,-0.149553 2.702705,-0.361569 4.254053,-0.471146 3.300927,-0.233156 3.649944,-0.373724 3.649944,-1.4700294 0,-0.6330944 -0.07687,-0.7671651 -0.592827,-1.0339778 -0.511726,-0.2646233 -1.009144,-0.2911355 -3.635907,-0.1937922 -1.673693,0.062024 -3.662039,0.2386223 -4.418545,0.3924404 -5.597365,1.1380953 -11.293589,4.674143 -14.816929,9.197911 -2.634546,3.382608 -3.73597,5.715989 -4.720609,10.000669 -0.536258,2.33354 -0.686231,7.794914 -0.278221,10.131639 0.330101,1.890537 1.524826,5.642562 2.262505,7.105382 1.166181,2.312542 4.347522,6.364483 5.300315,6.750791 0.508218,0.206054 0.567127,0.204437 1.080953,-0.02968 z m 6.472266,-19.286055 c 0.96077,-0.438853 2.218196,-1.821071 2.493953,-2.741462 0.12006,-0.40073 0.18697,-1.348874 0.148687,-2.106987 -0.08743,-1.7314 -0.734122,-2.898345 -2.060694,-3.718501 -0.744354,-0.460199 -1.118581,-0.557203 -2.411383,-0.625058 -1.829135,-0.09601 -2.643511,0.132463 -3.621453,1.015975 -1.126759,1.017959 -1.467971,1.719113 -1.58415,3.255258 -0.09446,1.248988 -0.05592,1.466417 0.452466,2.552819 0.889432,1.900673 2.204199,2.695974 4.465464,2.701155 0.95136,0.0022 1.609718,-0.101436 2.11711,-0.333199 z m 5.419839,-9.309262 c 0.49371,-0.509381 0.613507,-0.781178 0.613507,-1.391944 0,-0.98398 -0.327086,-1.571724 -1.071187,-1.924823 -1.624188,-0.770728 -3.213241,0.231196 -3.213241,2.025999 0,0.518648 0.142759,0.814649 0.625928,1.297818 0.541652,0.541653 0.74748,0.625929 1.528706,0.625929 0.786976,0 0.981478,-0.0812 1.516287,-0.632979 z m 17.593616,-9.711651 c 0.583494,-0.693442 0.576383,-0.935611 -0.04741,-1.614639 -0.8273,-0.900553 -5.077879,-2.7684541 -6.299872,-2.7684541 -0.562591,0 -1.29411,0.717859 -1.29411,1.2699468 0,0.7054573 0.607583,1.2095473 2.336995,1.9389213 1.307338,0.551365 2.301919,1.045486 3.390567,1.684475 0.542632,0.318503 1.411376,0.08689 1.913832,-0.51025 z"
         id="path656" />
    </g>
  </g>
</svg>
